<svg width="851" height="510" viewBox="0 0 851 510" fill="none" xmlns="http://www.w3.org/2000/svg">
<rect width="416.032" height="416.032" transform="matrix(0.866025 0.5 -0.866025 0.5 426.294 42)" fill="#383A3F"/>
<rect width="416.032" height="10.4008" transform="matrix(0.866025 0.5 0 1 66 250.016)" fill="#212125"/>
<rect width="416.032" height="10.4008" transform="matrix(0.866025 -0.5 0 1 426.294 458.032)" fill="#232328"/>
<rect width="18" height="18" transform="matrix(0.866025 0.5 -0.866025 0.5 187.588 243)" fill="#BDCBFD"/>
<rect width="18" height="18" transform="matrix(0.866025 0.5 0 1 172 252)" fill="#93AAFC"/>
<rect width="18" height="18" transform="matrix(0.866025 -0.5 0 1 187.588 261)" fill="#6580E1"/>
<rect width="18" height="18" transform="matrix(0.866025 0.5 -0.866025 0.5 225.588 280)" fill="#BDCBFD"/>
<rect width="18" height="18" transform="matrix(0.866025 0.5 0 1 210 289)" fill="#93AAFC"/>
<rect width="18" height="18" transform="matrix(0.866025 -0.5 0 1 225.588 298)" fill="#6580E1"/>
<rect width="18" height="18" transform="matrix(0.866025 0.5 -0.866025 0.5 225.588 200)" fill="#BDCBFD"/>
<rect width="18" height="18" transform="matrix(0.866025 0.5 0 1 210 209)" fill="#93AAFC"/>
<rect width="18" height="18" transform="matrix(0.866025 -0.5 0 1 225.588 218)" fill="#6580E1"/>
<rect width="18" height="18" transform="matrix(0.866025 0.5 -0.866025 0.5 256.588 182)" fill="#BDCBFD"/>
<rect width="18" height="18" transform="matrix(0.866025 0.5 0 1 241 191)" fill="#93AAFC"/>
<rect width="18" height="18" transform="matrix(0.866025 -0.5 0 1 256.588 200)" fill="#6580E1"/>
<rect width="18" height="18" transform="matrix(0.866025 0.5 -0.866025 0.5 256.588 217)" fill="#BDCBFD"/>
<rect width="18" height="18" transform="matrix(0.866025 0.5 0 1 241 226)" fill="#93AAFC"/>
<rect width="18" height="18" transform="matrix(0.866025 -0.5 0 1 256.588 235)" fill="#6580E1"/>
<rect width="18" height="18" transform="matrix(0.866025 0.5 -0.866025 0.5 297.588 234)" fill="#BDCBFD"/>
<rect width="18" height="18" transform="matrix(0.866025 0.5 0 1 282 243)" fill="#93AAFC"/>
<rect width="18" height="18" transform="matrix(0.866025 -0.5 0 1 297.588 252)" fill="#6580E1"/>
<rect width="18" height="18" transform="matrix(0.866025 0.5 -0.866025 0.5 333.588 214)" fill="#BDCBFD"/>
<rect width="18" height="18" transform="matrix(0.866025 0.5 0 1 318 223)" fill="#93AAFC"/>
<rect width="18" height="18" transform="matrix(0.866025 -0.5 0 1 333.588 232)" fill="#6580E1"/>
<rect width="18" height="18" transform="matrix(0.866025 0.5 -0.866025 0.5 333.588 178)" fill="#BDCBFD"/>
<rect width="18" height="18" transform="matrix(0.866025 0.5 0 1 318 187)" fill="#93AAFC"/>
<rect width="18" height="18" transform="matrix(0.866025 -0.5 0 1 333.588 196)" fill="#6580E1"/>
<rect width="18" height="18" transform="matrix(0.866025 0.5 -0.866025 0.5 333.588 142)" fill="#BDCBFD"/>
<rect width="18" height="18" transform="matrix(0.866025 0.5 0 1 318 151)" fill="#93AAFC"/>
<rect width="18" height="18" transform="matrix(0.866025 -0.5 0 1 333.588 160)" fill="#6580E1"/>
<rect width="18" height="18" transform="matrix(0.866025 0.5 -0.866025 0.5 364.588 232)" fill="#BDCBFD"/>
<rect width="18" height="18" transform="matrix(0.866025 0.5 0 1 349 241)" fill="#93AAFC"/>
<rect width="18" height="18" transform="matrix(0.866025 -0.5 0 1 364.588 250)" fill="#6580E1"/>
<rect width="18" height="18" transform="matrix(0.866025 0.5 -0.866025 0.5 364.588 268)" fill="#BDCBFD"/>
<rect width="18" height="18" transform="matrix(0.866025 0.5 0 1 349 277)" fill="#93AAFC"/>
<rect width="18" height="18" transform="matrix(0.866025 -0.5 0 1 364.588 286)" fill="#6580E1"/>
<rect width="18" height="18" transform="matrix(0.866025 0.5 -0.866025 0.5 333.588 286)" fill="#BDCBFD"/>
<rect width="18" height="18" transform="matrix(0.866025 0.5 0 1 318 295)" fill="#93AAFC"/>
<rect width="18" height="18" transform="matrix(0.866025 -0.5 0 1 333.588 304)" fill="#6580E1"/>
<rect width="18" height="18" transform="matrix(0.866025 0.5 -0.866025 0.5 364.588 196)" fill="#BDCBFD"/>
<rect width="18" height="18" transform="matrix(0.866025 0.5 0 1 349 205)" fill="#93AAFC"/>
<rect width="18" height="18" transform="matrix(0.866025 -0.5 0 1 364.588 214)" fill="#6580E1"/>
<rect width="18" height="18" transform="matrix(0.866025 0.5 -0.866025 0.5 364.588 160)" fill="#BDCBFD"/>
<rect width="18" height="18" transform="matrix(0.866025 0.5 0 1 349 169)" fill="#93AAFC"/>
<rect width="18" height="18" transform="matrix(0.866025 -0.5 0 1 364.588 178)" fill="#6580E1"/>
<rect width="18" height="18" transform="matrix(0.866025 0.5 -0.866025 0.5 364.588 124)" fill="#BDCBFD"/>
<rect width="18" height="18" transform="matrix(0.866025 0.5 0 1 349 133)" fill="#93AAFC"/>
<rect width="18" height="18" transform="matrix(0.866025 -0.5 0 1 364.588 142)" fill="#6580E1"/>
<rect width="18" height="18" transform="matrix(0.866025 0.5 -0.866025 0.5 395.588 250)" fill="#BDCBFD"/>
<rect width="18" height="18" transform="matrix(0.866025 0.5 0 1 380 259)" fill="#93AAFC"/>
<rect width="18" height="18" transform="matrix(0.866025 -0.5 0 1 395.588 268)" fill="#6580E1"/>
<rect width="18" height="18" transform="matrix(0.866025 0.5 -0.866025 0.5 395.588 286)" fill="#BDCBFD"/>
<rect width="18" height="18" transform="matrix(0.866025 0.5 0 1 380 295)" fill="#93AAFC"/>
<rect width="18" height="18" transform="matrix(0.866025 -0.5 0 1 395.588 304)" fill="#6580E1"/>
<rect width="18" height="18" transform="matrix(0.866025 0.5 -0.866025 0.5 441.588 312)" fill="#BDCBFD"/>
<rect width="18" height="18" transform="matrix(0.866025 0.5 0 1 426 321)" fill="#93AAFC"/>
<rect width="18" height="18" transform="matrix(0.866025 -0.5 0 1 441.588 330)" fill="#6580E1"/>
<rect width="18" height="18" transform="matrix(0.866025 0.5 -0.866025 0.5 410.588 330)" fill="#BDCBFD"/>
<rect width="18" height="18" transform="matrix(0.866025 0.5 0 1 395 339)" fill="#93AAFC"/>
<rect width="18" height="18" transform="matrix(0.866025 -0.5 0 1 410.588 348)" fill="#6580E1"/>
<rect width="18" height="18" transform="matrix(0.866025 0.5 -0.866025 0.5 379.588 330)" fill="#BDCBFD"/>
<rect width="18" height="18" transform="matrix(0.866025 0.5 0 1 364 339)" fill="#93AAFC"/>
<rect width="18" height="18" transform="matrix(0.866025 -0.5 0 1 379.588 348)" fill="#6580E1"/>
<rect width="18" height="18" transform="matrix(0.866025 0.5 -0.866025 0.5 410.588 402)" fill="#BDCBFD"/>
<rect width="18" height="18" transform="matrix(0.866025 0.5 0 1 395 411)" fill="#93AAFC"/>
<rect width="18" height="18" transform="matrix(0.866025 -0.5 0 1 410.588 420)" fill="#6580E1"/>
<rect width="18" height="18" transform="matrix(0.866025 0.5 -0.866025 0.5 395.588 214)" fill="#BDCBFD"/>
<rect width="18" height="18" transform="matrix(0.866025 0.5 0 1 380 223)" fill="#93AAFC"/>
<rect width="18" height="18" transform="matrix(0.866025 -0.5 0 1 395.588 232)" fill="#6580E1"/>
<rect width="18" height="18" transform="matrix(0.866025 0.5 -0.866025 0.5 457.588 214)" fill="#BDCBFD"/>
<rect width="18" height="18" transform="matrix(0.866025 0.5 0 1 442 223)" fill="#93AAFC"/>
<rect width="18" height="18" transform="matrix(0.866025 -0.5 0 1 457.588 232)" fill="#6580E1"/>
<rect width="18" height="18" transform="matrix(0.866025 0.5 -0.866025 0.5 457.588 250)" fill="#BDCBFD"/>
<rect width="18" height="18" transform="matrix(0.866025 0.5 0 1 442 259)" fill="#93AAFC"/>
<rect width="18" height="18" transform="matrix(0.866025 -0.5 0 1 457.588 268)" fill="#6580E1"/>
<rect width="18" height="18" transform="matrix(0.866025 0.5 -0.866025 0.5 488.588 196)" fill="#BDCBFD"/>
<rect width="18" height="18" transform="matrix(0.866025 0.5 0 1 473 205)" fill="#93AAFC"/>
<rect width="18" height="18" transform="matrix(0.866025 -0.5 0 1 488.588 214)" fill="#6580E1"/>
<rect width="18" height="18" transform="matrix(0.866025 0.5 -0.866025 0.5 488.588 232)" fill="#BDCBFD"/>
<rect width="18" height="18" transform="matrix(0.866025 0.5 0 1 473 241)" fill="#93AAFC"/>
<rect width="18" height="18" transform="matrix(0.866025 -0.5 0 1 488.588 250)" fill="#6580E1"/>
<rect width="18" height="18" transform="matrix(0.866025 0.5 -0.866025 0.5 519.588 214)" fill="#BDCBFD"/>
<rect width="18" height="18" transform="matrix(0.866025 0.5 0 1 504 223)" fill="#93AAFC"/>
<rect width="18" height="18" transform="matrix(0.866025 -0.5 0 1 519.588 232)" fill="#6580E1"/>
<rect width="18" height="18" transform="matrix(0.866025 0.5 -0.866025 0.5 549.588 232)" fill="#BDCBFD"/>
<rect width="18" height="18" transform="matrix(0.866025 0.5 0 1 534 241)" fill="#93AAFC"/>
<rect width="18" height="18" transform="matrix(0.866025 -0.5 0 1 549.588 250)" fill="#6580E1"/>
<rect width="18" height="18" transform="matrix(0.866025 0.5 -0.866025 0.5 519.588 250)" fill="#BDCBFD"/>
<rect width="18" height="18" transform="matrix(0.866025 0.5 0 1 504 259)" fill="#93AAFC"/>
<rect width="18" height="18" transform="matrix(0.866025 -0.5 0 1 519.588 268)" fill="#6580E1"/>
<rect width="18" height="18" transform="matrix(0.866025 0.5 -0.866025 0.5 488.588 268)" fill="#BDCBFD"/>
<rect width="18" height="18" transform="matrix(0.866025 0.5 0 1 473 277)" fill="#93AAFC"/>
<rect width="18" height="18" transform="matrix(0.866025 -0.5 0 1 488.588 286)" fill="#6580E1"/>
<rect width="18" height="18" transform="matrix(0.866025 0.5 -0.866025 0.5 395.588 178)" fill="#BDCBFD"/>
<rect width="18" height="18" transform="matrix(0.866025 0.5 0 1 380 187)" fill="#93AAFC"/>
<rect width="18" height="18" transform="matrix(0.866025 -0.5 0 1 395.588 196)" fill="#6580E1"/>
<rect width="18" height="18" transform="matrix(0.866025 0.5 -0.866025 0.5 395.588 142)" fill="#BDCBFD"/>
<rect width="18" height="18" transform="matrix(0.866025 0.5 0 1 380 151)" fill="#93AAFC"/>
<rect width="18" height="18" transform="matrix(0.866025 -0.5 0 1 395.588 160)" fill="#6580E1"/>
<rect width="18" height="18" transform="matrix(0.866025 0.5 -0.866025 0.5 457.588 142)" fill="#BDCBFD"/>
<rect width="18" height="18" transform="matrix(0.866025 0.5 0 1 442 151)" fill="#93AAFC"/>
<rect width="18" height="18" transform="matrix(0.866025 -0.5 0 1 457.588 160)" fill="#6580E1"/>
<rect width="18" height="18" transform="matrix(0.866025 0.5 -0.866025 0.5 426.588 106)" fill="#BDCBFD"/>
<rect width="18" height="18" transform="matrix(0.866025 0.5 0 1 411 115)" fill="#93AAFC"/>
<rect width="18" height="18" transform="matrix(0.866025 -0.5 0 1 426.588 124)" fill="#6580E1"/>
<rect width="18" height="18" transform="matrix(0.866025 0.5 -0.866025 0.5 426.588 70)" fill="#BDCBFD"/>
<rect width="18" height="18" transform="matrix(0.866025 0.5 0 1 411 79)" fill="#93AAFC"/>
<rect width="18" height="18" transform="matrix(0.866025 -0.5 0 1 426.588 88)" fill="#6580E1"/>
<rect width="18" height="18" transform="matrix(0.866025 0.5 -0.866025 0.5 302.588 142)" fill="#BDCBFD"/>
<rect width="18" height="18" transform="matrix(0.866025 0.5 0 1 287 151)" fill="#93AAFC"/>
<rect width="18" height="18" transform="matrix(0.866025 -0.5 0 1 302.588 160)" fill="#6580E1"/>
</svg>
