<svg width="851" height="510" viewBox="0 0 851 510" fill="none" xmlns="http://www.w3.org/2000/svg">
<rect width="339" height="84" rx="4" transform="matrix(0.866025 -0.5 0.866025 0.5 95.8372 206.5)" fill="#265DC7"/>
<rect width="76" height="14" rx="7" transform="matrix(0.866025 -0.5 0.866025 0.5 194.564 166.5)" fill="#4597F5"/>
<rect width="199" height="10" rx="5" transform="matrix(0.866025 -0.5 0.866025 0.5 213.617 177.5)" fill="#357EE8"/>
<rect width="81" height="10" rx="5" transform="matrix(0.866025 -0.5 0.866025 0.5 229.205 186.5)" fill="#357EE8"/>
<rect width="81" height="10" rx="5" transform="matrix(0.866025 -0.5 0.866025 0.5 308.013 141)" fill="#357EE8"/>
<rect width="85" height="84" rx="4" transform="matrix(0.866025 -0.5 0.866025 0.5 95.8372 206.5)" fill="#3884F1"/>
<rect width="339" height="84" rx="4" transform="matrix(0.866025 -0.5 0.866025 0.5 184.172 257.5)" fill="#265DC7"/>
<rect width="76" height="14" rx="7" transform="matrix(0.866025 -0.5 0.866025 0.5 282.899 217.5)" fill="#4597F5"/>
<rect width="199" height="10" rx="5" transform="matrix(0.866025 -0.5 0.866025 0.5 301.951 228.5)" fill="#357EE8"/>
<rect width="81" height="10" rx="5" transform="matrix(0.866025 -0.5 0.866025 0.5 317.54 237.5)" fill="#357EE8"/>
<rect width="81" height="10" rx="5" transform="matrix(0.866025 -0.5 0.866025 0.5 396.348 192)" fill="#357EE8"/>
<rect width="85" height="84" rx="4" transform="matrix(0.866025 -0.5 0.866025 0.5 184.172 257.5)" fill="#3884F1"/>
<rect width="339" height="84" rx="4" transform="matrix(0.866025 -0.5 0.866025 0.5 272.506 308.5)" fill="#265DC7"/>
<rect width="76" height="14" rx="7" transform="matrix(0.866025 -0.5 0.866025 0.5 371.233 268.5)" fill="#4597F5"/>
<rect width="199" height="10" rx="5" transform="matrix(0.866025 -0.5 0.866025 0.5 390.286 279.5)" fill="#357EE8"/>
<rect width="81" height="10" rx="5" transform="matrix(0.866025 -0.5 0.866025 0.5 405.874 288.5)" fill="#357EE8"/>
<rect width="81" height="10" rx="5" transform="matrix(0.866025 -0.5 0.866025 0.5 484.683 243)" fill="#357EE8"/>
<rect width="85" height="84" rx="4" transform="matrix(0.866025 -0.5 0.866025 0.5 272.506 308.5)" fill="#3884F1"/>
<rect width="339" height="84" rx="4" transform="matrix(0.866025 -0.5 0.866025 0.5 360.841 359.5)" fill="#265DC7"/>
<rect width="76" height="14" rx="7" transform="matrix(0.866025 -0.5 0.866025 0.5 459.568 319.5)" fill="#4597F5"/>
<rect width="199" height="10" rx="5" transform="matrix(0.866025 -0.5 0.866025 0.5 478.62 330.5)" fill="#357EE8"/>
<rect width="81" height="10" rx="5" transform="matrix(0.866025 -0.5 0.866025 0.5 494.209 339.5)" fill="#357EE8"/>
<rect width="81" height="10" rx="5" transform="matrix(0.866025 -0.5 0.866025 0.5 573.017 294)" fill="#357EE8"/>
<rect width="85" height="84" rx="4" transform="matrix(0.866025 -0.5 0.866025 0.5 360.841 359.5)" fill="#3884F1"/>
<rect width="389" height="431" rx="6" transform="matrix(0.866025 -0.5 0.866025 0.5 56 208.5)" stroke="#4394EA" stroke-width="6"/>
<rect width="116.121" height="34" rx="6" transform="matrix(0.866025 -0.5 0.866025 0.5 61 366.06)" fill="#40897D"/>
<path d="M91.2398 371.024L82.4221 365.933L85.7287 364.024C86.4061 363.633 87.0922 363.373 87.7868 363.244C88.4843 363.113 89.1631 363.102 89.8233 363.211C90.4835 363.317 91.0949 363.533 91.6574 363.858C92.2229 364.184 92.5932 364.537 92.7683 364.917C92.9434 365.293 92.9118 365.68 92.6736 366.08C92.4324 366.478 91.9732 366.872 91.2958 367.263L88.9407 368.623L87.6146 367.857L89.7544 366.622C90.1505 366.393 90.4203 366.174 90.5638 365.966C90.7045 365.755 90.7289 365.554 90.637 365.361C90.5452 365.166 90.3428 364.978 90.03 364.797C89.7171 364.617 89.3884 364.498 89.044 364.442C88.6967 364.384 88.3393 364.394 87.9719 364.474C87.6016 364.552 87.217 364.706 86.818 364.936L85.3542 365.782L92.8372 370.102L91.2398 371.024ZM91.7995 366.087L97.978 367.134L96.1955 368.163L90.0558 367.094L91.7995 366.087ZM102.019 364.95C101.356 365.333 100.645 365.584 99.8875 365.703C99.1297 365.819 98.3676 365.805 97.6012 365.661C96.832 365.515 96.1015 365.243 95.4097 364.843C94.7294 364.45 94.2616 364.031 94.0061 363.585C93.7506 363.136 93.7133 362.694 93.8942 362.258C94.0721 361.82 94.4768 361.419 95.1083 361.055C95.5159 360.82 95.9666 360.636 96.4603 360.503C96.954 360.367 97.4764 360.297 98.0275 360.294C98.5814 360.289 99.1498 360.362 99.7325 360.513C100.312 360.662 100.892 360.904 101.472 361.239L101.95 361.515L96.5291 364.644L95.4786 364.038L99.4052 361.771C99.1039 361.6 98.7738 361.484 98.415 361.423C98.0533 361.36 97.6916 361.355 97.33 361.408C96.9712 361.459 96.6425 361.571 96.344 361.743C96.0254 361.927 95.823 362.134 95.7369 362.362C95.6479 362.589 95.6609 362.814 95.7757 363.036C95.8905 363.255 96.0943 363.45 96.3871 363.623L97.3041 364.152C97.6888 364.374 98.0892 364.524 98.5054 364.602C98.9187 364.678 99.3249 364.686 99.7238 364.624C100.12 364.561 100.487 364.432 100.826 364.237C101.053 364.106 101.226 363.969 101.347 363.826C101.465 363.682 101.528 363.535 101.536 363.384C101.545 363.233 101.491 363.084 101.373 362.937L102.992 362.191C103.285 362.466 103.445 362.761 103.474 363.076C103.503 363.387 103.396 363.704 103.155 364.025C102.911 364.345 102.532 364.653 102.019 364.95ZM103.832 359.279L107.707 361.517L106.149 362.416L99.5355 358.598L101.025 357.738L102.149 358.387L102.226 358.342C102.008 358.041 101.957 357.731 102.071 357.413C102.189 357.093 102.495 356.79 102.989 356.505C103.445 356.242 103.94 356.069 104.474 355.986C105.011 355.901 105.557 355.912 106.114 356.018C106.674 356.122 107.217 356.328 107.742 356.634L111.953 359.066L110.394 359.965L106.424 357.674C105.982 357.418 105.522 357.285 105.042 357.273C104.566 357.26 104.127 357.369 103.725 357.601C103.452 357.759 103.27 357.934 103.178 358.126C103.086 358.315 103.092 358.509 103.195 358.708C103.301 358.905 103.514 359.095 103.832 359.279ZM116.107 356.801C115.588 357.101 114.989 357.292 114.312 357.375C113.635 357.458 112.923 357.422 112.176 357.266C111.43 357.11 110.694 356.823 109.968 356.403C109.233 355.979 108.734 355.551 108.469 355.121C108.205 354.686 108.151 354.275 108.306 353.888C108.458 353.498 108.788 353.157 109.296 352.864C109.684 352.64 110.068 352.494 110.45 352.426C110.829 352.356 111.183 352.332 111.513 352.354C111.841 352.374 112.125 352.407 112.366 352.453L112.431 352.416L109.132 350.512L110.695 349.61L119.513 354.701L117.98 355.585L116.938 354.984L116.844 355.039C116.924 355.178 116.979 355.344 117.007 355.536C117.033 355.726 116.984 355.93 116.861 356.147C116.737 356.364 116.486 356.582 116.107 356.801ZM115.264 355.812C115.594 355.621 115.786 355.407 115.84 355.17C115.892 354.932 115.818 354.685 115.617 354.43C115.416 354.174 115.101 353.923 114.674 353.676C114.246 353.429 113.814 353.25 113.378 353.137C112.944 353.023 112.524 352.982 112.116 353.015C111.712 353.047 111.341 353.159 111.005 353.353C110.658 353.554 110.459 353.773 110.407 354.012C110.355 354.251 110.43 354.496 110.631 354.748C110.832 355 111.137 355.244 111.548 355.481C111.961 355.72 112.389 355.899 112.831 356.018C113.273 356.134 113.704 356.179 114.123 356.152C114.542 356.122 114.922 356.009 115.264 355.812ZM124.231 352.126C123.568 352.509 122.857 352.76 122.1 352.879C121.342 352.995 120.58 352.981 119.813 352.837C119.044 352.691 118.314 352.418 117.622 352.019C116.942 351.626 116.474 351.207 116.218 350.761C115.963 350.312 115.926 349.87 116.106 349.434C116.284 348.996 116.689 348.595 117.321 348.231C117.728 347.995 118.179 347.811 118.672 347.679C119.166 347.543 119.689 347.473 120.24 347.47C120.794 347.465 121.362 347.538 121.945 347.689C122.524 347.838 123.104 348.08 123.684 348.415L124.162 348.69L118.741 351.82L117.691 351.214L121.617 348.947C121.316 348.776 120.986 348.66 120.627 348.599C120.266 348.536 119.904 348.531 119.542 348.584C119.183 348.635 118.855 348.747 118.556 348.919C118.238 349.103 118.035 349.309 117.949 349.538C117.86 349.765 117.873 349.99 117.988 350.212C118.103 350.431 118.306 350.626 118.599 350.798L119.516 351.328C119.901 351.55 120.301 351.7 120.718 351.778C121.131 351.854 121.537 351.862 121.936 351.8C122.332 351.737 122.7 351.608 123.038 351.412C123.265 351.282 123.439 351.145 123.559 351.002C123.677 350.858 123.74 350.711 123.749 350.56C123.757 350.409 123.703 350.26 123.585 350.112L125.204 349.367C125.497 349.642 125.657 349.937 125.686 350.252C125.715 350.563 125.609 350.88 125.368 351.201C125.124 351.521 124.745 351.829 124.231 352.126ZM128.361 349.592L121.748 345.774L123.259 344.902L124.361 345.538L124.43 345.498C124.169 345.208 124.081 344.919 124.167 344.631C124.253 344.339 124.486 344.084 124.865 343.865C124.951 343.815 125.051 343.762 125.166 343.706C125.281 343.646 125.382 343.6 125.468 343.567L126.901 344.394C126.812 344.419 126.688 344.468 126.527 344.541C126.366 344.611 126.22 344.684 126.088 344.76C125.803 344.924 125.61 345.107 125.506 345.309C125.403 345.508 125.394 345.707 125.481 345.906C125.567 346.105 125.75 346.285 126.032 346.448L129.92 348.692L128.361 349.592ZM135.953 345.358C135.29 345.741 134.579 345.992 133.821 346.111C133.064 346.227 132.302 346.213 131.535 346.069C130.766 345.923 130.035 345.651 129.344 345.251C128.663 344.859 128.196 344.439 127.94 343.994C127.685 343.544 127.647 343.102 127.828 342.666C128.006 342.229 128.411 341.828 129.042 341.463C129.45 341.228 129.901 341.044 130.394 340.911C130.888 340.775 131.41 340.706 131.961 340.702C132.515 340.697 133.084 340.77 133.666 340.921C134.246 341.07 134.826 341.312 135.406 341.647L135.884 341.923L130.463 345.053L129.413 344.446L133.339 342.179C133.038 342.008 132.708 341.892 132.349 341.831C131.987 341.768 131.626 341.763 131.264 341.816C130.905 341.867 130.577 341.979 130.278 342.152C129.959 342.336 129.757 342.542 129.671 342.771C129.582 342.998 129.595 343.222 129.71 343.444C129.824 343.663 130.028 343.859 130.321 344.031L131.238 344.56C131.623 344.782 132.023 344.932 132.439 345.01C132.853 345.086 133.259 345.094 133.658 345.033C134.054 344.97 134.421 344.84 134.76 344.645C134.987 344.514 135.16 344.377 135.281 344.235C135.399 344.091 135.462 343.943 135.47 343.792C135.479 343.641 135.425 343.492 135.307 343.345L136.926 342.599C137.219 342.874 137.379 343.169 137.408 343.484C137.437 343.796 137.33 344.112 137.089 344.434C136.845 344.753 136.466 345.062 135.953 345.358ZM142.653 341.475C142.134 341.775 141.535 341.966 140.858 342.049C140.18 342.132 139.468 342.095 138.722 341.94C137.976 341.784 137.24 341.496 136.513 341.077C135.779 340.653 135.279 340.225 135.015 339.794C134.751 339.36 134.697 338.949 134.852 338.561C135.004 338.172 135.334 337.831 135.842 337.537C136.229 337.314 136.614 337.168 136.996 337.1C137.375 337.03 137.729 337.006 138.059 337.028C138.386 337.048 138.671 337.081 138.912 337.127L138.976 337.09L135.678 335.186L137.241 334.283L146.059 339.374L144.526 340.259L143.484 339.658L143.389 339.712C143.47 339.852 143.524 340.017 143.553 340.21C143.579 340.4 143.53 340.604 143.407 340.821C143.283 341.038 143.032 341.256 142.653 341.475ZM141.809 340.485C142.139 340.295 142.332 340.081 142.386 339.844C142.438 339.606 142.363 339.359 142.162 339.103C141.961 338.848 141.647 338.597 141.219 338.35C140.792 338.103 140.36 337.923 139.923 337.811C139.49 337.696 139.07 337.656 138.662 337.689C138.257 337.72 137.887 337.833 137.551 338.027C137.204 338.228 137.004 338.447 136.953 338.686C136.901 338.924 136.976 339.17 137.177 339.422C137.377 339.673 137.683 339.918 138.094 340.155C138.507 340.394 138.935 340.572 139.377 340.692C139.819 340.808 140.249 340.853 140.668 340.826C141.087 340.796 141.468 340.683 141.809 340.485ZM148.775 337.916C148.513 338.067 148.198 338.143 147.827 338.144C147.457 338.146 147.141 338.07 146.88 337.916C146.619 337.768 146.49 337.588 146.493 337.374C146.495 337.16 146.628 336.978 146.889 336.827C147.141 336.681 147.453 336.607 147.823 336.606C148.196 336.602 148.513 336.675 148.775 336.822C148.947 336.925 149.06 337.043 149.115 337.178C149.172 337.31 149.172 337.443 149.115 337.575C149.057 337.705 148.944 337.818 148.775 337.916ZM144.056 335.191C143.794 335.342 143.479 335.418 143.108 335.42C142.735 335.42 142.42 335.344 142.161 335.191C141.9 335.044 141.771 334.863 141.774 334.649C141.774 334.434 141.904 334.251 142.166 334.1C142.418 333.954 142.731 333.881 143.104 333.881C143.477 333.878 143.794 333.95 144.056 334.098C144.225 334.199 144.337 334.316 144.392 334.451C144.449 334.583 144.449 334.716 144.392 334.848C144.337 334.979 144.225 335.094 144.056 335.191ZM154.226 334.659L153.073 333.993L153.133 330.493C153.13 330.153 153.111 329.86 153.077 329.615C153.042 329.37 152.966 329.157 152.849 328.976C152.731 328.796 152.55 328.635 152.306 328.494C152.028 328.333 151.726 328.232 151.402 328.191C151.075 328.148 150.746 328.158 150.416 328.223C150.086 328.288 149.78 328.401 149.499 328.564C149.209 328.731 149.015 328.912 148.918 329.108C148.817 329.302 148.816 329.497 148.913 329.692C149.014 329.886 149.215 330.07 149.516 330.244L147.996 331.122C147.437 330.798 147.078 330.444 146.92 330.058C146.762 329.671 146.794 329.284 147.015 328.894C147.239 328.503 147.642 328.139 148.224 327.803C148.816 327.462 149.446 327.225 150.115 327.095C150.783 326.964 151.434 326.938 152.065 327.017C152.699 327.095 153.263 327.277 153.757 327.562C154.087 327.752 154.348 327.976 154.541 328.233C154.733 328.49 154.864 328.822 154.933 329.23C155.004 329.636 155.03 330.163 155.01 330.811L155.036 332.581L155.096 332.615L158.937 330.398L160.271 331.169L154.226 334.659ZM165.184 328.526C164.475 328.936 163.687 329.183 162.82 329.27C161.953 329.352 161.043 329.276 160.091 329.041C159.138 328.802 158.18 328.405 157.219 327.85C156.26 327.293 155.578 326.742 155.174 326.197C154.769 325.649 154.641 325.126 154.79 324.629C154.943 324.13 155.372 323.677 156.078 323.269C156.784 322.861 157.569 322.613 158.433 322.526C159.297 322.438 160.202 322.512 161.15 322.747C162.1 322.981 163.054 323.374 164.013 323.928C164.977 324.484 165.665 325.039 166.075 325.591C166.486 326.139 166.616 326.664 166.467 327.164C166.321 327.663 165.893 328.117 165.184 328.526ZM163.836 327.748C164.387 327.43 164.551 327.022 164.327 326.525C164.103 326.025 163.462 325.469 162.403 324.857C161.702 324.453 161.041 324.155 160.418 323.965C159.795 323.774 159.229 323.686 158.721 323.701C158.21 323.715 157.773 323.827 157.408 324.037C156.86 324.354 156.699 324.761 156.926 325.26C157.15 325.757 157.786 326.31 158.833 326.918C159.534 327.326 160.195 327.626 160.818 327.82C161.444 328.013 162.012 328.102 162.523 328.089C163.031 328.074 163.469 327.96 163.836 327.748Z" fill="white"/>
<rect width="116.121" height="34" rx="6" transform="matrix(0.866025 -0.5 0.866025 0.5 107.765 393.06)" fill="#1E2C40"/>
<path d="M139.47 389.698L138.131 388.925L145.166 384.863L146.505 385.636L143.78 387.209L151.258 391.527L149.674 392.442L142.195 388.124L139.47 389.698ZM157.326 388.173C156.68 388.546 155.978 388.787 155.22 388.897C154.463 389.006 153.698 388.989 152.926 388.844C152.156 388.699 151.43 388.428 150.747 388.034C150.064 387.64 149.595 387.219 149.339 386.774C149.087 386.326 149.055 385.884 149.244 385.446C149.434 385.009 149.851 384.604 150.497 384.231C151.143 383.858 151.845 383.617 152.603 383.507C153.36 383.398 154.125 383.417 154.898 383.565C155.673 383.71 156.402 383.98 157.085 384.375C157.768 384.769 158.234 385.189 158.484 385.635C158.737 386.079 158.768 386.52 158.579 386.958C158.389 387.395 157.972 387.8 157.326 388.173ZM156.086 387.447C156.436 387.245 156.633 387.021 156.676 386.774C156.716 386.525 156.63 386.273 156.417 386.018C156.208 385.761 155.902 385.517 155.5 385.285C155.096 385.051 154.671 384.874 154.226 384.753C153.781 384.628 153.343 384.578 152.913 384.601C152.482 384.624 152.092 384.737 151.742 384.939C151.383 385.146 151.182 385.375 151.139 385.625C151.099 385.874 151.185 386.127 151.397 386.386C151.61 386.641 151.918 386.886 152.323 387.119C152.725 387.351 153.147 387.529 153.589 387.651C154.034 387.772 154.471 387.821 154.902 387.798C155.332 387.771 155.727 387.654 156.086 387.447ZM158.377 379.781L159.583 380.477L155.781 382.671L154.576 381.975L158.377 379.781ZM153.93 380.519L155.488 379.619L161.697 383.203C161.907 383.324 162.099 383.399 162.274 383.427C162.449 383.452 162.61 383.445 162.756 383.407C162.903 383.369 163.04 383.313 163.17 383.238C163.267 383.182 163.349 383.126 163.415 383.072C163.484 383.015 163.534 382.971 163.566 382.94L165.047 383.492C164.992 383.556 164.905 383.643 164.784 383.753C164.666 383.861 164.5 383.98 164.285 384.111C163.906 384.343 163.495 384.512 163.053 384.618C162.608 384.722 162.156 384.748 161.697 384.695C161.241 384.64 160.807 384.493 160.397 384.252L153.93 380.519ZM168.331 381.824C167.912 382.066 167.46 382.241 166.975 382.349C166.489 382.453 166.001 382.477 165.511 382.419C165.023 382.359 164.562 382.204 164.129 381.954C163.755 381.738 163.516 381.52 163.41 381.3C163.303 381.08 163.296 380.858 163.388 380.636C163.48 380.414 163.638 380.195 163.862 379.98C164.086 379.761 164.341 379.549 164.628 379.344C164.975 379.097 165.254 378.895 165.463 378.737C165.67 378.578 165.793 378.447 165.834 378.344C165.874 378.238 165.819 378.142 165.67 378.056L165.644 378.041C165.32 377.854 164.972 377.764 164.602 377.773C164.232 377.781 163.866 377.889 163.504 378.098C163.123 378.319 162.903 378.542 162.846 378.767C162.791 378.991 162.838 379.19 162.988 379.366L161.326 380.087C161.039 379.789 160.892 379.485 160.887 379.177C160.878 378.867 160.997 378.563 161.244 378.265C161.488 377.965 161.841 377.681 162.303 377.415C162.622 377.231 162.976 377.069 163.366 376.93C163.757 376.791 164.169 376.695 164.602 376.644C165.033 376.591 165.473 376.603 165.924 376.681C166.377 376.758 166.824 376.922 167.263 377.176L171.689 379.731L170.191 380.596L169.282 380.072L169.231 380.102C169.32 380.263 169.358 380.439 169.347 380.631C169.335 380.82 169.249 381.017 169.089 381.223C168.928 381.425 168.675 381.626 168.331 381.824ZM167.59 380.93C167.903 380.749 168.113 380.557 168.219 380.353C168.322 380.147 168.332 379.949 168.249 379.759C168.169 379.567 168.006 379.4 167.762 379.259L166.983 378.809C166.975 378.861 166.929 378.93 166.845 379.018C166.765 379.104 166.666 379.196 166.548 379.294C166.431 379.392 166.311 379.487 166.191 379.58C166.07 379.673 165.966 379.753 165.877 379.821C165.676 379.973 165.519 380.123 165.407 380.271C165.295 380.418 165.251 380.56 165.274 380.696C165.294 380.83 165.404 380.955 165.605 381.071C165.892 381.237 166.214 381.302 166.57 381.265C166.926 381.229 167.266 381.117 167.59 380.93ZM165.997 372.836L174.815 377.927L173.256 378.827L164.439 373.736L165.997 372.836ZM177.472 376.502C177.211 376.653 176.896 376.729 176.525 376.73C176.155 376.732 175.839 376.656 175.578 376.502C175.317 376.354 175.188 376.174 175.191 375.96C175.193 375.746 175.325 375.564 175.587 375.413C175.839 375.267 176.151 375.193 176.521 375.192C176.894 375.188 177.211 375.26 177.472 375.408C177.645 375.511 177.758 375.629 177.813 375.763C177.87 375.896 177.87 376.029 177.813 376.161C177.755 376.29 177.642 376.404 177.472 376.502ZM172.754 373.777C172.492 373.928 172.177 374.004 171.806 374.006C171.433 374.006 171.118 373.93 170.859 373.777C170.598 373.63 170.469 373.449 170.472 373.235C170.472 373.02 170.602 372.837 170.863 372.686C171.116 372.54 171.429 372.467 171.802 372.467C172.175 372.464 172.492 372.536 172.754 372.684C172.923 372.785 173.035 372.902 173.089 373.037C173.147 373.169 173.147 373.302 173.089 373.434C173.035 373.565 172.923 373.68 172.754 373.777ZM177.693 366.083L186.511 371.174L184.913 372.096L177.65 367.903L177.598 367.933L176.854 369.884L175.39 369.039L176.173 366.961L177.693 366.083ZM192.177 368.097C191.468 368.506 190.68 368.754 189.813 368.84C188.946 368.923 188.036 368.847 187.083 368.611C186.131 368.373 185.173 367.976 184.212 367.421C183.253 366.864 182.571 366.313 182.167 365.767C181.762 365.219 181.634 364.696 181.783 364.199C181.935 363.7 182.365 363.247 183.071 362.839C183.777 362.432 184.562 362.184 185.426 362.096C186.29 362.008 187.195 362.082 188.143 362.317C189.093 362.551 190.047 362.944 191.006 363.498C191.97 364.055 192.658 364.609 193.068 365.161C193.479 365.709 193.609 366.234 193.46 366.734C193.314 367.233 192.886 367.687 192.177 368.097ZM190.829 367.319C191.38 367 191.544 366.593 191.32 366.096C191.096 365.595 190.455 365.039 189.396 364.428C188.695 364.023 188.034 363.726 187.411 363.535C186.788 363.345 186.222 363.257 185.714 363.272C185.203 363.285 184.766 363.397 184.401 363.607C183.853 363.924 183.692 364.331 183.919 364.83C184.143 365.327 184.779 365.88 185.826 366.488C186.527 366.896 187.188 367.197 187.811 367.391C188.437 367.583 189.005 367.672 189.516 367.659C190.024 367.644 190.462 367.531 190.829 367.319ZM200.264 363.428C199.555 363.837 198.767 364.085 197.9 364.171C197.033 364.254 196.123 364.178 195.17 363.942C194.217 363.704 193.26 363.307 192.299 362.752C191.34 362.195 190.658 361.644 190.253 361.099C189.849 360.55 189.721 360.027 189.87 359.53C190.022 359.031 190.451 358.578 191.158 358.17C191.864 357.763 192.649 357.515 193.513 357.427C194.377 357.339 195.282 357.413 196.229 357.648C197.18 357.882 198.134 358.275 199.093 358.829C200.057 359.386 200.745 359.94 201.155 360.492C201.565 361.041 201.696 361.565 201.547 362.065C201.4 362.564 200.973 363.018 200.264 363.428ZM198.916 362.65C199.467 362.331 199.631 361.924 199.407 361.427C199.183 360.926 198.542 360.37 197.482 359.759C196.782 359.354 196.12 359.057 195.498 358.866C194.875 358.676 194.309 358.588 193.801 358.603C193.29 358.616 192.853 358.728 192.488 358.938C191.94 359.255 191.779 359.663 192.006 360.161C192.23 360.659 192.865 361.211 193.913 361.819C194.613 362.227 195.275 362.528 195.898 362.722C196.524 362.914 197.092 363.003 197.603 362.99C198.111 362.975 198.549 362.862 198.916 362.65ZM208.351 358.759C207.642 359.168 206.854 359.416 205.987 359.502C205.12 359.585 204.21 359.509 203.257 359.273C202.304 359.035 201.347 358.638 200.385 358.083C199.427 357.526 198.745 356.975 198.34 356.43C197.936 355.881 197.808 355.358 197.957 354.861C198.109 354.362 198.538 353.909 199.244 353.501C199.951 353.094 200.736 352.846 201.6 352.758C202.464 352.67 203.369 352.744 204.316 352.979C205.266 353.213 206.221 353.607 207.18 354.16C208.144 354.717 208.831 355.271 209.242 355.823C209.652 356.372 209.783 356.896 209.634 357.397C209.487 357.895 209.06 358.349 208.351 358.759ZM207.003 357.981C207.554 357.663 207.718 357.255 207.494 356.758C207.27 356.257 206.628 355.701 205.569 355.09C204.869 354.685 204.207 354.388 203.584 354.197C202.962 354.007 202.396 353.919 201.888 353.934C201.377 353.947 200.939 354.059 200.575 354.269C200.027 354.586 199.866 354.994 200.093 355.492C200.316 355.99 200.952 356.542 202 357.15C202.7 357.558 203.362 357.859 203.985 358.053C204.611 358.245 205.179 358.335 205.69 358.321C206.198 358.306 206.636 358.193 207.003 357.981Z" fill="#7C91AC"/>
<rect width="116.121" height="34" rx="6" transform="matrix(0.866025 -0.5 0.866025 0.5 154.531 420.06)" fill="#40897D"/>
<path d="M205.377 414.281L202.389 416.007L193.572 410.916L196.62 409.156C197.496 408.65 198.424 408.318 199.406 408.159C200.387 407.996 201.376 408.007 202.372 408.191C203.368 408.375 204.324 408.731 205.24 409.26C206.158 409.79 206.777 410.345 207.095 410.923C207.417 411.5 207.434 412.075 207.147 412.648C206.863 413.22 206.273 413.764 205.377 414.281ZM202.605 414.286L203.918 413.528C204.532 413.174 204.933 412.813 205.119 412.447C205.303 412.079 205.274 411.706 205.033 411.328C204.789 410.949 204.33 410.564 203.655 410.175C202.981 409.785 202.318 409.522 201.666 409.384C201.012 409.245 200.372 409.229 199.746 409.335C199.12 409.437 198.509 409.661 197.912 410.006L196.551 410.791L202.605 414.286ZM214.12 409.383C213.474 409.756 212.772 409.997 212.014 410.107C211.257 410.216 210.492 410.198 209.72 410.054C208.95 409.908 208.224 409.638 207.541 409.244C206.858 408.85 206.389 408.429 206.133 407.984C205.881 407.536 205.849 407.094 206.038 406.656C206.228 406.219 206.645 405.814 207.291 405.441C207.937 405.068 208.639 404.827 209.397 404.717C210.154 404.608 210.919 404.627 211.692 404.774C212.467 404.92 213.196 405.19 213.879 405.585C214.562 405.979 215.028 406.399 215.278 406.845C215.531 407.289 215.562 407.73 215.373 408.168C215.183 408.605 214.766 409.01 214.12 409.383ZM212.88 408.657C213.23 408.455 213.427 408.231 213.47 407.984C213.51 407.735 213.424 407.483 213.211 407.228C213.002 406.971 212.696 406.727 212.294 406.495C211.89 406.261 211.465 406.084 211.02 405.963C210.575 405.838 210.137 405.788 209.707 405.811C209.276 405.834 208.886 405.947 208.536 406.149C208.177 406.356 207.976 406.585 207.933 406.835C207.893 407.084 207.979 407.337 208.191 407.596C208.404 407.851 208.712 408.095 209.117 408.329C209.519 408.561 209.941 408.738 210.383 408.861C210.828 408.982 211.265 409.031 211.696 409.008C212.126 408.981 212.521 408.864 212.88 408.657ZM218.482 406.715L211.869 402.897L213.359 402.037L214.483 402.686L214.56 402.641C214.319 402.343 214.252 402.04 214.358 401.734C214.461 401.425 214.734 401.144 215.176 400.889C215.624 400.63 216.11 400.475 216.635 400.424C217.161 400.369 217.673 400.413 218.172 400.555L218.241 400.516C218.02 400.219 217.974 399.907 218.104 399.581C218.233 399.251 218.537 398.948 219.016 398.671C219.625 398.32 220.314 398.144 221.083 398.144C221.852 398.144 222.606 398.357 223.343 398.783L227.782 401.346L226.219 402.248L222.022 399.825C221.611 399.588 221.202 399.477 220.795 399.494C220.384 399.509 220.021 399.608 219.705 399.79C219.329 400.007 219.153 400.245 219.176 400.503C219.199 400.758 219.397 400.994 219.77 401.209L223.894 403.591L222.366 404.473L218.104 402.012C217.762 401.815 217.386 401.717 216.976 401.719C216.568 401.719 216.199 401.814 215.869 402.005C215.645 402.134 215.499 402.285 215.43 402.457C215.358 402.628 215.371 402.804 215.469 402.987C215.563 403.167 215.747 403.336 216.02 403.494L220.041 405.815L218.482 406.715ZM230.418 399.933C230.157 400.084 229.841 400.16 229.471 400.162C229.101 400.164 228.785 400.088 228.524 399.933C228.263 399.786 228.134 399.605 228.136 399.391C228.139 399.178 228.271 398.995 228.533 398.845C228.785 398.699 229.097 398.625 229.467 398.623C229.84 398.62 230.157 398.692 230.418 398.84C230.591 398.942 230.704 399.061 230.759 399.195C230.816 399.328 230.816 399.46 230.759 399.593C230.701 399.722 230.588 399.836 230.418 399.933ZM225.7 397.209C225.438 397.36 225.123 397.436 224.752 397.438C224.379 397.438 224.063 397.361 223.805 397.209C223.544 397.061 223.415 396.881 223.418 396.667C223.418 396.452 223.548 396.268 223.809 396.118C224.062 395.972 224.375 395.899 224.748 395.899C225.121 395.896 225.438 395.968 225.7 396.115C225.869 396.216 225.981 396.334 226.035 396.468C226.093 396.601 226.093 396.733 226.035 396.866C225.981 396.997 225.869 397.111 225.7 397.209ZM235.87 396.676L234.716 396.01L234.777 392.51C234.774 392.17 234.755 391.878 234.721 391.633C234.686 391.387 234.61 391.174 234.493 390.994C234.375 390.813 234.194 390.652 233.95 390.512C233.672 390.351 233.37 390.25 233.046 390.208C232.719 390.165 232.39 390.176 232.06 390.241C231.73 390.305 231.424 390.419 231.143 390.581C230.853 390.749 230.659 390.93 230.562 391.126C230.461 391.319 230.46 391.514 230.557 391.71C230.658 391.904 230.859 392.088 231.16 392.262L229.64 393.139C229.08 392.816 228.722 392.461 228.564 392.075C228.406 391.689 228.438 391.301 228.659 390.912C228.882 390.521 229.286 390.157 229.868 389.821C230.46 389.479 231.09 389.243 231.759 389.112C232.427 388.981 233.077 388.955 233.709 389.035C234.343 389.113 234.907 389.294 235.401 389.579C235.731 389.77 235.992 389.994 236.185 390.251C236.377 390.507 236.508 390.84 236.576 391.247C236.648 391.653 236.674 392.18 236.654 392.828L236.68 394.598L236.74 394.633L240.581 392.416L241.915 393.186L235.87 396.676ZM246.828 390.544C246.119 390.953 245.331 391.201 244.464 391.287C243.597 391.37 242.687 391.294 241.734 391.058C240.781 390.82 239.824 390.423 238.863 389.868C237.904 389.311 237.222 388.76 236.818 388.215C236.413 387.666 236.285 387.143 236.434 386.646C236.586 386.147 237.016 385.694 237.722 385.286C238.428 384.879 239.213 384.631 240.077 384.543C240.941 384.455 241.846 384.529 242.794 384.764C243.744 384.998 244.698 385.392 245.657 385.945C246.621 386.502 247.309 387.056 247.719 387.608C248.13 388.157 248.26 388.681 248.111 389.182C247.965 389.681 247.537 390.135 246.828 390.544ZM245.48 389.766C246.031 389.448 246.195 389.04 245.971 388.543C245.747 388.042 245.106 387.486 244.046 386.875C243.346 386.471 242.685 386.173 242.062 385.982C241.439 385.792 240.873 385.704 240.365 385.719C239.854 385.732 239.417 385.844 239.052 386.055C238.504 386.371 238.343 386.779 238.57 387.278C238.794 387.775 239.43 388.327 240.477 388.936C241.178 389.343 241.839 389.644 242.462 389.838C243.088 390.03 243.656 390.12 244.167 390.106C244.675 390.091 245.113 389.978 245.48 389.766Z" fill="white"/>
</svg>
