<svg width="851" height="510" viewBox="0 0 851 510" fill="none" xmlns="http://www.w3.org/2000/svg">
<g id="@tanstack/react-virtual">
<g id="Group 20">
<g id="Group 19">
<g id="Group 17">
<rect id="Rectangle 9" width="174.36" height="133" rx="4" transform="matrix(0.866025 0.5 0 1 390 23)" fill="#335EC1"/>
<path id="Rectangle 10" d="M390 27C390 24.7909 391.551 23.8954 393.464 25L537.536 108.18C539.449 109.284 541 111.971 541 114.18V130.18L390 43V27Z" fill="black"/>
<g id="Group 12">
<rect id="Rectangle 12" width="97.1118" height="12" rx="6" transform="matrix(0.866025 0.5 0 1 402.424 87.1731)" fill="#5294F2"/>
<rect id="Rectangle 13" width="97.1118" height="12" rx="6" transform="matrix(0.866025 0.5 0 1 402.424 135.173)" fill="#5294F2"/>
<rect id="Rectangle 11" width="145.668" height="12" rx="6" transform="matrix(0.866025 0.5 0 1 402.424 67.1731)" fill="#5294F2"/>
<rect id="Rectangle 14" width="145.668" height="12" rx="6" transform="matrix(0.866025 0.5 0 1 402.424 115.173)" fill="#5294F2"/>
</g>
</g>
<g id="Group 14">
<rect id="Rectangle 9_2" width="199" height="133" rx="4" transform="matrix(0.866025 -0.5 0 1 271 207.5)" fill="#335EC1"/>
<path id="Rectangle 10_2" d="M271 211.5C271 209.291 272.551 206.605 274.464 205.5L439.875 110C441.788 108.895 443.339 109.791 443.339 112V128L271 227.5V211.5Z" fill="black"/>
<g id="Group 12_2">
<rect id="Rectangle 12_2" width="110.835" height="12" rx="6" transform="matrix(0.866025 -0.5 0 1 285.18 256.313)" fill="#5294F2"/>
<rect id="Rectangle 13_2" width="110.835" height="12" rx="6" transform="matrix(0.866025 -0.5 0 1 285.18 304.313)" fill="#5294F2"/>
<rect id="Rectangle 11_2" width="166.253" height="12" rx="6" transform="matrix(0.866025 -0.5 0 1 285.18 236.313)" fill="#5294F2"/>
<rect id="Rectangle 14_2" width="166.253" height="12" rx="6" transform="matrix(0.866025 -0.5 0 1 285.18 284.313)" fill="#5294F2"/>
</g>
</g>
<g id="Group 16">
<rect id="Rectangle 9_3" width="183.597" height="133" rx="4" transform="matrix(0.866025 0.5 0 1 231 201)" fill="#335EC1"/>
<path id="Rectangle 10_3" d="M231 205C231 202.791 232.551 201.895 234.464 203L386.536 290.799C388.449 291.903 390 294.59 390 296.799V312.799L231 221V205Z" fill="black"/>
<g id="Group 12_3">
<rect id="Rectangle 12_3" width="102.257" height="12" rx="6" transform="matrix(0.866025 0.5 0 1 244.082 265.553)" fill="#5294F2"/>
<rect id="Rectangle 13_3" width="102.257" height="12" rx="6" transform="matrix(0.866025 0.5 0 1 244.082 313.553)" fill="#5294F2"/>
<rect id="Rectangle 11_3" width="153.385" height="12" rx="6" transform="matrix(0.866025 0.5 0 1 244.082 245.553)" fill="#5294F2"/>
<rect id="Rectangle 14_3" width="153.385" height="12" rx="6" transform="matrix(0.866025 0.5 0 1 244.082 293.553)" fill="#5294F2"/>
</g>
</g>
<g id="Group 18">
<rect id="Rectangle 9_4" width="174.36" height="133" rx="4" transform="matrix(0.866025 0.5 0 1 587 154)" fill="#335EC1"/>
<path id="Rectangle 10_4" d="M587 158C587 155.791 588.551 154.895 590.464 156L734.536 239.18C736.449 240.284 738 242.971 738 245.18V261.18L587 174V158Z" fill="black"/>
<g id="Group 12_4">
<rect id="Rectangle 12_4" width="97.1118" height="12" rx="6" transform="matrix(0.866025 0.5 0 1 599.424 218.173)" fill="#5294F2"/>
<rect id="Rectangle 13_4" width="97.1118" height="12" rx="6" transform="matrix(0.866025 0.5 0 1 599.424 266.173)" fill="#5294F2"/>
<rect id="Rectangle 11_4" width="145.668" height="12" rx="6" transform="matrix(0.866025 0.5 0 1 599.424 198.173)" fill="#5294F2"/>
<rect id="Rectangle 14_4" width="145.668" height="12" rx="6" transform="matrix(0.866025 0.5 0 1 599.424 246.173)" fill="#5294F2"/>
</g>
</g>
<g id="Group 13">
<rect id="Rectangle 9_5" width="199" height="133" rx="4" transform="matrix(0.866025 -0.5 0 1 113 172)" fill="#335EC1"/>
<path id="Rectangle 10_5" d="M113 176C113 173.791 114.551 171.105 116.464 170L281.875 74.5C283.788 73.3954 285.339 74.2909 285.339 76.5V92.5L113 192V176Z" fill="black"/>
<g id="Group 12_5">
<rect id="Rectangle 12_5" width="110.835" height="12" rx="6" transform="matrix(0.866025 -0.5 0 1 127.18 220.813)" fill="#5294F2"/>
<rect id="Rectangle 13_5" width="110.835" height="12" rx="6" transform="matrix(0.866025 -0.5 0 1 127.18 268.813)" fill="#5294F2"/>
<rect id="Rectangle 11_5" width="166.253" height="12" rx="6" transform="matrix(0.866025 -0.5 0 1 127.18 200.813)" fill="#5294F2"/>
<rect id="Rectangle 14_5" width="166.253" height="12" rx="6" transform="matrix(0.866025 -0.5 0 1 127.18 248.813)" fill="#5294F2"/>
</g>
</g>
<g id="Group 15">
<rect id="Rectangle 9_6" width="188.608" height="133" rx="4" transform="matrix(0.866025 -0.5 0 1 460 354.304)" fill="#335EC1"/>
<path id="Rectangle 10_6" d="M460 358.304C460 356.095 461.551 353.408 463.464 352.304L619.875 262C621.788 260.895 623.339 261.791 623.339 264V280L460 374.304V358.304Z" fill="black"/>
<g id="Group 12_6">
<rect id="Rectangle 12_6" width="105.047" height="12" rx="6" transform="matrix(0.866025 -0.5 0 1 473.439 403.545)" fill="#5294F2"/>
<rect id="Rectangle 13_6" width="105.047" height="12" rx="6" transform="matrix(0.866025 -0.5 0 1 473.439 451.545)" fill="#5294F2"/>
<rect id="Rectangle 11_6" width="157.571" height="12" rx="6" transform="matrix(0.866025 -0.5 0 1 473.439 383.545)" fill="#5294F2"/>
<rect id="Rectangle 14_6" width="157.571" height="12" rx="6" transform="matrix(0.866025 -0.5 0 1 473.439 431.545)" fill="#5294F2"/>
</g>
</g>
</g>
</g>
<g id="Group 20_2">
<g id="Group 10">
<g id="Group 7">
<rect id="Rectangle 8" width="116.121" height="34" rx="6" transform="matrix(0.866025 -0.5 0.866025 0.5 124 418.06)" fill="#40897D"/>
<path id="Rendered: 20" d="M154.24 423.024L145.422 417.933L148.729 416.024C149.406 415.633 150.092 415.373 150.787 415.244C151.484 415.113 152.163 415.102 152.823 415.211C153.483 415.317 154.095 415.533 154.657 415.858C155.223 416.184 155.593 416.537 155.768 416.917C155.943 417.293 155.912 417.68 155.674 418.08C155.432 418.478 154.973 418.872 154.296 419.263L151.941 420.623L150.615 419.857L152.754 418.622C153.151 418.393 153.42 418.174 153.564 417.966C153.704 417.755 153.729 417.554 153.637 417.361C153.545 417.166 153.343 416.978 153.03 416.797C152.717 416.617 152.388 416.498 152.044 416.442C151.697 416.384 151.339 416.394 150.972 416.474C150.602 416.552 150.217 416.706 149.818 416.936L148.354 417.782L155.837 422.102L154.24 423.024ZM154.8 418.087L160.978 419.134L159.195 420.163L153.056 419.094L154.8 418.087ZM165.019 416.95C164.356 417.333 163.645 417.584 162.887 417.703C162.13 417.819 161.368 417.805 160.601 417.661C159.832 417.515 159.101 417.243 158.41 416.843C157.729 416.45 157.262 416.031 157.006 415.585C156.751 415.136 156.713 414.694 156.894 414.258C157.072 413.82 157.477 413.419 158.108 413.055C158.516 412.82 158.967 412.636 159.46 412.503C159.954 412.367 160.476 412.297 161.027 412.294C161.581 412.289 162.15 412.362 162.732 412.513C163.312 412.662 163.892 412.904 164.472 413.239L164.95 413.515L159.529 416.644L158.479 416.038L162.405 413.771C162.104 413.6 161.774 413.484 161.415 413.423C161.053 413.36 160.692 413.355 160.33 413.408C159.971 413.459 159.643 413.571 159.344 413.743C159.025 413.927 158.823 414.134 158.737 414.362C158.648 414.589 158.661 414.814 158.776 415.036C158.89 415.255 159.094 415.45 159.387 415.623L160.304 416.152C160.689 416.374 161.089 416.524 161.505 416.602C161.919 416.678 162.325 416.686 162.724 416.624C163.12 416.561 163.487 416.432 163.826 416.237C164.053 416.106 164.226 415.969 164.347 415.826C164.465 415.682 164.528 415.535 164.536 415.384C164.545 415.233 164.491 415.084 164.373 414.937L165.992 414.191C166.285 414.466 166.445 414.761 166.474 415.076C166.503 415.387 166.396 415.704 166.155 416.025C165.911 416.345 165.532 416.653 165.019 416.95ZM166.832 411.279L170.707 413.517L169.149 414.416L162.535 410.598L164.025 409.738L165.149 410.387L165.226 410.342C165.008 410.041 164.957 409.731 165.071 409.413C165.189 409.093 165.495 408.79 165.989 408.505C166.445 408.242 166.94 408.069 167.474 407.986C168.011 407.901 168.557 407.912 169.114 408.018C169.674 408.122 170.217 408.328 170.742 408.634L174.953 411.066L173.394 411.965L169.424 409.674C168.982 409.418 168.522 409.285 168.042 409.273C167.566 409.26 167.127 409.369 166.725 409.601C166.452 409.759 166.27 409.934 166.178 410.126C166.086 410.315 166.092 410.509 166.195 410.708C166.301 410.905 166.514 411.095 166.832 411.279ZM179.107 408.801C178.588 409.101 177.989 409.292 177.312 409.375C176.635 409.458 175.923 409.422 175.176 409.266C174.43 409.11 173.694 408.823 172.968 408.403C172.233 407.979 171.734 407.551 171.469 407.121C171.205 406.686 171.151 406.275 171.306 405.888C171.458 405.498 171.788 405.157 172.296 404.864C172.684 404.64 173.068 404.494 173.45 404.426C173.829 404.356 174.183 404.332 174.513 404.354C174.841 404.374 175.125 404.407 175.366 404.453L175.431 404.416L172.132 402.512L173.695 401.61L182.513 406.701L180.98 407.585L179.938 406.984L179.844 407.039C179.924 407.178 179.979 407.344 180.007 407.536C180.033 407.726 179.984 407.93 179.861 408.147C179.737 408.364 179.486 408.582 179.107 408.801ZM178.264 407.812C178.594 407.621 178.786 407.407 178.84 407.17C178.892 406.932 178.818 406.685 178.617 406.43C178.416 406.174 178.101 405.923 177.674 405.676C177.246 405.429 176.814 405.25 176.378 405.137C175.944 405.023 175.524 404.982 175.116 405.015C174.712 405.047 174.341 405.159 174.005 405.353C173.658 405.554 173.459 405.773 173.407 406.012C173.355 406.251 173.43 406.496 173.631 406.748C173.832 407 174.137 407.244 174.548 407.481C174.961 407.72 175.389 407.899 175.831 408.018C176.273 408.134 176.704 408.179 177.123 408.152C177.542 408.122 177.922 408.009 178.264 407.812ZM187.231 404.126C186.568 404.509 185.857 404.76 185.1 404.879C184.342 404.995 183.58 404.981 182.813 404.837C182.044 404.691 181.314 404.418 180.622 404.019C179.942 403.626 179.474 403.207 179.218 402.761C178.963 402.312 178.926 401.87 179.106 401.434C179.284 400.996 179.689 400.595 180.321 400.231C180.728 399.995 181.179 399.811 181.672 399.679C182.166 399.543 182.689 399.473 183.24 399.47C183.794 399.465 184.362 399.538 184.945 399.689C185.524 399.838 186.104 400.08 186.684 400.415L187.162 400.69L181.741 403.82L180.691 403.214L184.617 400.947C184.316 400.776 183.986 400.66 183.627 400.599C183.266 400.536 182.904 400.531 182.542 400.584C182.183 400.635 181.855 400.747 181.556 400.919C181.238 401.103 181.035 401.309 180.949 401.538C180.86 401.765 180.873 401.99 180.988 402.212C181.103 402.431 181.306 402.626 181.599 402.798L182.516 403.328C182.901 403.55 183.301 403.7 183.718 403.778C184.131 403.854 184.537 403.862 184.936 403.8C185.332 403.737 185.7 403.608 186.038 403.412C186.265 403.282 186.439 403.145 186.559 403.002C186.677 402.858 186.74 402.711 186.749 402.56C186.757 402.409 186.703 402.26 186.585 402.112L188.204 401.367C188.497 401.642 188.657 401.937 188.686 402.252C188.715 402.563 188.609 402.88 188.368 403.201C188.124 403.521 187.745 403.829 187.231 404.126ZM191.361 401.592L184.748 397.774L186.259 396.902L187.361 397.538L187.43 397.498C187.169 397.208 187.081 396.919 187.167 396.631C187.253 396.339 187.486 396.084 187.865 395.865C187.951 395.815 188.051 395.762 188.166 395.706C188.281 395.646 188.382 395.6 188.468 395.567L189.901 396.394C189.812 396.419 189.688 396.468 189.527 396.541C189.366 396.611 189.22 396.684 189.088 396.76C188.803 396.924 188.61 397.107 188.506 397.309C188.403 397.508 188.394 397.707 188.481 397.906C188.567 398.105 188.75 398.285 189.032 398.448L192.92 400.692L191.361 401.592ZM198.953 397.358C198.29 397.741 197.579 397.992 196.821 398.111C196.064 398.227 195.302 398.213 194.535 398.069C193.766 397.923 193.035 397.651 192.344 397.251C191.663 396.859 191.196 396.439 190.94 395.994C190.685 395.544 190.647 395.102 190.828 394.666C191.006 394.229 191.411 393.828 192.042 393.463C192.45 393.228 192.901 393.044 193.394 392.911C193.888 392.775 194.41 392.706 194.961 392.702C195.515 392.697 196.084 392.77 196.666 392.921C197.246 393.07 197.826 393.312 198.406 393.647L198.884 393.923L193.463 397.053L192.413 396.446L196.339 394.179C196.038 394.008 195.708 393.892 195.349 393.831C194.987 393.768 194.626 393.763 194.264 393.816C193.905 393.867 193.577 393.979 193.278 394.152C192.959 394.336 192.757 394.542 192.671 394.771C192.582 394.998 192.595 395.222 192.71 395.444C192.824 395.663 193.028 395.859 193.321 396.031L194.238 396.56C194.623 396.782 195.023 396.932 195.439 397.01C195.853 397.086 196.259 397.094 196.658 397.033C197.054 396.97 197.421 396.84 197.76 396.645C197.987 396.514 198.16 396.377 198.281 396.235C198.399 396.091 198.462 395.943 198.47 395.792C198.479 395.641 198.425 395.492 198.307 395.345L199.926 394.599C200.219 394.874 200.379 395.169 200.408 395.484C200.437 395.796 200.33 396.112 200.089 396.434C199.845 396.753 199.466 397.062 198.953 397.358ZM205.653 393.475C205.134 393.775 204.535 393.966 203.858 394.049C203.18 394.132 202.468 394.095 201.722 393.94C200.976 393.784 200.24 393.496 199.513 393.077C198.779 392.653 198.279 392.225 198.015 391.794C197.751 391.36 197.697 390.949 197.852 390.561C198.004 390.172 198.334 389.831 198.842 389.537C199.229 389.314 199.614 389.168 199.996 389.1C200.375 389.03 200.729 389.006 201.059 389.028C201.386 389.048 201.671 389.081 201.912 389.127L201.976 389.09L198.678 387.186L200.241 386.283L209.059 391.374L207.526 392.259L206.484 391.658L206.389 391.712C206.47 391.852 206.524 392.017 206.553 392.21C206.579 392.4 206.53 392.604 206.407 392.821C206.283 393.038 206.032 393.256 205.653 393.475ZM204.809 392.485C205.139 392.295 205.332 392.081 205.386 391.844C205.438 391.606 205.363 391.359 205.162 391.103C204.961 390.848 204.647 390.597 204.219 390.35C203.792 390.103 203.36 389.923 202.923 389.811C202.49 389.696 202.07 389.656 201.662 389.689C201.257 389.72 200.887 389.833 200.551 390.027C200.204 390.228 200.004 390.447 199.953 390.686C199.901 390.924 199.976 391.17 200.177 391.422C200.377 391.673 200.683 391.918 201.094 392.155C201.507 392.394 201.935 392.572 202.377 392.692C202.819 392.808 203.249 392.853 203.668 392.826C204.087 392.796 204.468 392.683 204.809 392.485ZM211.775 389.916C211.513 390.067 211.198 390.143 210.827 390.144C210.457 390.146 210.141 390.07 209.88 389.916C209.619 389.768 209.49 389.588 209.493 389.374C209.495 389.16 209.628 388.978 209.889 388.827C210.141 388.681 210.453 388.607 210.823 388.606C211.196 388.602 211.513 388.675 211.775 388.822C211.947 388.925 212.06 389.043 212.115 389.178C212.172 389.31 212.172 389.443 212.115 389.575C212.057 389.705 211.944 389.818 211.775 389.916ZM207.056 387.191C206.794 387.342 206.479 387.418 206.108 387.42C205.735 387.42 205.42 387.344 205.161 387.191C204.9 387.044 204.771 386.863 204.774 386.649C204.774 386.434 204.904 386.251 205.166 386.1C205.418 385.954 205.731 385.881 206.104 385.881C206.477 385.878 206.794 385.95 207.056 386.098C207.225 386.199 207.337 386.316 207.392 386.451C207.449 386.583 207.449 386.716 207.392 386.848C207.337 386.979 207.225 387.094 207.056 387.191ZM217.226 386.659L216.073 385.993L216.133 382.493C216.13 382.153 216.111 381.86 216.077 381.615C216.042 381.37 215.966 381.157 215.849 380.976C215.731 380.796 215.55 380.635 215.306 380.494C215.028 380.333 214.726 380.232 214.402 380.191C214.075 380.148 213.746 380.158 213.416 380.223C213.086 380.288 212.78 380.401 212.499 380.564C212.209 380.731 212.015 380.912 211.918 381.108C211.817 381.302 211.816 381.497 211.913 381.692C212.014 381.886 212.215 382.07 212.516 382.244L210.996 383.122C210.437 382.798 210.078 382.444 209.92 382.058C209.762 381.671 209.794 381.284 210.015 380.894C210.239 380.503 210.642 380.139 211.224 379.803C211.816 379.462 212.446 379.225 213.115 379.095C213.783 378.964 214.434 378.938 215.065 379.017C215.699 379.095 216.263 379.277 216.757 379.562C217.087 379.752 217.348 379.976 217.541 380.233C217.733 380.49 217.864 380.822 217.933 381.23C218.004 381.636 218.03 382.163 218.01 382.811L218.036 384.581L218.096 384.615L221.937 382.398L223.271 383.169L217.226 386.659ZM228.184 380.526C227.475 380.936 226.687 381.183 225.82 381.27C224.953 381.352 224.043 381.276 223.091 381.041C222.138 380.802 221.18 380.405 220.219 379.85C219.26 379.293 218.578 378.742 218.174 378.197C217.769 377.649 217.641 377.126 217.79 376.629C217.943 376.13 218.372 375.677 219.078 375.269C219.784 374.861 220.569 374.613 221.433 374.526C222.297 374.438 223.202 374.512 224.15 374.747C225.1 374.981 226.054 375.374 227.013 375.928C227.977 376.484 228.665 377.039 229.075 377.591C229.486 378.139 229.616 378.664 229.467 379.164C229.321 379.663 228.893 380.117 228.184 380.526ZM226.836 379.748C227.387 379.43 227.551 379.022 227.327 378.525C227.103 378.025 226.462 377.469 225.403 376.857C224.702 376.453 224.041 376.155 223.418 375.965C222.795 375.774 222.229 375.686 221.721 375.701C221.21 375.715 220.773 375.827 220.408 376.037C219.86 376.354 219.699 376.761 219.926 377.26C220.15 377.757 220.786 378.31 221.833 378.918C222.534 379.326 223.195 379.626 223.818 379.82C224.444 380.013 225.012 380.102 225.523 380.089C226.031 380.074 226.469 379.96 226.836 379.748Z" fill="white"/>
</g>
<g id="Group 8">
<rect id="Rectangle 8_2" width="116.121" height="34" rx="6" transform="matrix(0.866025 -0.5 0.866025 0.5 170.765 445.06)" fill="#1E2C40"/>
<path id="Total: 1000" d="M202.47 441.698L201.131 440.925L208.166 436.863L209.505 437.636L206.78 439.209L214.258 443.527L212.674 444.442L205.195 440.124L202.47 441.698ZM220.326 440.173C219.68 440.546 218.978 440.787 218.22 440.897C217.463 441.006 216.698 440.989 215.926 440.844C215.156 440.699 214.43 440.428 213.747 440.034C213.064 439.64 212.595 439.219 212.339 438.774C212.087 438.326 212.055 437.884 212.244 437.446C212.434 437.009 212.851 436.604 213.497 436.231C214.143 435.858 214.845 435.617 215.603 435.507C216.36 435.398 217.125 435.417 217.898 435.565C218.673 435.71 219.402 435.98 220.085 436.375C220.768 436.769 221.234 437.189 221.484 437.635C221.737 438.079 221.768 438.52 221.579 438.958C221.389 439.395 220.972 439.8 220.326 440.173ZM219.086 439.447C219.436 439.245 219.633 439.021 219.676 438.774C219.716 438.525 219.63 438.273 219.417 438.018C219.208 437.761 218.902 437.517 218.5 437.285C218.096 437.051 217.671 436.874 217.226 436.753C216.781 436.628 216.343 436.578 215.913 436.601C215.482 436.624 215.092 436.737 214.742 436.939C214.383 437.146 214.182 437.375 214.139 437.625C214.099 437.874 214.185 438.127 214.397 438.386C214.61 438.641 214.918 438.886 215.323 439.119C215.725 439.351 216.147 439.529 216.589 439.651C217.034 439.772 217.471 439.821 217.902 439.798C218.332 439.771 218.727 439.654 219.086 439.447ZM221.377 431.781L222.583 432.477L218.781 434.671L217.576 433.975L221.377 431.781ZM216.93 432.519L218.488 431.619L224.697 435.203C224.907 435.324 225.099 435.399 225.274 435.427C225.449 435.452 225.61 435.445 225.756 435.407C225.903 435.369 226.04 435.313 226.17 435.238C226.267 435.182 226.349 435.126 226.415 435.072C226.484 435.015 226.534 434.971 226.566 434.94L228.047 435.492C227.992 435.556 227.905 435.643 227.784 435.753C227.666 435.861 227.5 435.98 227.285 436.111C226.906 436.343 226.495 436.512 226.053 436.618C225.608 436.722 225.156 436.748 224.697 436.695C224.241 436.64 223.807 436.493 223.397 436.252L216.93 432.519ZM231.331 433.824C230.912 434.066 230.46 434.241 229.975 434.349C229.489 434.453 229.001 434.477 228.511 434.419C228.023 434.359 227.562 434.204 227.129 433.954C226.755 433.738 226.516 433.52 226.41 433.3C226.303 433.08 226.296 432.858 226.388 432.636C226.48 432.414 226.638 432.195 226.862 431.98C227.086 431.761 227.341 431.549 227.628 431.344C227.975 431.097 228.254 430.895 228.463 430.737C228.67 430.578 228.793 430.447 228.834 430.344C228.874 430.238 228.819 430.142 228.67 430.056L228.644 430.041C228.32 429.854 227.972 429.764 227.602 429.773C227.232 429.781 226.866 429.889 226.504 430.098C226.123 430.319 225.903 430.542 225.846 430.767C225.791 430.991 225.838 431.19 225.988 431.366L224.326 432.087C224.039 431.789 223.892 431.485 223.887 431.177C223.878 430.867 223.997 430.563 224.244 430.265C224.488 429.965 224.841 429.681 225.303 429.415C225.622 429.231 225.976 429.069 226.366 428.93C226.757 428.791 227.169 428.695 227.602 428.644C228.033 428.591 228.473 428.603 228.924 428.681C229.377 428.758 229.824 428.922 230.263 429.176L234.689 431.731L233.191 432.596L232.282 432.072L232.231 432.102C232.32 432.263 232.358 432.439 232.347 432.631C232.335 432.82 232.249 433.017 232.089 433.223C231.928 433.425 231.675 433.626 231.331 433.824ZM230.59 432.93C230.903 432.749 231.113 432.557 231.219 432.353C231.322 432.147 231.332 431.949 231.249 431.759C231.169 431.567 231.006 431.4 230.762 431.259L229.983 430.809C229.975 430.861 229.929 430.93 229.845 431.018C229.765 431.104 229.666 431.196 229.548 431.294C229.431 431.392 229.311 431.487 229.191 431.58C229.07 431.673 228.966 431.753 228.877 431.821C228.676 431.973 228.519 432.123 228.407 432.271C228.295 432.418 228.251 432.56 228.274 432.696C228.294 432.83 228.404 432.955 228.605 433.071C228.892 433.237 229.214 433.302 229.57 433.265C229.926 433.229 230.266 433.117 230.59 432.93ZM228.997 424.836L237.815 429.927L236.256 430.827L227.439 425.736L228.997 424.836ZM240.472 428.502C240.211 428.653 239.896 428.729 239.525 428.73C239.155 428.732 238.839 428.656 238.578 428.502C238.317 428.354 238.188 428.174 238.191 427.96C238.193 427.746 238.325 427.564 238.587 427.413C238.839 427.267 239.151 427.193 239.521 427.192C239.894 427.188 240.211 427.261 240.472 427.408C240.645 427.511 240.758 427.629 240.813 427.763C240.87 427.896 240.87 428.029 240.813 428.161C240.755 428.29 240.642 428.404 240.472 428.502ZM235.754 425.777C235.492 425.928 235.177 426.004 234.806 426.006C234.433 426.006 234.118 425.93 233.859 425.777C233.598 425.63 233.469 425.449 233.472 425.235C233.472 425.02 233.602 424.837 233.863 424.686C234.116 424.54 234.429 424.467 234.802 424.467C235.175 424.464 235.492 424.536 235.754 424.684C235.923 424.785 236.035 424.902 236.089 425.037C236.147 425.169 236.147 425.302 236.089 425.434C236.035 425.565 235.923 425.68 235.754 425.777ZM240.693 418.083L249.511 423.174L247.913 424.096L240.65 419.903L240.598 419.933L239.854 421.884L238.39 421.039L239.173 418.961L240.693 418.083ZM255.177 420.097C254.468 420.506 253.68 420.754 252.813 420.84C251.946 420.923 251.036 420.847 250.083 420.611C249.131 420.373 248.173 419.976 247.212 419.421C246.253 418.864 245.571 418.313 245.167 417.767C244.762 417.219 244.634 416.696 244.783 416.199C244.935 415.7 245.365 415.247 246.071 414.839C246.777 414.432 247.562 414.184 248.426 414.096C249.29 414.008 250.195 414.082 251.143 414.317C252.093 414.551 253.047 414.944 254.006 415.498C254.97 416.055 255.658 416.609 256.068 417.161C256.479 417.709 256.609 418.234 256.46 418.734C256.314 419.233 255.886 419.687 255.177 420.097ZM253.829 419.319C254.38 419 254.544 418.593 254.32 418.096C254.096 417.595 253.455 417.039 252.396 416.428C251.695 416.023 251.034 415.726 250.411 415.535C249.788 415.345 249.222 415.257 248.714 415.272C248.203 415.285 247.766 415.397 247.401 415.607C246.853 415.924 246.692 416.331 246.919 416.83C247.143 417.327 247.779 417.88 248.826 418.488C249.527 418.896 250.188 419.197 250.811 419.391C251.437 419.583 252.005 419.672 252.516 419.659C253.024 419.644 253.462 419.531 253.829 419.319ZM263.264 415.428C262.555 415.837 261.767 416.085 260.9 416.171C260.033 416.254 259.123 416.178 258.17 415.942C257.217 415.704 256.26 415.307 255.299 414.752C254.34 414.195 253.658 413.644 253.253 413.099C252.849 412.55 252.721 412.027 252.87 411.53C253.022 411.031 253.451 410.578 254.158 410.17C254.864 409.763 255.649 409.515 256.513 409.427C257.377 409.339 258.282 409.413 259.229 409.648C260.18 409.882 261.134 410.275 262.093 410.829C263.057 411.386 263.745 411.94 264.155 412.492C264.565 413.041 264.696 413.565 264.547 414.065C264.4 414.564 263.973 415.018 263.264 415.428ZM261.916 414.65C262.467 414.331 262.631 413.924 262.407 413.427C262.183 412.926 261.542 412.37 260.482 411.759C259.782 411.354 259.12 411.057 258.498 410.866C257.875 410.676 257.309 410.588 256.801 410.603C256.29 410.616 255.853 410.728 255.488 410.938C254.94 411.255 254.779 411.663 255.006 412.161C255.23 412.659 255.865 413.211 256.913 413.819C257.613 414.227 258.275 414.528 258.898 414.722C259.524 414.914 260.092 415.003 260.603 414.99C261.111 414.975 261.549 414.862 261.916 414.65ZM271.351 410.759C270.642 411.168 269.854 411.416 268.987 411.502C268.12 411.585 267.21 411.509 266.257 411.273C265.304 411.035 264.347 410.638 263.385 410.083C262.427 409.526 261.745 408.975 261.34 408.43C260.936 407.881 260.808 407.358 260.957 406.861C261.109 406.362 261.538 405.909 262.244 405.501C262.951 405.094 263.736 404.846 264.6 404.758C265.464 404.67 266.369 404.744 267.316 404.979C268.266 405.213 269.221 405.607 270.18 406.16C271.144 406.717 271.831 407.271 272.242 407.823C272.652 408.372 272.783 408.896 272.634 409.397C272.487 409.895 272.06 410.349 271.351 410.759ZM270.003 409.981C270.554 409.663 270.718 409.255 270.494 408.758C270.27 408.257 269.628 407.701 268.569 407.09C267.869 406.685 267.207 406.388 266.584 406.197C265.962 406.007 265.396 405.919 264.888 405.934C264.377 405.947 263.939 406.059 263.575 406.269C263.027 406.586 262.866 406.994 263.093 407.492C263.316 407.99 263.952 408.542 265 409.15C265.7 409.558 266.362 409.859 266.985 410.053C267.611 410.245 268.179 410.335 268.69 410.321C269.198 410.306 269.636 410.193 270.003 409.981Z" fill="#7C91AC"/>
</g>
<g id="Group 9">
<rect id="Rectangle 8_3" width="116.121" height="34" rx="6" transform="matrix(0.866025 -0.5 0.866025 0.5 217.531 472.06)" fill="#40897D"/>
<path id="Dom: 20" d="M268.377 466.281L265.389 468.007L256.572 462.916L259.62 461.156C260.496 460.65 261.424 460.318 262.406 460.159C263.387 459.996 264.376 460.007 265.372 460.191C266.368 460.375 267.324 460.731 268.24 461.26C269.158 461.79 269.777 462.345 270.095 462.923C270.417 463.5 270.434 464.075 270.147 464.648C269.863 465.22 269.273 465.764 268.377 466.281ZM265.605 466.286L266.918 465.528C267.532 465.174 267.933 464.813 268.119 464.447C268.303 464.079 268.274 463.706 268.033 463.328C267.789 462.949 267.33 462.564 266.655 462.175C265.981 461.785 265.318 461.522 264.666 461.384C264.012 461.245 263.372 461.229 262.746 461.335C262.12 461.437 261.509 461.661 260.912 462.006L259.551 462.791L265.605 466.286ZM277.12 461.383C276.474 461.756 275.772 461.997 275.014 462.107C274.257 462.216 273.492 462.198 272.72 462.054C271.95 461.908 271.224 461.638 270.541 461.244C269.858 460.85 269.389 460.429 269.133 459.984C268.881 459.536 268.849 459.094 269.038 458.656C269.228 458.219 269.645 457.814 270.291 457.441C270.937 457.068 271.639 456.827 272.397 456.717C273.154 456.608 273.919 456.627 274.692 456.774C275.467 456.92 276.196 457.19 276.879 457.585C277.562 457.979 278.028 458.399 278.278 458.845C278.531 459.289 278.562 459.73 278.373 460.168C278.183 460.605 277.766 461.01 277.12 461.383ZM275.88 460.657C276.23 460.455 276.427 460.231 276.47 459.984C276.51 459.735 276.424 459.483 276.211 459.228C276.002 458.971 275.696 458.727 275.294 458.495C274.89 458.261 274.465 458.084 274.02 457.963C273.575 457.838 273.137 457.788 272.707 457.811C272.276 457.834 271.886 457.947 271.536 458.149C271.177 458.356 270.976 458.585 270.933 458.835C270.893 459.084 270.979 459.337 271.191 459.596C271.404 459.851 271.712 460.095 272.117 460.329C272.519 460.561 272.941 460.738 273.383 460.861C273.828 460.982 274.265 461.031 274.696 461.008C275.126 460.981 275.521 460.864 275.88 460.657ZM281.482 458.715L274.869 454.897L276.359 454.037L277.483 454.686L277.56 454.641C277.319 454.343 277.252 454.04 277.358 453.734C277.461 453.425 277.734 453.144 278.176 452.889C278.624 452.63 279.11 452.475 279.635 452.424C280.161 452.369 280.673 452.413 281.172 452.555L281.241 452.516C281.02 452.219 280.974 451.907 281.104 451.581C281.233 451.251 281.537 450.948 282.016 450.671C282.625 450.32 283.314 450.144 284.083 450.144C284.852 450.144 285.606 450.357 286.343 450.783L290.782 453.346L289.219 454.248L285.022 451.825C284.611 451.588 284.202 451.477 283.795 451.494C283.384 451.509 283.021 451.608 282.705 451.79C282.329 452.007 282.153 452.245 282.176 452.503C282.199 452.758 282.397 452.994 282.77 453.209L286.894 455.591L285.366 456.473L281.104 454.012C280.762 453.815 280.386 453.717 279.976 453.719C279.568 453.719 279.199 453.814 278.869 454.005C278.645 454.134 278.499 454.285 278.43 454.457C278.358 454.628 278.371 454.804 278.469 454.987C278.563 455.167 278.747 455.336 279.02 455.494L283.041 457.815L281.482 458.715ZM293.418 451.933C293.157 452.084 292.841 452.16 292.471 452.162C292.101 452.164 291.785 452.088 291.524 451.933C291.263 451.786 291.134 451.605 291.136 451.391C291.139 451.178 291.271 450.995 291.533 450.845C291.785 450.699 292.097 450.625 292.467 450.623C292.84 450.62 293.157 450.692 293.418 450.84C293.591 450.942 293.704 451.061 293.759 451.195C293.816 451.328 293.816 451.46 293.759 451.593C293.701 451.722 293.588 451.836 293.418 451.933ZM288.7 449.209C288.438 449.36 288.123 449.436 287.752 449.438C287.379 449.438 287.063 449.361 286.805 449.209C286.544 449.061 286.415 448.881 286.418 448.667C286.418 448.452 286.548 448.268 286.809 448.118C287.062 447.972 287.375 447.899 287.748 447.899C288.121 447.896 288.438 447.968 288.7 448.115C288.869 448.216 288.981 448.334 289.035 448.468C289.093 448.601 289.093 448.733 289.035 448.866C288.981 448.997 288.869 449.111 288.7 449.209ZM298.87 448.676L297.716 448.01L297.777 444.51C297.774 444.17 297.755 443.878 297.721 443.633C297.686 443.387 297.61 443.174 297.493 442.994C297.375 442.813 297.194 442.652 296.95 442.512C296.672 442.351 296.37 442.25 296.046 442.208C295.719 442.165 295.39 442.176 295.06 442.241C294.73 442.305 294.424 442.419 294.143 442.581C293.853 442.749 293.659 442.93 293.562 443.126C293.461 443.319 293.46 443.514 293.557 443.71C293.658 443.904 293.859 444.088 294.16 444.262L292.64 445.139C292.08 444.816 291.722 444.461 291.564 444.075C291.406 443.689 291.438 443.301 291.659 442.912C291.882 442.521 292.286 442.157 292.868 441.821C293.46 441.479 294.09 441.243 294.759 441.112C295.427 440.981 296.077 440.955 296.709 441.035C297.343 441.113 297.907 441.294 298.401 441.579C298.731 441.77 298.992 441.994 299.185 442.251C299.377 442.507 299.508 442.84 299.576 443.247C299.648 443.653 299.674 444.18 299.654 444.828L299.68 446.598L299.74 446.633L303.581 444.416L304.915 445.186L298.87 448.676ZM309.828 442.544C309.119 442.953 308.331 443.201 307.464 443.287C306.597 443.37 305.687 443.294 304.734 443.058C303.781 442.82 302.824 442.423 301.863 441.868C300.904 441.311 300.222 440.76 299.818 440.215C299.413 439.666 299.285 439.143 299.434 438.646C299.586 438.147 300.016 437.694 300.722 437.286C301.428 436.879 302.213 436.631 303.077 436.543C303.941 436.455 304.846 436.529 305.794 436.764C306.744 436.998 307.698 437.392 308.657 437.945C309.621 438.502 310.309 439.056 310.719 439.608C311.13 440.157 311.26 440.681 311.111 441.182C310.965 441.681 310.537 442.135 309.828 442.544ZM308.48 441.766C309.031 441.448 309.195 441.04 308.971 440.543C308.747 440.042 308.106 439.486 307.046 438.875C306.346 438.471 305.685 438.173 305.062 437.982C304.439 437.792 303.873 437.704 303.365 437.719C302.854 437.732 302.417 437.844 302.052 438.055C301.504 438.371 301.343 438.779 301.57 439.278C301.794 439.775 302.43 440.327 303.477 440.936C304.178 441.343 304.839 441.644 305.462 441.838C306.088 442.03 306.656 442.12 307.167 442.106C307.675 442.091 308.113 441.978 308.48 441.766Z" fill="white"/>
</g>
</g>
</g>
</g>
</svg>
