<svg xmlns="http://www.w3.org/2000/svg" xmlns:xlink="http://www.w3.org/1999/xlink" width="50" height="50" viewBox="0 0 50 50">
  <g id="Artboard_1" data-name="Artboard – 1" clip-path="url(#clip-Artboard_1)">
    <rect id="Rectangle_5" data-name="Rectangle 5" width="50" height="50" fill="none"/>
    <g id="Group_9" data-name="Group 9" transform="translate(0 -1)">
      <g id="Group_5" data-name="Group 5" transform="translate(0)">
        <path id="Union_1" data-name="Union 1" d="M-499,140.75c0-.17,0-.34.009-.509l-.009.012V126h15.268l-.014.009A14.75,14.75,0,0,1-469.5,140.75a14.75,14.75,0,0,1-14.75,14.75A14.75,14.75,0,0,1-499,140.75Z" transform="translate(510 -122)" fill="#cbda4b" opacity="0.998"/>
        <g id="Ellipse_2" data-name="Ellipse 2" transform="translate(13 6)" fill="#fff" stroke="#a25e3c" stroke-width="1">
          <circle cx="12.75" cy="12.75" r="12.75" stroke="none"/>
          <circle cx="12.75" cy="12.75" r="12.25" fill="none"/>
        </g>
      </g>
      <path id="Path_25" fill='white' data-name="Path 25" d="M1.385-1.588a.97.97,0,0,1,.421.316A.779.779,0,0,1,1.947-.8.841.841,0,0,1,1.7-.169a.919.919,0,0,1-.665.241A.912.912,0,0,1,.465-.1.853.853,0,0,1,.156-.592L.465-.744a.769.769,0,0,0,.206.394.508.508,0,0,0,.36.134.583.583,0,0,0,.414-.147A.5.5,0,0,0,1.6-.748a.526.526,0,0,0-.11-.333A.838.838,0,0,0,1.16-1.32L.813-1.469a.989.989,0,0,1-.425-.307.731.731,0,0,1-.14-.449.642.642,0,0,1,.227-.5.843.843,0,0,1,.578-.2.874.874,0,0,1,.446.109.742.742,0,0,1,.294.322l-.281.18A.735.735,0,0,0,1.3-2.563a.468.468,0,0,0-.27-.081.434.434,0,0,0-.313.117.4.4,0,0,0-.122.3.4.4,0,0,0,.094.264.783.783,0,0,0,.291.2Zm1.031.053H2.088v-.252h.328v-.721h.313v.721h.328v.252H2.729V0H2.416Zm1.275-.252v.879a.936.936,0,0,0,.114.538.45.45,0,0,0,.386.153.447.447,0,0,0,.384-.151.948.948,0,0,0,.112-.54v-.879H5V-.744a.833.833,0,0,1-.207.612.824.824,0,0,1-.609.208.816.816,0,0,1-.605-.209.833.833,0,0,1-.207-.611V-1.787Zm3.268.9a.688.688,0,0,0-.166-.481.563.563,0,0,0-.437-.183.546.546,0,0,0-.424.166.653.653,0,0,0-.152.459.787.787,0,0,0,.154.517.523.523,0,0,0,.426.187A.564.564,0,0,0,6.8-.4.7.7,0,0,0,6.959-.885Zm.3-2.143V0h-.3V-.324a.775.775,0,0,1-.273.3.7.7,0,0,1-.375.1.79.79,0,0,1-.62-.265,1.015,1.015,0,0,1-.235-.7,1.023,1.023,0,0,1,.23-.7A.777.777,0,0,1,6.3-1.852a.725.725,0,0,1,.387.1.728.728,0,0,1,.266.3V-3.027Zm.566.379a.214.214,0,0,1,.065-.157.217.217,0,0,1,.159-.065A.213.213,0,0,1,8.2-2.8a.22.22,0,0,1,.065.16.213.213,0,0,1-.064.156.215.215,0,0,1-.158.064.218.218,0,0,1-.159-.064A.216.216,0,0,1,7.822-2.648ZM7.895,0V-1.787H8.2V0ZM9.027-.889a.664.664,0,0,0,.189.479.614.614,0,0,0,.459.2.606.606,0,0,0,.455-.2.668.668,0,0,0,.188-.479.668.668,0,0,0-.187-.479.606.606,0,0,0-.455-.2.613.613,0,0,0-.46.2A.666.666,0,0,0,9.027-.889Zm-.324,0a.964.964,0,0,1,.072-.372.937.937,0,0,1,.211-.312A.956.956,0,0,1,9.3-1.78a.988.988,0,0,1,.375-.071.959.959,0,0,1,.37.072,1,1,0,0,1,.317.211.916.916,0,0,1,.211.31.959.959,0,0,1,.072.37.945.945,0,0,1-.072.368.921.921,0,0,1-.211.308A1.008,1.008,0,0,1,10.044,0a.942.942,0,0,1-.368.074A.967.967,0,0,1,9.3,0a.98.98,0,0,1-.315-.21A.989.989,0,0,1,8.775-.52.943.943,0,0,1,8.7-.889Z" transform="translate(20 47)"/>
      <g id="Group_8" data-name="Group 8">
        <g id="Group_7" data-name="Group 7">
          <path id="Path_26" fill='white' data-name="Path 26" d="M.773,0V-6.434h.756v2.861l2.7-2.861h.914l-2.76,2.9L5.418,0H4.43l-2.9-3.463V0Z" transform="translate(8 42)"/>
          <path id="Path_27" fill='white' data-name="Path 27" d="M3.779-1.973a1.583,1.583,0,0,0-.371-1.1,1.239,1.239,0,0,0-.969-.415,1.24,1.24,0,0,0-.967.382,1.531,1.531,0,0,0-.347,1.068A1.645,1.645,0,0,0,1.474-.91a1.252,1.252,0,0,0,.991.4A1.238,1.238,0,0,0,3.43-.9,1.54,1.54,0,0,0,3.779-1.973Zm.668-2.048V0H3.779V-.729a1.758,1.758,0,0,1-.617.67A1.576,1.576,0,0,1,2.32.171a1.777,1.777,0,0,1-1.4-.6A2.283,2.283,0,0,1,.4-2,2.312,2.312,0,0,1,.91-3.579a1.738,1.738,0,0,1,1.375-.587,1.652,1.652,0,0,1,.877.226,1.632,1.632,0,0,1,.6.675v-.756Z" transform="translate(16.5 42)"/>
          <path id="Path_28" fill='white' data-name="Path 28" d="M.809-3.454H.07v-.567H.809V-5.643h.7v1.622H2.25v.567H1.512V0h-.7Z" transform="translate(26 42)"/>
          <path id="Path_29" fill='white' data-name="Path 29" d="M.7,0V-6.812h.672V-3.4A1.687,1.687,0,0,1,2-3.977a1.809,1.809,0,0,1,.844-.189,1.554,1.554,0,0,1,1.112.378,1.375,1.375,0,0,1,.4,1.05V0h-.7V-2.369a1.358,1.358,0,0,0-.257-.907.994.994,0,0,0-.793-.3,1.367,1.367,0,0,0-.56.112,1.108,1.108,0,0,0-.42.319.975.975,0,0,0-.182.36,3.059,3.059,0,0,0-.055.7V0Z" transform="translate(32 42)"/>
          <path id="Path_30" fill='white' data-name="Path 30" d="M.576-5.959a.482.482,0,0,1,.147-.354.487.487,0,0,1,.358-.147.479.479,0,0,1,.354.149.5.5,0,0,1,.147.36.479.479,0,0,1-.145.352.484.484,0,0,1-.356.145A.491.491,0,0,1,.723-5.6.485.485,0,0,1,.576-5.959ZM.738,0V-4.021h.694V0Z" transform="translate(41 42)"/>
        </g>
        <g id="Group_6" data-name="Group 6">
          <circle id="Ellipse_6" data-name="Ellipse 6" cx="1.15" cy="1.15" r="1.15" transform="translate(13 38.5)" fill="#cbda4b"/>
          <circle id="Ellipse_4" data-name="Ellipse 4" cx="1.15" cy="1.15" r="1.15" transform="translate(23 38.5)" fill="#cbda4b"/>
          <circle id="Ellipse_5" data-name="Ellipse 5" cx="1.15" cy="1.15" r="1.15" transform="translate(29 38.5)" fill="#cbda4b"/>
          <circle id="Ellipse_3" data-name="Ellipse 3" cx="1.15" cy="1.15" r="1.15" transform="translate(38 38.5)" fill="#cbda4b"/>
        </g>
      </g>
    </g>
  </g>
</svg>
