<svg width="6147" height="968" viewBox="0 0 6147 968" fill="none" xmlns="http://www.w3.org/2000/svg">
    <g id="BOEING_737-900ER_(215_Seats)">
        <g id="seats">
            <g id="seat_number">
                <text id="n39" fill="#6d6d6d" style="white-space: pre" xml:space="preserve"
                    font-size="52" font-weight="bold" letter-spacing="0em"><tspan x="4852" y="828.409">39</tspan></text>
                <text id="n38" fill="#6d6d6d" style="white-space: pre" xml:space="preserve"
                    font-size="52" font-weight="bold" letter-spacing="0em"><tspan x="4759" y="828.409">38</tspan></text>
                <text id="n37" fill="#6d6d6d" style="white-space: pre" xml:space="preserve"
                    font-size="52" font-weight="bold" letter-spacing="0em"><tspan x="4666" y="828.409">37</tspan></text>
                <text id="n36" fill="#6d6d6d" style="white-space: pre" xml:space="preserve"
                    font-size="52" font-weight="bold" letter-spacing="0em"><tspan x="4573" y="828.409">36</tspan></text>
                <text id="n35" fill="#6d6d6d" style="white-space: pre" xml:space="preserve"
                    font-size="52" font-weight="bold" letter-spacing="0em"><tspan x="4480" y="828.409">35</tspan></text>
                <text id="n34" fill="#6d6d6d" style="white-space: pre" xml:space="preserve"
                    font-size="52" font-weight="bold" letter-spacing="0em"><tspan x="4387" y="828.409">34</tspan></text>
                <text id="n33" fill="#6d6d6d" style="white-space: pre" xml:space="preserve"
                    font-size="52" font-weight="bold" letter-spacing="0em"><tspan x="4301" y="828.409">33</tspan></text>
                <text id="n32" fill="#6d6d6d" style="white-space: pre" xml:space="preserve"
                    font-size="52" font-weight="bold" letter-spacing="0em"><tspan x="4201" y="828.409">32</tspan></text>
                <text id="n32_2" fill="#6d6d6d" style="white-space: pre" xml:space="preserve"
                    font-size="52" font-weight="bold" letter-spacing="0em"><tspan x="4110" y="828.409">32</tspan></text>
                <text id="n30" fill="#6d6d6d" style="white-space: pre" xml:space="preserve"
                    font-size="52" font-weight="bold" letter-spacing="0em"><tspan x="3958" y="828.409">30</tspan></text>
                <text id="n29" fill="#6d6d6d" style="white-space: pre" xml:space="preserve"
                    font-size="52" font-weight="bold" letter-spacing="0em"><tspan x="3867" y="828.409">29</tspan></text>
                <text id="n28" fill="#6d6d6d" style="white-space: pre" xml:space="preserve"
                    font-size="52" font-weight="bold" letter-spacing="0em"><tspan x="3774" y="828.409">28</tspan></text>
                <text id="n27" fill="#6d6d6d" style="white-space: pre" xml:space="preserve"
                    font-size="52" font-weight="bold" letter-spacing="0em"><tspan x="3681" y="828.409">27</tspan></text>
                <text id="n26" fill="#6d6d6d" style="white-space: pre" xml:space="preserve"
                    font-size="52" font-weight="bold" letter-spacing="0em"><tspan x="3588" y="828.409">26</tspan></text>
                <text id="n25" fill="#6d6d6d" style="white-space: pre" xml:space="preserve"
                    font-size="52" font-weight="bold" letter-spacing="0em"><tspan x="3495" y="828.409">25</tspan></text>
                <text id="n24" fill="#6d6d6d" style="white-space: pre" xml:space="preserve"
                    font-size="52" font-weight="bold" letter-spacing="0em"><tspan x="3397" y="828.409">24</tspan></text>
                <text id="n23" fill="#6d6d6d" style="white-space: pre" xml:space="preserve"
                    font-size="52" font-weight="bold" letter-spacing="0em"><tspan x="3295" y="828.409">23</tspan></text>
                <text id="n22" fill="#6d6d6d" style="white-space: pre" xml:space="preserve"
                    font-size="52" font-weight="bold" letter-spacing="0em"><tspan x="3213" y="828.409">22</tspan></text>
                <text id="n21" fill="#6d6d6d" style="white-space: pre" xml:space="preserve"
                    font-size="52" font-weight="bold" letter-spacing="0em"><tspan x="3123" y="828.409">21</tspan></text>
                <text id="n20" fill="#6d6d6d" style="white-space: pre" xml:space="preserve"
                    font-size="52" font-weight="bold" letter-spacing="0em"><tspan x="2943" y="828.409">20</tspan></text>
                <text id="n19" fill="#6d6d6d" style="white-space: pre" xml:space="preserve"
                    font-size="52" font-weight="bold" letter-spacing="0em"><tspan x="2793" y="828.409">19</tspan></text>
                <text id="n18" fill="#6d6d6d" style="white-space: pre" xml:space="preserve"
                    font-size="52" font-weight="bold" letter-spacing="0em"><tspan x="2693" y="828.409">18</tspan></text>
                <text id="n17" fill="#6d6d6d" style="white-space: pre" xml:space="preserve"
                    font-size="52" font-weight="bold" letter-spacing="0em"><tspan x="2605" y="828.409">17</tspan></text>
                <text id="n16" fill="#6d6d6d" style="white-space: pre" xml:space="preserve"
                    font-size="52" font-weight="bold" letter-spacing="0em"><tspan x="2502" y="828.409">16</tspan></text>
                <text id="n15" fill="#6d6d6d" style="white-space: pre" xml:space="preserve"
                    font-size="52" font-weight="bold" letter-spacing="0em"><tspan x="2414" y="828.409">15</tspan></text>
                <text id="n12" fill="#6d6d6d" style="white-space: pre" xml:space="preserve"
                    font-size="52" font-weight="bold" letter-spacing="0em"><tspan x="2322" y="828.409">12</tspan></text>
                <text id="n11" fill="#6d6d6d" style="white-space: pre" xml:space="preserve"
                    font-size="52" font-weight="bold" letter-spacing="0em"><tspan x="2230" y="828.409">11</tspan></text>
                <text id="n10" fill="#6d6d6d" style="white-space: pre" xml:space="preserve"
                    font-size="52" font-weight="bold" letter-spacing="0em"><tspan x="2136" y="828.409">10</tspan></text>
                <text id="n9" fill="#6d6d6d" style="white-space: pre" xml:space="preserve"
                    font-size="52" font-weight="bold" letter-spacing="0em"><tspan x="2061" y="828.409">9</tspan></text>
                <text id="n8" fill="#6d6d6d" style="white-space: pre" xml:space="preserve"
                    font-size="52" font-weight="bold" letter-spacing="0em"><tspan x="1966" y="828.409">8</tspan></text>
                <text id="n7" fill="#6d6d6d" style="white-space: pre" xml:space="preserve"
                    font-size="52" font-weight="bold" letter-spacing="0em"><tspan x="1868" y="828.409">7</tspan></text>
                <text id="n6" fill="#6d6d6d" style="white-space: pre" xml:space="preserve"
                    font-size="52" font-weight="bold" letter-spacing="0em"><tspan x="1772" y="828.409">6</tspan></text>
                <text id="n5" fill="#6d6d6d" style="white-space: pre" xml:space="preserve"
                    font-size="52" font-weight="bold" letter-spacing="0em"><tspan x="1680" y="828.409">5</tspan></text>
                <text id="n4" fill="#6d6d6d" style="white-space: pre" xml:space="preserve"
                    font-size="52" font-weight="bold" letter-spacing="0em"><tspan x="1576" y="828.409">4</tspan></text>
                <text id="n3" fill="#6d6d6d" style="white-space: pre" xml:space="preserve"
                    font-size="52" font-weight="bold" letter-spacing="0em"><tspan x="1480" y="828.409">3</tspan></text>
                <text id="n2" fill="#6d6d6d" style="white-space: pre" xml:space="preserve"
                    font-size="52" font-weight="bold" letter-spacing="0em"><tspan x="1397" y="828.409">2</tspan></text>
                <text id="n1" fill="#6d6d6d" style="white-space: pre" xml:space="preserve"
                    font-size="52" font-weight="bold" letter-spacing="0em"><tspan x="1309" y="828.409">1</tspan></text>
            </g>
            <g id="39">
                <path id="a"
                    name='A-39'
                    d="M4870.5 670.5H4894C4898.69 670.5 4902.5 674.306 4902.5 679V726C4902.5 730.694 4898.69 734.5 4894 734.5H4870.5C4852.83 734.5 4838.5 720.173 4838.5 702.5C4838.5 684.827 4852.83 670.5 4870.5 670.5Z"
                    fill="white" stroke="#D9D9D9" stroke-width="5"></path>
                <path id="b"
                    name='B-39'
                    d="M4870 601.5H4894C4898.69 601.5 4902.5 605.306 4902.5 610V658C4902.5 662.694 4898.69 666.5 4894 666.5H4870C4852.05 666.5 4837.5 651.949 4837.5 634C4837.5 616.051 4852.05 601.5 4870 601.5Z"
                    fill="white" stroke="#D9D9D9" stroke-width="5"></path>
                <path id="c"
                    name='C-39'
                    d="M4870 531.5H4894C4898.69 531.5 4902.5 535.306 4902.5 540V588C4902.5 592.694 4898.69 596.5 4894 596.5H4870C4852.05 596.5 4837.5 581.949 4837.5 564C4837.5 546.051 4852.05 531.5 4870 531.5Z"
                    fill="white" stroke="#D9D9D9" stroke-width="5"></path>
                <path id="d"
                    name='D-39'
                    d="M4870.5 381.5H4894C4898.69 381.5 4902.5 385.306 4902.5 390V437C4902.5 441.694 4898.69 445.5 4894 445.5H4870.5C4852.83 445.5 4838.5 431.173 4838.5 413.5C4838.5 395.827 4852.83 381.5 4870.5 381.5Z"
                    fill="white" stroke="#D9D9D9" stroke-width="5"></path>
                <path id="e"
                    name='E-39'
                    d="M4870 312.5H4894C4898.69 312.5 4902.5 316.306 4902.5 321V369C4902.5 373.694 4898.69 377.5 4894 377.5H4870C4852.05 377.5 4837.5 362.949 4837.5 345C4837.5 327.051 4852.05 312.5 4870 312.5Z"
                    fill="white" stroke="#D9D9D9" stroke-width="5"></path>
                <path id="f"
                    name='F-39'
                    d="M4870 242.5H4894C4898.69 242.5 4902.5 246.306 4902.5 251V299C4902.5 303.694 4898.69 307.5 4894 307.5H4870C4852.05 307.5 4837.5 292.949 4837.5 275C4837.5 257.051 4852.05 242.5 4870 242.5Z"
                    fill="white" stroke="#D9D9D9" stroke-width="5"></path>
            </g>
            <g id="38">
                <path id="a_2"
                    name='A-38'
                    d="M4778.5 670.5H4802C4806.69 670.5 4810.5 674.306 4810.5 679V726C4810.5 730.694 4806.69 734.5 4802 734.5H4778.5C4760.83 734.5 4746.5 720.173 4746.5 702.5C4746.5 684.827 4760.83 670.5 4778.5 670.5Z"
                    fill="white" stroke="#D9D9D9" stroke-width="5"></path>
                <path id="b_2"
                    name='B-38'
                    d="M4778 601.5H4802C4806.69 601.5 4810.5 605.306 4810.5 610V658C4810.5 662.694 4806.69 666.5 4802 666.5H4778C4760.05 666.5 4745.5 651.949 4745.5 634C4745.5 616.051 4760.05 601.5 4778 601.5Z"
                    fill="white" stroke="#D9D9D9" stroke-width="5"></path>
                <path id="c_2"
                    name='C-38'
                    d="M4778 531.5H4802C4806.69 531.5 4810.5 535.306 4810.5 540V588C4810.5 592.694 4806.69 596.5 4802 596.5H4778C4760.05 596.5 4745.5 581.949 4745.5 564C4745.5 546.051 4760.05 531.5 4778 531.5Z"
                    fill="white" stroke="#D9D9D9" stroke-width="5"></path>
                <path id="d_2"
                    name='D-38'
                    d="M4778.5 381.5H4802C4806.69 381.5 4810.5 385.306 4810.5 390V437C4810.5 441.694 4806.69 445.5 4802 445.5H4778.5C4760.83 445.5 4746.5 431.173 4746.5 413.5C4746.5 395.827 4760.83 381.5 4778.5 381.5Z"
                    fill="white" stroke="#D9D9D9" stroke-width="5"></path>
                <path id="e_2"
                    name='E-38'
                    d="M4778 312.5H4802C4806.69 312.5 4810.5 316.306 4810.5 321V369C4810.5 373.694 4806.69 377.5 4802 377.5H4778C4760.05 377.5 4745.5 362.949 4745.5 345C4745.5 327.051 4760.05 312.5 4778 312.5Z"
                    fill="white" stroke="#D9D9D9" stroke-width="5"></path>
                <path id="f_2"
                    name='F-38'
                    d="M4778 242.5H4802C4806.69 242.5 4810.5 246.306 4810.5 251V299C4810.5 303.694 4806.69 307.5 4802 307.5H4778C4760.05 307.5 4745.5 292.949 4745.5 275C4745.5 257.051 4760.05 242.5 4778 242.5Z"
                    fill="white" stroke="#D9D9D9" stroke-width="5"></path>
            </g>
            <g id="37">
                <path id="a_3"
                    name='A-37'
                    d="M4686.5 670.5H4710C4714.69 670.5 4718.5 674.306 4718.5 679V726C4718.5 730.694 4714.69 734.5 4710 734.5H4686.5C4668.83 734.5 4654.5 720.173 4654.5 702.5C4654.5 684.827 4668.83 670.5 4686.5 670.5Z"
                    fill="white" stroke="#D9D9D9" stroke-width="5"></path>
                <path id="b_3"
                    name='B-37'
                    d="M4686 601.5H4710C4714.69 601.5 4718.5 605.306 4718.5 610V658C4718.5 662.694 4714.69 666.5 4710 666.5H4686C4668.05 666.5 4653.5 651.949 4653.5 634C4653.5 616.051 4668.05 601.5 4686 601.5Z"
                    fill="white" stroke="#D9D9D9" stroke-width="5"></path>
                <path id="c_3"
                    name='C-37'
                    d="M4686 531.5H4710C4714.69 531.5 4718.5 535.306 4718.5 540V588C4718.5 592.694 4714.69 596.5 4710 596.5H4686C4668.05 596.5 4653.5 581.949 4653.5 564C4653.5 546.051 4668.05 531.5 4686 531.5Z"
                    fill="white" stroke="#D9D9D9" stroke-width="5"></path>
                <path id="d_3"
                    name='D-37'
                    d="M4686.5 381.5H4710C4714.69 381.5 4718.5 385.306 4718.5 390V437C4718.5 441.694 4714.69 445.5 4710 445.5H4686.5C4668.83 445.5 4654.5 431.173 4654.5 413.5C4654.5 395.827 4668.83 381.5 4686.5 381.5Z"
                    fill="white" stroke="#D9D9D9" stroke-width="5"></path>
                <path id="e_3"
                    name='E-37'
                    d="M4686 312.5H4710C4714.69 312.5 4718.5 316.306 4718.5 321V369C4718.5 373.694 4714.69 377.5 4710 377.5H4686C4668.05 377.5 4653.5 362.949 4653.5 345C4653.5 327.051 4668.05 312.5 4686 312.5Z"
                    fill="white" stroke="#D9D9D9" stroke-width="5"></path>
                <path id="f_3"
                    name='F-37'
                    d="M4686 242.5H4710C4714.69 242.5 4718.5 246.306 4718.5 251V299C4718.5 303.694 4714.69 307.5 4710 307.5H4686C4668.05 307.5 4653.5 292.949 4653.5 275C4653.5 257.051 4668.05 242.5 4686 242.5Z"
                    fill="white" stroke="#D9D9D9" stroke-width="5"></path>
            </g>
            <g id="36">
                <path id="a_4"
                    name='A-36'
                    d="M4594.5 670.5H4618C4622.69 670.5 4626.5 674.306 4626.5 679V726C4626.5 730.694 4622.69 734.5 4618 734.5H4594.5C4576.83 734.5 4562.5 720.173 4562.5 702.5C4562.5 684.827 4576.83 670.5 4594.5 670.5Z"
                    fill="white" stroke="#D9D9D9" stroke-width="5"></path>
                <path id="b_4"
                    name='B-36'
                    d="M4594 601.5H4618C4622.69 601.5 4626.5 605.306 4626.5 610V658C4626.5 662.694 4622.69 666.5 4618 666.5H4594C4576.05 666.5 4561.5 651.949 4561.5 634C4561.5 616.051 4576.05 601.5 4594 601.5Z"
                    fill="white" stroke="#D9D9D9" stroke-width="5"></path>
                <path id="c_4"
                    name='C-36'
                    d="M4594 531.5H4618C4622.69 531.5 4626.5 535.306 4626.5 540V588C4626.5 592.694 4622.69 596.5 4618 596.5H4594C4576.05 596.5 4561.5 581.949 4561.5 564C4561.5 546.051 4576.05 531.5 4594 531.5Z"
                    fill="white" stroke="#D9D9D9" stroke-width="5"></path>
                <path id="d_4"
                    name='D-36'
                    d="M4594.5 381.5H4618C4622.69 381.5 4626.5 385.306 4626.5 390V437C4626.5 441.694 4622.69 445.5 4618 445.5H4594.5C4576.83 445.5 4562.5 431.173 4562.5 413.5C4562.5 395.827 4576.83 381.5 4594.5 381.5Z"
                    fill="white" stroke="#D9D9D9" stroke-width="5"></path>
                <path id="e_4"
                    name='E-36'
                    d="M4594 312.5H4618C4622.69 312.5 4626.5 316.306 4626.5 321V369C4626.5 373.694 4622.69 377.5 4618 377.5H4594C4576.05 377.5 4561.5 362.949 4561.5 345C4561.5 327.051 4576.05 312.5 4594 312.5Z"
                    fill="white" stroke="#D9D9D9" stroke-width="5"></path>
                <path id="f_4"
                    name='F-36'
                    d="M4594 242.5H4618C4622.69 242.5 4626.5 246.306 4626.5 251V299C4626.5 303.694 4622.69 307.5 4618 307.5H4594C4576.05 307.5 4561.5 292.949 4561.5 275C4561.5 257.051 4576.05 242.5 4594 242.5Z"
                    fill="white" stroke="#D9D9D9" stroke-width="5"></path>
            </g>
            <g id="35">
                <path id="a_5"
                    name='A-35'
                    d="M4502.5 670.5H4526C4530.69 670.5 4534.5 674.306 4534.5 679V726C4534.5 730.694 4530.69 734.5 4526 734.5H4502.5C4484.83 734.5 4470.5 720.173 4470.5 702.5C4470.5 684.827 4484.83 670.5 4502.5 670.5Z"
                    fill="white" stroke="#D9D9D9" stroke-width="5"></path>
                <path id="b_5"
                    name='B-35'
                    d="M4502 601.5H4526C4530.69 601.5 4534.5 605.306 4534.5 610V658C4534.5 662.694 4530.69 666.5 4526 666.5H4502C4484.05 666.5 4469.5 651.949 4469.5 634C4469.5 616.051 4484.05 601.5 4502 601.5Z"
                    fill="white" stroke="#D9D9D9" stroke-width="5"></path>
                <path id="c_5"
                    name='C-35'
                    d="M4502 531.5H4526C4530.69 531.5 4534.5 535.306 4534.5 540V588C4534.5 592.694 4530.69 596.5 4526 596.5H4502C4484.05 596.5 4469.5 581.949 4469.5 564C4469.5 546.051 4484.05 531.5 4502 531.5Z"
                    fill="white" stroke="#D9D9D9" stroke-width="5"></path>
                <path id="d_5"
                    name='D-35'
                    d="M4502.5 381.5H4526C4530.69 381.5 4534.5 385.306 4534.5 390V437C4534.5 441.694 4530.69 445.5 4526 445.5H4502.5C4484.83 445.5 4470.5 431.173 4470.5 413.5C4470.5 395.827 4484.83 381.5 4502.5 381.5Z"
                    fill="white" stroke="#D9D9D9" stroke-width="5"></path>
                <path id="e_5"
                    name='E-35'
                    d="M4502 312.5H4526C4530.69 312.5 4534.5 316.306 4534.5 321V369C4534.5 373.694 4530.69 377.5 4526 377.5H4502C4484.05 377.5 4469.5 362.949 4469.5 345C4469.5 327.051 4484.05 312.5 4502 312.5Z"
                    fill="white" stroke="#D9D9D9" stroke-width="5"></path>
                <path id="f_5"
                    name='F-35'
                    d="M4502 242.5H4526C4530.69 242.5 4534.5 246.306 4534.5 251V299C4534.5 303.694 4530.69 307.5 4526 307.5H4502C4484.05 307.5 4469.5 292.949 4469.5 275C4469.5 257.051 4484.05 242.5 4502 242.5Z"
                    fill="white" stroke="#D9D9D9" stroke-width="5"></path>
            </g>
            <g id="34">
                <path id="a_6"
                    name='A-34'
                    d="M4410.5 670.5H4434C4438.69 670.5 4442.5 674.306 4442.5 679V726C4442.5 730.694 4438.69 734.5 4434 734.5H4410.5C4392.83 734.5 4378.5 720.173 4378.5 702.5C4378.5 684.827 4392.83 670.5 4410.5 670.5Z"
                    fill="white" stroke="#D9D9D9" stroke-width="5"></path>
                <path id="b_6"
                    name='B-34'
                    d="M4410 601.5H4434C4438.69 601.5 4442.5 605.306 4442.5 610V658C4442.5 662.694 4438.69 666.5 4434 666.5H4410C4392.05 666.5 4377.5 651.949 4377.5 634C4377.5 616.051 4392.05 601.5 4410 601.5Z"
                    fill="white" stroke="#D9D9D9" stroke-width="5"></path>
                <path id="c_6"
                    name='C-34'
                    d="M4410 531.5H4434C4438.69 531.5 4442.5 535.306 4442.5 540V588C4442.5 592.694 4438.69 596.5 4434 596.5H4410C4392.05 596.5 4377.5 581.949 4377.5 564C4377.5 546.051 4392.05 531.5 4410 531.5Z"
                    fill="white" stroke="#D9D9D9" stroke-width="5"></path>
                <path id="d_6"
                    name='D-34'
                    d="M4410.5 381.5H4434C4438.69 381.5 4442.5 385.306 4442.5 390V437C4442.5 441.694 4438.69 445.5 4434 445.5H4410.5C4392.83 445.5 4378.5 431.173 4378.5 413.5C4378.5 395.827 4392.83 381.5 4410.5 381.5Z"
                    fill="white" stroke="#D9D9D9" stroke-width="5"></path>
                <path id="e_6"
                    name='E-34'
                    d="M4410 312.5H4434C4438.69 312.5 4442.5 316.306 4442.5 321V369C4442.5 373.694 4438.69 377.5 4434 377.5H4410C4392.05 377.5 4377.5 362.949 4377.5 345C4377.5 327.051 4392.05 312.5 4410 312.5Z"
                    fill="white" stroke="#D9D9D9" stroke-width="5"></path>
                <path id="f_6"
                    name='F-34'
                    d="M4410 242.5H4434C4438.69 242.5 4442.5 246.306 4442.5 251V299C4442.5 303.694 4438.69 307.5 4434 307.5H4410C4392.05 307.5 4377.5 292.949 4377.5 275C4377.5 257.051 4392.05 242.5 4410 242.5Z"
                    fill="white" stroke="#D9D9D9" stroke-width="5"></path>
            </g>
            <g id="33">
                <path id="a_7"
                    name='A-33'
                    d="M4318.5 670.5H4342C4346.69 670.5 4350.5 674.306 4350.5 679V726C4350.5 730.694 4346.69 734.5 4342 734.5H4318.5C4300.83 734.5 4286.5 720.173 4286.5 702.5C4286.5 684.827 4300.83 670.5 4318.5 670.5Z"
                    fill="white" stroke="#D9D9D9" stroke-width="5"></path>
                <path id="b_7"
                    name='B-33'
                    d="M4318 601.5H4342C4346.69 601.5 4350.5 605.306 4350.5 610V658C4350.5 662.694 4346.69 666.5 4342 666.5H4318C4300.05 666.5 4285.5 651.949 4285.5 634C4285.5 616.051 4300.05 601.5 4318 601.5Z"
                    fill="white" stroke="#D9D9D9" stroke-width="5"></path>
                <path id="c_7"
                    name='C-33'
                    d="M4318 531.5H4342C4346.69 531.5 4350.5 535.306 4350.5 540V588C4350.5 592.694 4346.69 596.5 4342 596.5H4318C4300.05 596.5 4285.5 581.949 4285.5 564C4285.5 546.051 4300.05 531.5 4318 531.5Z"
                    fill="white" stroke="#D9D9D9" stroke-width="5"></path>
                <path id="d_7"
                    name='D-33'
                    d="M4318.5 381.5H4342C4346.69 381.5 4350.5 385.306 4350.5 390V437C4350.5 441.694 4346.69 445.5 4342 445.5H4318.5C4300.83 445.5 4286.5 431.173 4286.5 413.5C4286.5 395.827 4300.83 381.5 4318.5 381.5Z"
                    fill="white" stroke="#D9D9D9" stroke-width="5"></path>
                <path id="e_7"
                    name='E-33'
                    d="M4318 312.5H4342C4346.69 312.5 4350.5 316.306 4350.5 321V369C4350.5 373.694 4346.69 377.5 4342 377.5H4318C4300.05 377.5 4285.5 362.949 4285.5 345C4285.5 327.051 4300.05 312.5 4318 312.5Z"
                    fill="white" stroke="#D9D9D9" stroke-width="5"></path>
                <path id="f_7"
                    name='F-33'
                    d="M4318 242.5H4342C4346.69 242.5 4350.5 246.306 4350.5 251V299C4350.5 303.694 4346.69 307.5 4342 307.5H4318C4300.05 307.5 4285.5 292.949 4285.5 275C4285.5 257.051 4300.05 242.5 4318 242.5Z"
                    fill="white" stroke="#D9D9D9" stroke-width="5"></path>
            </g>
            <g id="32">
                <path id="a_8"
                    name='A-32'
                    d="M4226.5 670.5H4250C4254.69 670.5 4258.5 674.306 4258.5 679V726C4258.5 730.694 4254.69 734.5 4250 734.5H4226.5C4208.83 734.5 4194.5 720.173 4194.5 702.5C4194.5 684.827 4208.83 670.5 4226.5 670.5Z"
                    fill="white" stroke="#D9D9D9" stroke-width="5"></path>
                <path id="b_8"
                    name='B-32'
                    d="M4226 601.5H4250C4254.69 601.5 4258.5 605.306 4258.5 610V658C4258.5 662.694 4254.69 666.5 4250 666.5H4226C4208.05 666.5 4193.5 651.949 4193.5 634C4193.5 616.051 4208.05 601.5 4226 601.5Z"
                    fill="white" stroke="#D9D9D9" stroke-width="5"></path>
                <path id="c_8"
                    name='C-32'
                    d="M4226 531.5H4250C4254.69 531.5 4258.5 535.306 4258.5 540V588C4258.5 592.694 4254.69 596.5 4250 596.5H4226C4208.05 596.5 4193.5 581.949 4193.5 564C4193.5 546.051 4208.05 531.5 4226 531.5Z"
                    fill="white" stroke="#D9D9D9" stroke-width="5"></path>
                <path id="d_8"
                    name='D-32'
                    d="M4226.5 381.5H4250C4254.69 381.5 4258.5 385.306 4258.5 390V437C4258.5 441.694 4254.69 445.5 4250 445.5H4226.5C4208.83 445.5 4194.5 431.173 4194.5 413.5C4194.5 395.827 4208.83 381.5 4226.5 381.5Z"
                    fill="white" stroke="#D9D9D9" stroke-width="5"></path>
                <path id="e_8"
                    name='E-32'
                    d="M4226 312.5H4250C4254.69 312.5 4258.5 316.306 4258.5 321V369C4258.5 373.694 4254.69 377.5 4250 377.5H4226C4208.05 377.5 4193.5 362.949 4193.5 345C4193.5 327.051 4208.05 312.5 4226 312.5Z"
                    fill="white" stroke="#D9D9D9" stroke-width="5"></path>
                <path id="f_8"
                    name='F-32'
                    d="M4226 242.5H4250C4254.69 242.5 4258.5 246.306 4258.5 251V299C4258.5 303.694 4254.69 307.5 4250 307.5H4226C4208.05 307.5 4193.5 292.949 4193.5 275C4193.5 257.051 4208.05 242.5 4226 242.5Z"
                    fill="white" stroke="#D9D9D9" stroke-width="5"></path>
            </g>
            <g id="31">
                <path id="b_9"
                    name='B-31'
                    d="M4134 601.5H4158C4162.69 601.5 4166.5 605.306 4166.5 610V658C4166.5 662.694 4162.69 666.5 4158 666.5H4134C4116.05 666.5 4101.5 651.949 4101.5 634C4101.5 616.051 4116.05 601.5 4134 601.5Z"
                    fill="white" stroke="#D9D9D9" stroke-width="5"></path>
                <path id="c_9"
                    name='C-31'
                    d="M4134 531.5H4158C4162.69 531.5 4166.5 535.306 4166.5 540V588C4166.5 592.694 4162.69 596.5 4158 596.5H4134C4116.05 596.5 4101.5 581.949 4101.5 564C4101.5 546.051 4116.05 531.5 4134 531.5Z"
                    fill="white" stroke="#D9D9D9" stroke-width="5"></path>
                <path id="d_9"
                    name='D-31'
                    d="M4134.5 381.5H4158C4162.69 381.5 4166.5 385.306 4166.5 390V437C4166.5 441.694 4162.69 445.5 4158 445.5H4134.5C4116.83 445.5 4102.5 431.173 4102.5 413.5C4102.5 395.827 4116.83 381.5 4134.5 381.5Z"
                    fill="white" stroke="#D9D9D9" stroke-width="5"></path>
                <path id="e_9"
                    name='E-31'
                    d="M4134 312.5H4158C4162.69 312.5 4166.5 316.306 4166.5 321V369C4166.5 373.694 4162.69 377.5 4158 377.5H4134C4116.05 377.5 4101.5 362.949 4101.5 345C4101.5 327.051 4116.05 312.5 4134 312.5Z"
                    fill="white" stroke="#D9D9D9" stroke-width="5"></path>
            </g>
            <g id="30">
                <path id="a_9"
                    name='A-30'
                    d="M3990.25 670.007H4014C4018.69 670.007 4022.5 673.813 4022.5 678.507V726C4022.5 730.694 4018.69 734.5 4014 734.5H3990.25C3972.44 734.5 3958.01 720.062 3958.01 702.253C3958.01 684.444 3972.44 670.007 3990.25 670.007Z"
                    fill="white" stroke="#D9D9D9" stroke-width="5"></path>
                <path id="b_10"
                    name='B-30'
                    d="M3989.5 601.25H4013.75C4018.44 601.25 4022.25 605.056 4022.25 609.75V658.25C4022.25 662.944 4018.44 666.75 4013.75 666.75H3989.5C3971.41 666.75 3956.75 652.087 3956.75 634C3956.75 615.913 3971.41 601.25 3989.5 601.25Z"
                    fill="white" stroke="#D9D9D9" stroke-width="5"></path>
                <path id="c_10"
                    name='C-30'
                    d="M3989.5 531.25H4013.75C4018.44 531.25 4022.25 535.056 4022.25 539.75V588.25C4022.25 592.944 4018.44 596.75 4013.75 596.75H3989.5C3971.41 596.75 3956.75 582.087 3956.75 564C3956.75 545.913 3971.41 531.25 3989.5 531.25Z"
                    fill="white" stroke="#D9D9D9" stroke-width="5"></path>
                <path id="d_10"
                    name='D-30'
                    d="M3990.01 381.254H4013.75C4018.45 381.254 4022.25 385.06 4022.25 389.754V437.247C4022.25 441.941 4018.45 445.747 4013.75 445.747H3990.01C3972.2 445.747 3957.76 431.309 3957.76 413.5C3957.76 395.691 3972.2 381.254 3990.01 381.254Z"
                    fill="white" stroke="#D9D9D9" stroke-width="5"></path>
                <path id="e_10"
                    name='E-30'
                    d="M3989.5 312.25H4013.75C4018.44 312.25 4022.25 316.056 4022.25 320.75V369.25C4022.25 373.944 4018.44 377.75 4013.75 377.75H3989.5C3971.41 377.75 3956.75 363.087 3956.75 345C3956.75 326.913 3971.41 312.25 3989.5 312.25Z"
                    fill="white" stroke="#D9D9D9" stroke-width="5"></path>
                <path id="f_9"
                    name='F-30'
                    d="M3989.25 242.5H4013.5C4018.19 242.5 4022 246.306 4022 251V299.5C4022 304.194 4018.19 308 4013.5 308H3989.25C3971.16 308 3956.5 293.337 3956.5 275.25C3956.5 257.163 3971.16 242.5 3989.25 242.5Z"
                    fill="white" stroke="#D9D9D9" stroke-width="5"></path>
            </g>
            <g id="29">
                <path id="a_10"
                    name='A-29'
                    d="M3895.92 670.007H3919.67C3924.36 670.007 3928.17 673.813 3928.17 678.507V726C3928.17 730.694 3924.36 734.5 3919.67 734.5H3895.92C3878.11 734.5 3863.67 720.062 3863.67 702.253C3863.67 684.444 3878.11 670.007 3895.92 670.007Z"
                    fill="white" stroke="#D9D9D9" stroke-width="5"></path>
                <path id="b_11"
                    name='B-29'
                    d="M3895.17 601.25H3919.42C3924.11 601.25 3927.92 605.056 3927.92 609.75V658.25C3927.92 662.944 3924.11 666.75 3919.42 666.75H3895.17C3877.08 666.75 3862.42 652.087 3862.42 634C3862.42 615.913 3877.08 601.25 3895.17 601.25Z"
                    fill="white" stroke="#D9D9D9" stroke-width="5"></path>
                <path id="c_11"
                    name='C-29'
                    d="M3895.17 531.25H3919.42C3924.11 531.25 3927.92 535.056 3927.92 539.75V588.25C3927.92 592.944 3924.11 596.75 3919.42 596.75H3895.17C3877.08 596.75 3862.42 582.087 3862.42 564C3862.42 545.913 3877.08 531.25 3895.17 531.25Z"
                    fill="white" stroke="#D9D9D9" stroke-width="5"></path>
                <path id="d_11"
                    name='D-29'
                    d="M3895.67 381.254H3919.42C3924.11 381.254 3927.92 385.06 3927.92 389.754V437.247C3927.92 441.941 3924.11 445.747 3919.42 445.747H3895.67C3877.86 445.747 3863.43 431.309 3863.43 413.5C3863.43 395.691 3877.86 381.254 3895.67 381.254Z"
                    fill="white" stroke="#D9D9D9" stroke-width="5"></path>
                <path id="e_11"
                    name='E-29'
                    d="M3895.17 312.25H3919.42C3924.11 312.25 3927.92 316.056 3927.92 320.75V369.25C3927.92 373.944 3924.11 377.75 3919.42 377.75H3895.17C3877.08 377.75 3862.42 363.087 3862.42 345C3862.42 326.913 3877.08 312.25 3895.17 312.25Z"
                    fill="white" stroke="#D9D9D9" stroke-width="5"></path>
                <path id="f_10"
                    name='F-29'
                    d="M3894.91 242.5H3919.16C3923.86 242.5 3927.66 246.306 3927.66 251V299.5C3927.66 304.194 3923.86 308 3919.16 308H3894.91C3876.83 308 3862.16 293.337 3862.16 275.25C3862.16 257.163 3876.83 242.5 3894.91 242.5Z"
                    fill="white" stroke="#D9D9D9" stroke-width="5"></path>
            </g>
            <g id="28">
                <path id="a_11"
                    name='A-28'
                    d="M3801.59 670.007H3825.33C3830.03 670.007 3833.83 673.813 3833.83 678.507V726C3833.83 730.694 3830.03 734.5 3825.33 734.5H3801.59C3783.78 734.5 3769.34 720.062 3769.34 702.253C3769.34 684.444 3783.78 670.007 3801.59 670.007Z"
                    fill="white" stroke="#D9D9D9" stroke-width="5"></path>
                <path id="b_12"
                    name='B-28'
                    d="M3800.83 601.25H3825.08C3829.78 601.25 3833.58 605.056 3833.58 609.75V658.25C3833.58 662.944 3829.78 666.75 3825.08 666.75H3800.83C3782.75 666.75 3768.08 652.087 3768.08 634C3768.08 615.913 3782.75 601.25 3800.83 601.25Z"
                    fill="white" stroke="#D9D9D9" stroke-width="5"></path>
                <path id="c_12"
                    name='C-28'
                    d="M3800.83 531.25H3825.08C3829.78 531.25 3833.58 535.056 3833.58 539.75V588.25C3833.58 592.944 3829.78 596.75 3825.08 596.75H3800.83C3782.75 596.75 3768.08 582.087 3768.08 564C3768.08 545.913 3782.75 531.25 3800.83 531.25Z"
                    fill="white" stroke="#D9D9D9" stroke-width="5"></path>
                <path id="d_12"
                    name='D-28'
                    d="M3801.34 381.254H3825.09C3829.78 381.254 3833.59 385.06 3833.59 389.754V437.247C3833.59 441.941 3829.78 445.747 3825.09 445.747H3801.34C3783.53 445.747 3769.09 431.309 3769.09 413.5C3769.09 395.691 3783.53 381.254 3801.34 381.254Z"
                    fill="white" stroke="#D9D9D9" stroke-width="5"></path>
                <path id="e_12"
                    name='E-28'
                    d="M3800.83 312.25H3825.08C3829.78 312.25 3833.58 316.056 3833.58 320.75V369.25C3833.58 373.944 3829.78 377.75 3825.08 377.75H3800.83C3782.75 377.75 3768.08 363.087 3768.08 345C3768.08 326.913 3782.75 312.25 3800.83 312.25Z"
                    fill="white" stroke="#D9D9D9" stroke-width="5"></path>
                <path id="f_11"
                    name='F-28'
                    d="M3800.58 242.5H3824.83C3829.52 242.5 3833.33 246.306 3833.33 251V299.5C3833.33 304.194 3829.52 308 3824.83 308H3800.58C3782.49 308 3767.83 293.337 3767.83 275.25C3767.83 257.163 3782.49 242.5 3800.58 242.5Z"
                    fill="white" stroke="#D9D9D9" stroke-width="5"></path>
            </g>
            <g id="27">
                <path id="a_12"
                    name='A-27'
                    d="M3707.25 670.007H3731C3735.7 670.007 3739.5 673.813 3739.5 678.507V726C3739.5 730.694 3735.7 734.5 3731 734.5H3707.25C3689.45 734.5 3675.01 720.062 3675.01 702.253C3675.01 684.444 3689.45 670.007 3707.25 670.007Z"
                    fill="white" stroke="#D9D9D9" stroke-width="5"></path>
                <path id="b_13"
                    name='B-27'
                    d="M3706.5 601.25H3730.75C3735.44 601.25 3739.25 605.056 3739.25 609.75V658.25C3739.25 662.944 3735.44 666.75 3730.75 666.75H3706.5C3688.41 666.75 3673.75 652.087 3673.75 634C3673.75 615.913 3688.41 601.25 3706.5 601.25Z"
                    fill="white" stroke="#D9D9D9" stroke-width="5"></path>
                <path id="c_13"
                    name='C-27'
                    d="M3706.5 531.25H3730.75C3735.44 531.25 3739.25 535.056 3739.25 539.75V588.25C3739.25 592.944 3735.44 596.75 3730.75 596.75H3706.5C3688.41 596.75 3673.75 582.087 3673.75 564C3673.75 545.913 3688.41 531.25 3706.5 531.25Z"
                    fill="white" stroke="#D9D9D9" stroke-width="5"></path>
                <path id="d_13"
                    name='D-27'
                    d="M3707.01 381.254H3730.75C3735.45 381.254 3739.25 385.06 3739.25 389.754V437.247C3739.25 441.941 3735.45 445.747 3730.75 445.747H3707.01C3689.2 445.747 3674.76 431.309 3674.76 413.5C3674.76 395.691 3689.2 381.254 3707.01 381.254Z"
                    fill="white" stroke="#D9D9D9" stroke-width="5"></path>
                <path id="e_13"
                    name='E-27'
                    d="M3706.5 312.25H3730.75C3735.44 312.25 3739.25 316.056 3739.25 320.75V369.25C3739.25 373.944 3735.44 377.75 3730.75 377.75H3706.5C3688.41 377.75 3673.75 363.087 3673.75 345C3673.75 326.913 3688.41 312.25 3706.5 312.25Z"
                    fill="white" stroke="#D9D9D9" stroke-width="5"></path>
                <path id="f_12"
                    name='F-27'
                    d="M3706.25 242.5H3730.5C3735.19 242.5 3739 246.306 3739 251V299.5C3739 304.194 3735.19 308 3730.5 308H3706.25C3688.16 308 3673.5 293.337 3673.5 275.25C3673.5 257.163 3688.16 242.5 3706.25 242.5Z"
                    fill="white" stroke="#D9D9D9" stroke-width="5"></path>
            </g>
            <g id="26">
                <path id="a_13"
                    name='A-26'
                    d="M3612.92 670.007H3636.67C3641.36 670.007 3645.17 673.813 3645.17 678.507V726C3645.17 730.694 3641.36 734.5 3636.67 734.5H3612.92C3595.11 734.5 3580.68 720.062 3580.68 702.253C3580.68 684.444 3595.11 670.007 3612.92 670.007Z"
                    fill="white" stroke="#D9D9D9" stroke-width="5"></path>
                <path id="b_14"
                    name='B-26'
                    d="M3612.17 601.25H3636.42C3641.11 601.25 3644.92 605.056 3644.92 609.75V658.25C3644.92 662.944 3641.11 666.75 3636.42 666.75H3612.17C3594.08 666.75 3579.42 652.087 3579.42 634C3579.42 615.913 3594.08 601.25 3612.17 601.25Z"
                    fill="white" stroke="#D9D9D9" stroke-width="5"></path>
                <path id="c_14"
                    name='C-26'
                    d="M3612.17 531.25H3636.42C3641.11 531.25 3644.92 535.056 3644.92 539.75V588.25C3644.92 592.944 3641.11 596.75 3636.42 596.75H3612.17C3594.08 596.75 3579.42 582.087 3579.42 564C3579.42 545.913 3594.08 531.25 3612.17 531.25Z"
                    fill="white" stroke="#D9D9D9" stroke-width="5"></path>
                <path id="d_14"
                    name='D-26'
                    d="M3612.67 381.254H3636.42C3641.11 381.254 3644.92 385.06 3644.92 389.754V437.247C3644.92 441.941 3641.11 445.747 3636.42 445.747H3612.67C3594.86 445.747 3580.43 431.309 3580.43 413.5C3580.43 395.691 3594.86 381.254 3612.67 381.254Z"
                    fill="white" stroke="#D9D9D9" stroke-width="5"></path>
                <path id="e_14"
                    name='E-26'
                    d="M3612.17 312.25H3636.42C3641.11 312.25 3644.92 316.056 3644.92 320.75V369.25C3644.92 373.944 3641.11 377.75 3636.42 377.75H3612.17C3594.08 377.75 3579.42 363.087 3579.42 345C3579.42 326.913 3594.08 312.25 3612.17 312.25Z"
                    fill="white" stroke="#D9D9D9" stroke-width="5"></path>
                <path id="f_13"
                    name='F-26'
                    d="M3611.92 242.5H3636.17C3640.86 242.5 3644.67 246.306 3644.67 251V299.5C3644.66 304.194 3640.86 308 3636.17 308H3611.92C3593.83 308 3579.17 293.337 3579.17 275.25C3579.17 257.163 3593.83 242.5 3611.92 242.5Z"
                    fill="white" stroke="#D9D9D9" stroke-width="5"></path>
            </g>
            <g id="25">
                <path id="a_14"
                    name='A-25'
                    d="M3518.59 670.007H3542.34C3547.03 670.007 3550.84 673.813 3550.84 678.507V726C3550.84 730.694 3547.03 734.5 3542.34 734.5H3518.59C3500.78 734.5 3486.34 720.062 3486.34 702.253C3486.34 684.444 3500.78 670.007 3518.59 670.007Z"
                    fill="white" stroke="#D9D9D9" stroke-width="5"></path>
                <path id="b_15"
                    name='B-25'
                    d="M3517.83 601.25H3542.08C3546.78 601.25 3550.58 605.056 3550.58 609.75V658.25C3550.58 662.944 3546.78 666.75 3542.08 666.75H3517.83C3499.75 666.75 3485.08 652.087 3485.08 634C3485.08 615.913 3499.75 601.25 3517.83 601.25Z"
                    fill="white" stroke="#D9D9D9" stroke-width="5"></path>
                <path id="c_15"
                    name='C-25'
                    d="M3517.83 531.25H3542.08C3546.78 531.25 3550.58 535.056 3550.58 539.75V588.25C3550.58 592.944 3546.78 596.75 3542.08 596.75H3517.83C3499.75 596.75 3485.08 582.087 3485.08 564C3485.08 545.913 3499.75 531.25 3517.83 531.25Z"
                    fill="white" stroke="#D9D9D9" stroke-width="5"></path>
                <path id="d_15"
                    name='D-25'
                    d="M3518.34 381.254H3542.09C3546.78 381.254 3550.59 385.06 3550.59 389.754V437.247C3550.59 441.941 3546.78 445.747 3542.09 445.747H3518.34C3500.53 445.747 3486.09 431.309 3486.09 413.5C3486.09 395.691 3500.53 381.254 3518.34 381.254Z"
                    fill="white" stroke="#D9D9D9" stroke-width="5"></path>
                <path id="e_15"
                    name='E-25'
                    d="M3517.83 312.25H3542.08C3546.78 312.25 3550.58 316.056 3550.58 320.75V369.25C3550.58 373.944 3546.78 377.75 3542.08 377.75H3517.83C3499.75 377.75 3485.08 363.087 3485.08 345C3485.08 326.913 3499.75 312.25 3517.83 312.25Z"
                    fill="white" stroke="#D9D9D9" stroke-width="5"></path>
                <path id="f_14"
                    name='F-25'
                    d="M3517.58 242.5H3541.83C3546.53 242.5 3550.33 246.306 3550.33 251V299.5C3550.33 304.194 3546.53 308 3541.83 308H3517.58C3499.49 308 3484.83 293.337 3484.83 275.25C3484.83 257.163 3499.49 242.5 3517.58 242.5Z"
                    fill="white" stroke="#D9D9D9" stroke-width="5"></path>
            </g>
            <g id="24">
                <path id="a_15"
                    name='A-24'
                    d="M3424.26 670.007H3448C3452.7 670.007 3456.5 673.813 3456.5 678.507V726C3456.5 730.694 3452.7 734.5 3448 734.5H3424.26C3406.45 734.5 3392.01 720.062 3392.01 702.253C3392.01 684.444 3406.45 670.007 3424.26 670.007Z"
                    fill="white" stroke="#D9D9D9" stroke-width="5"></path>
                <path id="b_16"
                    name='B-24'
                    d="M3423.5 601.25H3447.75C3452.45 601.25 3456.25 605.056 3456.25 609.75V658.25C3456.25 662.944 3452.45 666.75 3447.75 666.75H3423.5C3405.41 666.75 3390.75 652.087 3390.75 634C3390.75 615.913 3405.41 601.25 3423.5 601.25Z"
                    fill="white" stroke="#D9D9D9" stroke-width="5"></path>
                <path id="c_16"
                    name='C-24'
                    d="M3423.5 531.25H3447.75C3452.45 531.25 3456.25 535.056 3456.25 539.75V588.25C3456.25 592.944 3452.45 596.75 3447.75 596.75H3423.5C3405.41 596.75 3390.75 582.087 3390.75 564C3390.75 545.913 3405.41 531.25 3423.5 531.25Z"
                    fill="white" stroke="#D9D9D9" stroke-width="5"></path>
                <path id="d_16"
                    name='D-24'
                    d="M3424.01 381.254H3447.75C3452.45 381.254 3456.25 385.06 3456.25 389.754V437.247C3456.25 441.941 3452.45 445.747 3447.75 445.747H3424.01C3406.2 445.747 3391.76 431.309 3391.76 413.5C3391.76 395.691 3406.2 381.254 3424.01 381.254Z"
                    fill="white" stroke="#D9D9D9" stroke-width="5"></path>
                <path id="e_16"
                    name='E-24'
                    d="M3423.5 312.25H3447.75C3452.45 312.25 3456.25 316.056 3456.25 320.75V369.25C3456.25 373.944 3452.45 377.75 3447.75 377.75H3423.5C3405.41 377.75 3390.75 363.087 3390.75 345C3390.75 326.913 3405.41 312.25 3423.5 312.25Z"
                    fill="white" stroke="#D9D9D9" stroke-width="5"></path>
                <path id="f_15"
                    name='F-24'
                    d="M3423.25 242.5H3447.5C3452.19 242.5 3456 246.306 3456 251V299.5C3456 304.194 3452.19 308 3447.5 308H3423.25C3405.16 308 3390.5 293.337 3390.5 275.25C3390.5 257.163 3405.16 242.5 3423.25 242.5Z"
                    fill="white" stroke="#D9D9D9" stroke-width="5"></path>
            </g>
            <g id="23">
                <path id="a_16"
                    name='A-23'
                    d="M3329.92 670.007H3353.67C3358.36 670.007 3362.17 673.813 3362.17 678.507V726C3362.17 730.694 3358.36 734.5 3353.67 734.5H3329.92C3312.11 734.5 3297.68 720.062 3297.68 702.253C3297.68 684.444 3312.11 670.007 3329.92 670.007Z"
                    fill="white" stroke="#D9D9D9" stroke-width="5"></path>
                <path id="b_17"
                    name='B-23'
                    d="M3329.17 601.25H3353.42C3358.11 601.25 3361.92 605.056 3361.92 609.75V658.25C3361.92 662.944 3358.11 666.75 3353.42 666.75H3329.17C3311.08 666.75 3296.42 652.087 3296.42 634C3296.42 615.913 3311.08 601.25 3329.17 601.25Z"
                    fill="white" stroke="#D9D9D9" stroke-width="5"></path>
                <path id="c_17"
                    name='C-23'
                    d="M3329.17 531.25H3353.42C3358.11 531.25 3361.92 535.056 3361.92 539.75V588.25C3361.92 592.944 3358.11 596.75 3353.42 596.75H3329.17C3311.08 596.75 3296.42 582.087 3296.42 564C3296.42 545.913 3311.08 531.25 3329.17 531.25Z"
                    fill="white" stroke="#D9D9D9" stroke-width="5"></path>
                <path id="d_17"
                    name='D-23'
                    d="M3329.67 381.254H3353.42C3358.12 381.254 3361.92 385.06 3361.92 389.754V437.247C3361.92 441.941 3358.12 445.747 3353.42 445.747H3329.67C3311.87 445.747 3297.43 431.309 3297.43 413.5C3297.43 395.691 3311.87 381.254 3329.67 381.254Z"
                    fill="white" stroke="#D9D9D9" stroke-width="5"></path>
                <path id="e_17"
                    name='E-23'
                    d="M3329.17 312.25H3353.42C3358.11 312.25 3361.92 316.056 3361.92 320.75V369.25C3361.92 373.944 3358.11 377.75 3353.42 377.75H3329.17C3311.08 377.75 3296.42 363.087 3296.42 345C3296.42 326.913 3311.08 312.25 3329.17 312.25Z"
                    fill="white" stroke="#D9D9D9" stroke-width="5"></path>
                <path id="f_16"
                    name='F-23'
                    d="M3328.92 242.5H3353.17C3357.86 242.5 3361.67 246.306 3361.67 251V299.5C3361.67 304.194 3357.86 308 3353.17 308H3328.92C3310.83 308 3296.17 293.337 3296.17 275.25C3296.17 257.163 3310.83 242.5 3328.92 242.5Z"
                    fill="white" stroke="#D9D9D9" stroke-width="5"></path>
            </g>
            <g id="22">
                <path id="a_22"
                    name='A-22'
                    d="M3235.59 666.007H3259.34C3264.03 666.007 3267.84 669.813 3267.84 674.507V722C3267.84 726.694 3264.03 730.5 3259.34 730.5H3235.59C3217.78 730.5 3203.34 716.062 3203.34 698.253C3203.34 680.444 3217.78 666.007 3235.59 666.007Z"
                    fill="white" stroke="#D9D9D9" stroke-width="5"></path>
                <path id="b_22"
                    name='B-22'
                    d="M3234.83 597.25H3259.08C3263.78 597.25 3267.58 601.056 3267.58 605.75V654.25C3267.58 658.944 3263.78 662.75 3259.08 662.75H3234.83C3216.75 662.75 3202.08 648.087 3202.08 630C3202.08 611.913 3216.75 597.25 3234.83 597.25Z"
                    fill="white" stroke="#D9D9D9" stroke-width="5"></path>
                <path id="c_22"
                    name='C-22'
                    d="M3234.83 527.25H3259.08C3263.78 527.25 3267.58 531.056 3267.58 535.75V584.25C3267.58 588.944 3263.78 592.75 3259.08 592.75H3234.83C3216.75 592.75 3202.08 578.087 3202.08 560C3202.08 541.913 3216.75 527.25 3234.83 527.25Z"
                    fill="white" stroke="#D9D9D9" stroke-width="5"></path>
                <path id="d_22"
                    name='D-22'
                    d="M3235.34 377.254H3259.09C3263.78 377.254 3267.59 381.06 3267.59 385.754V433.247C3267.59 437.941 3263.78 441.747 3259.09 441.747H3235.34C3217.53 441.747 3203.1 427.309 3203.1 409.5C3203.1 391.691 3217.53 377.254 3235.34 377.254Z"
                    fill="white" stroke="#D9D9D9" stroke-width="5"></path>
                <path id="e_22"
                    name='E-22'
                    d="M3234.83 308.25H3259.08C3263.78 308.25 3267.58 312.056 3267.58 316.75V365.25C3267.58 369.944 3263.78 373.75 3259.08 373.75H3234.83C3216.75 373.75 3202.08 359.087 3202.08 341C3202.08 322.913 3216.75 308.25 3234.83 308.25Z"
                    fill="white" stroke="#D9D9D9" stroke-width="5"></path>
                <path id="f_22"
                    name='F-22'
                    d="M3234.58 238.5H3258.83C3263.53 238.5 3267.33 242.306 3267.33 247V295.5C3267.33 300.194 3263.53 304 3258.83 304H3234.58C3216.5 304 3201.83 289.337 3201.83 271.25C3201.83 253.163 3216.5 238.5 3234.58 238.5Z"
                    fill="white" stroke="#D9D9D9" stroke-width="5"></path>
            </g>
            <g id="21">
                <path id="a_21"
                    name='A-21'
                    d="M3141.26 662.007H3165C3169.7 662.007 3173.5 665.813 3173.5 670.507V718C3173.5 722.694 3169.7 726.5 3165 726.5H3141.26C3123.45 726.5 3109.01 712.062 3109.01 694.253C3109.01 676.444 3123.45 662.007 3141.26 662.007Z"
                    fill="white" stroke="#D9D9D9" stroke-width="5"></path>
                <path id="b_21"
                    name='B-21'
                    d="M3140.5 593.25H3164.75C3169.45 593.25 3173.25 597.056 3173.25 601.75V650.25C3173.25 654.944 3169.45 658.75 3164.75 658.75H3140.5C3122.41 658.75 3107.75 644.087 3107.75 626C3107.75 607.913 3122.41 593.25 3140.5 593.25Z"
                    fill="white" stroke="#D9D9D9" stroke-width="5"></path>
                <path id="c_21"
                    name='C-21'
                    d="M3140.5 523.25H3164.75C3169.45 523.25 3173.25 527.056 3173.25 531.75V580.25C3173.25 584.944 3169.45 588.75 3164.75 588.75H3140.5C3122.41 588.75 3107.75 574.087 3107.75 556C3107.75 537.913 3122.41 523.25 3140.5 523.25Z"
                    fill="white" stroke="#D9D9D9" stroke-width="5"></path>
                <path id="d_21"
                    name='D-21'
                    d="M3141.01 373.254H3164.76C3169.45 373.254 3173.26 377.06 3173.26 381.754V429.247C3173.26 433.941 3169.45 437.747 3164.76 437.747H3141.01C3123.2 437.747 3108.76 423.309 3108.76 405.5C3108.76 387.691 3123.2 373.254 3141.01 373.254Z"
                    fill="white" stroke="#D9D9D9" stroke-width="5"></path>
                <path id="e_21"
                    name='E-21'
                    d="M3140.5 304.25H3164.75C3169.45 304.25 3173.25 308.056 3173.25 312.75V361.25C3173.25 365.944 3169.45 369.75 3164.75 369.75H3140.5C3122.41 369.75 3107.75 355.087 3107.75 337C3107.75 318.913 3122.41 304.25 3140.5 304.25Z"
                    fill="white" stroke="#D9D9D9" stroke-width="5"></path>
                <path id="f_21"
                    name='F-21'
                    d="M3140.25 234.5H3164.5C3169.19 234.5 3173 238.306 3173 243V291.5C3173 296.194 3169.19 300 3164.5 300H3140.25C3122.16 300 3107.5 285.337 3107.5 267.25C3107.5 249.163 3122.16 234.5 3140.25 234.5Z"
                    fill="white" stroke="#D9D9D9" stroke-width="5"></path>
            </g>
            <g id="20">
                <path id="a_20"
                    name='A-20'
                    d="M2972.5 662.5H2996C3000.69 662.5 3004.5 666.306 3004.5 671V718C3004.5 722.694 3000.69 726.5 2996 726.5H2972.5C2954.83 726.5 2940.5 712.173 2940.5 694.5C2940.5 676.827 2954.83 662.5 2972.5 662.5Z"
                    fill="white" stroke="#D9D9D9" stroke-width="5"></path>
                <path id="b_20"
                    name='B-20'
                    d="M2972 593.5H2996C3000.69 593.5 3004.5 597.306 3004.5 602V650C3004.5 654.694 3000.69 658.5 2996 658.5H2972C2954.05 658.5 2939.5 643.949 2939.5 626C2939.5 608.051 2954.05 593.5 2972 593.5Z"
                    fill="white" stroke="#D9D9D9" stroke-width="5"></path>
                <path id="c_20"
                    name='C-20'
                    d="M2972 523.5H2996C3000.69 523.5 3004.5 527.306 3004.5 532V580C3004.5 584.694 3000.69 588.5 2996 588.5H2972C2954.05 588.5 2939.5 573.949 2939.5 556C2939.5 538.051 2954.05 523.5 2972 523.5Z"
                    fill="white" stroke="#D9D9D9" stroke-width="5"></path>
                <path id="d_20"
                    name='D-20'
                    d="M2972.5 373.5H2996C3000.69 373.5 3004.5 377.306 3004.5 382V429C3004.5 433.694 3000.69 437.5 2996 437.5H2972.5C2954.83 437.5 2940.5 423.173 2940.5 405.5C2940.5 387.827 2954.83 373.5 2972.5 373.5Z"
                    fill="white" stroke="#D9D9D9" stroke-width="5"></path>
                <path id="e_20"
                    name='E-20'
                    d="M2972 304.5H2996C3000.69 304.5 3004.5 308.306 3004.5 313V361C3004.5 365.694 3000.69 369.5 2996 369.5H2972C2954.05 369.5 2939.5 354.949 2939.5 337C2939.5 319.051 2954.05 304.5 2972 304.5Z"
                    fill="white" stroke="#D9D9D9" stroke-width="5"></path>
                <path id="f_19"
                    name='F-20'
                    d="M2972 234.5H2996C3000.69 234.5 3004.5 238.306 3004.5 243V291C3004.5 295.694 3000.69 299.5 2996 299.5H2972C2954.05 299.5 2939.5 284.949 2939.5 267C2939.5 249.051 2954.05 234.5 2972 234.5Z"
                    fill="white" stroke="#D9D9D9" stroke-width="5"></path>
            </g>
            <g id="19" opacity="0.1">
                <path id="a_19"
                    name='A-19'
                    d="M2809.5 662.5H2833C2837.69 662.5 2841.5 666.306 2841.5 671V718C2841.5 722.694 2837.69 726.5 2833 726.5H2809.5C2791.83 726.5 2777.5 712.173 2777.5 694.5C2777.5 676.827 2791.83 662.5 2809.5 662.5Z"
                    fill="white" opacity='1' stroke="#D9D9D9" stroke-width="5"></path>
                <path id="b_19"
                    name='B-19'
                    d="M2809 593.5H2833C2837.69 593.5 2841.5 597.306 2841.5 602V650C2841.5 654.694 2837.69 658.5 2833 658.5H2809C2791.05 658.5 2776.5 643.949 2776.5 626C2776.5 608.051 2791.05 593.5 2809 593.5Z"
                    fill="white" opacity='1' stroke="#D9D9D9" stroke-width="5"></path>
                <path id="c_19"
                    name='C-19'
                    d="M2809 523.5H2833C2837.69 523.5 2841.5 527.306 2841.5 532V580C2841.5 584.694 2837.69 588.5 2833 588.5H2809C2791.05 588.5 2776.5 573.949 2776.5 556C2776.5 538.051 2791.05 523.5 2809 523.5Z"
                    fill="white" opacity='1' stroke="#D9D9D9" stroke-width="5"></path>
                <path id="d_19"
                    name='D-19'
                    d="M2809.5 373.5H2833C2837.69 373.5 2841.5 377.306 2841.5 382V429C2841.5 433.694 2837.69 437.5 2833 437.5H2809.5C2791.83 437.5 2777.5 423.173 2777.5 405.5C2777.5 387.827 2791.83 373.5 2809.5 373.5Z"
                    fill="white" opacity='1' stroke="#D9D9D9" stroke-width="5"></path>
                <path id="e_19"
                    name='E-19'
                    d="M2809 304.5H2833C2837.69 304.5 2841.5 308.306 2841.5 313V361C2841.5 365.694 2837.69 369.5 2833 369.5H2809C2791.05 369.5 2776.5 354.949 2776.5 337C2776.5 319.051 2791.05 304.5 2809 304.5Z"
                    fill="white" opacity='1' stroke="#D9D9D9" stroke-width="5"></path>
                <path id="f_19"
                    name='F-19'
                    d="M2809 234.5H2833C2837.69 234.5 2841.5 238.306 2841.5 243V291C2841.5 295.694 2837.69 299.5 2833 299.5H2809C2791.05 299.5 2776.5 284.949 2776.5 267C2776.5 249.051 2791.05 234.5 2809 234.5Z"
                    fill="white" opacity='1' stroke="#D9D9D9" stroke-width="5"></path>
            </g>
            <g id="18">
                <path id="a_18"
                    name='A-18'
                    d="M2717.5 662.5H2741C2745.69 662.5 2749.5 666.306 2749.5 671V718C2749.5 722.694 2745.69 726.5 2741 726.5H2717.5C2699.83 726.5 2685.5 712.173 2685.5 694.5C2685.5 676.827 2699.83 662.5 2717.5 662.5Z"
                    fill="white" stroke="#D9D9D9" stroke-width="5"></path>
                <path id="b_18"
                    name='B-18'
                    d="M2717 593.5H2741C2745.69 593.5 2749.5 597.306 2749.5 602V650C2749.5 654.694 2745.69 658.5 2741 658.5H2717C2699.05 658.5 2684.5 643.949 2684.5 626C2684.5 608.051 2699.05 593.5 2717 593.5Z"
                    fill="white" stroke="#D9D9D9" stroke-width="5"></path>
                <path id="c_18"
                    name='C-18'
                    d="M2717 523.5H2741C2745.69 523.5 2749.5 527.306 2749.5 532V580C2749.5 584.694 2745.69 588.5 2741 588.5H2717C2699.05 588.5 2684.5 573.949 2684.5 556C2684.5 538.051 2699.05 523.5 2717 523.5Z"
                    fill="white" stroke="#D9D9D9" stroke-width="5"></path>
                <path id="d_18"
                    name='D-18'
                    d="M2717.5 373.5H2741C2745.69 373.5 2749.5 377.306 2749.5 382V429C2749.5 433.694 2745.69 437.5 2741 437.5H2717.5C2699.83 437.5 2685.5 423.173 2685.5 405.5C2685.5 387.827 2699.83 373.5 2717.5 373.5Z"
                    fill="white" stroke="#D9D9D9" stroke-width="5"></path>
                <path id="e_18"
                    name='E-18'
                    d="M2717 304.5H2741C2745.69 304.5 2749.5 308.306 2749.5 313V361C2749.5 365.694 2745.69 369.5 2741 369.5H2717C2699.05 369.5 2684.5 354.949 2684.5 337C2684.5 319.051 2699.05 304.5 2717 304.5Z"
                    fill="white" stroke="#D9D9D9" stroke-width="5"></path>
                <path id="f_18"
                    name='F-18'
                    d="M2717 234.5H2741C2745.69 234.5 2749.5 238.306 2749.5 243V291C2749.5 295.694 2745.69 299.5 2741 299.5H2717C2699.05 299.5 2684.5 284.949 2684.5 267C2684.5 249.051 2699.05 234.5 2717 234.5Z"
                    fill="white" stroke="#D9D9D9" stroke-width="5"></path>
            </g>
            <g id="17">
                <path id="a_17"
                    name='A-17'
                    d="M2625.5 662.5H2649C2653.69 662.5 2657.5 666.306 2657.5 671V718C2657.5 722.694 2653.69 726.5 2649 726.5H2625.5C2607.83 726.5 2593.5 712.173 2593.5 694.5C2593.5 676.827 2607.83 662.5 2625.5 662.5Z"
                    fill="white" stroke="#D9D9D9" stroke-width="5"></path>
                <path id="b_17"
                    name='B-17'
                    d="M2625 593.5H2649C2653.69 593.5 2657.5 597.306 2657.5 602V650C2657.5 654.694 2653.69 658.5 2649 658.5H2625C2607.05 658.5 2592.5 643.949 2592.5 626C2592.5 608.051 2607.05 593.5 2625 593.5Z"
                    fill="white" stroke="#D9D9D9" stroke-width="5"></path>
                <path id="c_17"
                    name='C-17'
                    d="M2625 523.5H2649C2653.69 523.5 2657.5 527.306 2657.5 532V580C2657.5 584.694 2653.69 588.5 2649 588.5H2625C2607.05 588.5 2592.5 573.949 2592.5 556C2592.5 538.051 2607.05 523.5 2625 523.5Z"
                    fill="white" stroke="#D9D9D9" stroke-width="5"></path>
                <path id="d_17"
                    name='D-17'
                    d="M2625.5 373.5H2649C2653.69 373.5 2657.5 377.306 2657.5 382V429C2657.5 433.694 2653.69 437.5 2649 437.5H2625.5C2607.83 437.5 2593.5 423.173 2593.5 405.5C2593.5 387.827 2607.83 373.5 2625.5 373.5Z"
                    fill="white" stroke="#D9D9D9" stroke-width="5"></path>
                <path id="e_17"
                    name='E-17'
                    d="M2625 304.5H2649C2653.69 304.5 2657.5 308.306 2657.5 313V361C2657.5 365.694 2653.69 369.5 2649 369.5H2625C2607.05 369.5 2592.5 354.949 2592.5 337C2592.5 319.051 2607.05 304.5 2625 304.5Z"
                    fill="white" stroke="#D9D9D9" stroke-width="5"></path>
                <path id="f_17"
                    name='F-17'
                    d="M2625 234.5H2649C2653.69 234.5 2657.5 238.306 2657.5 243V291C2657.5 295.694 2653.69 299.5 2649 299.5H2625C2607.05 299.5 2592.5 284.949 2592.5 267C2592.5 249.051 2607.05 234.5 2625 234.5Z"
                    fill="white" stroke="#D9D9D9" stroke-width="5"></path>
            </g>
            <g id="16" opacity="0.1">
                <path id="a_16"
                    name='A-16'
                    d="M2533.5 662.5H2557C2561.69 662.5 2565.5 666.306 2565.5 671V718C2565.5 722.694 2561.69 726.5 2557 726.5H2533.5C2515.83 726.5 2501.5 712.173 2501.5 694.5C2501.5 676.827 2515.83 662.5 2533.5 662.5Z"
                    fill="white" opacity='1' stroke="#D9D9D9" stroke-width="5"></path>
                <path id="b_16"
                    name='B-16'
                    d="M2533 593.5H2557C2561.69 593.5 2565.5 597.306 2565.5 602V650C2565.5 654.694 2561.69 658.5 2557 658.5H2533C2515.05 658.5 2500.5 643.949 2500.5 626C2500.5 608.051 2515.05 593.5 2533 593.5Z"
                    fill="white" opacity='1' stroke="#D9D9D9" stroke-width="5"></path>
                <path id="c_16"
                    name='C-16'
                    d="M2533 523.5H2557C2561.69 523.5 2565.5 527.306 2565.5 532V580C2565.5 584.694 2561.69 588.5 2557 588.5H2533C2515.05 588.5 2500.5 573.949 2500.5 556C2500.5 538.051 2515.05 523.5 2533 523.5Z"
                    fill="white" opacity='1' stroke="#D9D9D9" stroke-width="5"></path>
                <path id="d_16"
                    name='D-16'
                    d="M2533.5 373.5H2557C2561.69 373.5 2565.5 377.306 2565.5 382V429C2565.5 433.694 2561.69 437.5 2557 437.5H2533.5C2515.83 437.5 2501.5 423.173 2501.5 405.5C2501.5 387.827 2515.83 373.5 2533.5 373.5Z"
                    fill="white" opacity='1' stroke="#D9D9D9" stroke-width="5"></path>
                <path id="e_16"
                    name='E-16'
                    d="M2533 304.5H2557C2561.69 304.5 2565.5 308.306 2565.5 313V361C2565.5 365.694 2561.69 369.5 2557 369.5H2533C2515.05 369.5 2500.5 354.949 2500.5 337C2500.5 319.051 2515.05 304.5 2533 304.5Z"
                    fill="white" opacity='1' stroke="#D9D9D9" stroke-width="5"></path>
                <path id="f_16"
                    name='F-16'
                    d="M2533 234.5H2557C2561.69 234.5 2565.5 238.306 2565.5 243V291C2565.5 295.694 2561.69 299.5 2557 299.5H2533C2515.05 299.5 2500.5 284.949 2500.5 267C2500.5 249.051 2515.05 234.5 2533 234.5Z"
                    fill="white" opacity='1' stroke="#D9D9D9" stroke-width="5"></path>
            </g>

            <g id="15">
                <path id="a_15"
                    name='A-15'
                    d="M2441.5 662.5H2465C2469.69 662.5 2473.5 666.306 2473.5 671V718C2473.5 722.694 2469.69 726.5 2465 726.5H2441.5C2423.83 726.5 2409.5 712.173 2409.5 694.5C2409.5 676.827 2423.83 662.5 2441.5 662.5Z"
                    fill="white" stroke="#D9D9D9" stroke-width="5"></path>
                <path id="b_15"
                    name='B-15'
                    d="M2441 593.5H2465C2469.69 593.5 2473.5 597.306 2473.5 602V650C2473.5 654.694 2469.69 658.5 2465 658.5H2441C2423.05 658.5 2408.5 643.949 2408.5 626C2408.5 608.051 2423.05 593.5 2441 593.5Z"
                    fill="white" stroke="#D9D9D9" stroke-width="5"></path>
                <path id="c_15"
                    name='C-15'
                    d="M2441 523.5H2465C2469.69 523.5 2473.5 527.306 2473.5 532V580C2473.5 584.694 2469.69 588.5 2465 588.5H2441C2423.05 588.5 2408.5 573.949 2408.5 556C2408.5 538.051 2423.05 523.5 2441 523.5Z"
                    fill="white" stroke="#D9D9D9" stroke-width="5"></path>
                <path id="d_15"
                    name='D-15'
                    d="M2441.5 373.5H2465C2469.69 373.5 2473.5 377.306 2473.5 382V429C2473.5 433.694 2469.69 437.5 2465 437.5H2441.5C2423.83 437.5 2409.5 423.173 2409.5 405.5C2409.5 387.827 2423.83 373.5 2441.5 373.5Z"
                    fill="white" stroke="#D9D9D9" stroke-width="5"></path>
                <path id="e_15"
                    name='E-15'
                    d="M2441 304.5H2465C2469.69 304.5 2473.5 308.306 2473.5 313V361C2473.5 365.694 2469.69 369.5 2465 369.5H2441C2423.05 369.5 2408.5 354.949 2408.5 337C2408.5 319.051 2423.05 304.5 2441 304.5Z"
                    fill="white" stroke="#D9D9D9" stroke-width="5"></path>
                <path id="f_15"
                    name='F-15'
                    d="M2441 234.5H2465C2469.69 234.5 2473.5 238.306 2473.5 243V291C2473.5 295.694 2469.69 299.5 2465 299.5H2441C2423.05 299.5 2408.5 284.949 2408.5 267C2408.5 249.051 2423.05 234.5 2441 234.5Z"
                    fill="white" stroke="#D9D9D9" stroke-width="5"></path>
            </g>
            <g id="12">
                <path id="a_12"
                    name='A-12'
                    d="M2349.5 662.5H2373C2377.69 662.5 2381.5 666.306 2381.5 671V718C2381.5 722.694 2377.69 726.5 2373 726.5H2349.5C2331.83 726.5 2317.5 712.173 2317.5 694.5C2317.5 676.827 2331.83 662.5 2349.5 662.5Z"
                    fill="white" stroke="#D9D9D9" stroke-width="5"></path>
                <path id="b_12"
                    name='B-12'
                    d="M2349 593.5H2373C2377.69 593.5 2381.5 597.306 2381.5 602V650C2381.5 654.694 2377.69 658.5 2373 658.5H2349C2331.05 658.5 2316.5 643.949 2316.5 626C2316.5 608.051 2331.05 593.5 2349 593.5Z"
                    fill="white" stroke="#D9D9D9" stroke-width="5"></path>
                <path id="c_12"
                    name='C-12'
                    d="M2349 523.5H2373C2377.69 523.5 2381.5 527.306 2381.5 532V580C2381.5 584.694 2377.69 588.5 2373 588.5H2349C2331.05 588.5 2316.5 573.949 2316.5 556C2316.5 538.051 2331.05 523.5 2349 523.5Z"
                    fill="white" stroke="#D9D9D9" stroke-width="5"></path>
                <path id="d_12"
                    name='D-12'
                    d="M2349.5 373.5H2373C2377.69 373.5 2381.5 377.306 2381.5 382V429C2381.5 433.694 2377.69 437.5 2373 437.5H2349.5C2331.83 437.5 2317.5 423.173 2317.5 405.5C2317.5 387.827 2331.83 373.5 2349.5 373.5Z"
                    fill="white" stroke="#D9D9D9" stroke-width="5"></path>
                <path id="e_12"
                    name='E-12'
                    d="M2349 304.5H2373C2377.69 304.5 2381.5 308.306 2381.5 313V361C2381.5 365.694 2377.69 369.5 2373 369.5H2349C2331.05 369.5 2316.5 354.949 2316.5 337C2316.5 319.051 2331.05 304.5 2349 304.5Z"
                    fill="white" stroke="#D9D9D9" stroke-width="5"></path>
                <path id="f_12"
                    name='F-12'
                    d="M2349 234.5H2373C2377.69 234.5 2381.5 238.306 2381.5 243V291C2381.5 295.694 2377.69 299.5 2373 299.5H2349C2331.05 299.5 2316.5 284.949 2316.5 267C2316.5 249.051 2331.05 234.5 2349 234.5Z"
                    fill="white" stroke="#D9D9D9" stroke-width="5"></path>
            </g>
            <g id="11">
                <path id="a_11"
                    name='A-11'
                    d="M2257.5 662.5H2281C2285.69 662.5 2289.5 666.306 2289.5 671V718C2289.5 722.694 2285.69 726.5 2281 726.5H2257.5C2239.83 726.5 2225.5 712.173 2225.5 694.5C2225.5 676.827 2239.83 662.5 2257.5 662.5Z"
                    fill="white" stroke="#D9D9D9" stroke-width="5"></path>
                <path id="b_11"
                    name='B-11'
                    d="M2257 593.5H2281C2285.69 593.5 2289.5 597.306 2289.5 602V650C2289.5 654.694 2285.69 658.5 2281 658.5H2257C2239.05 658.5 2224.5 643.949 2224.5 626C2224.5 608.051 2239.05 593.5 2257 593.5Z"
                    fill="white" stroke="#D9D9D9" stroke-width="5"></path>
                <path id="c_11"
                    name='C-11'
                    d="M2257 523.5H2281C2285.69 523.5 2289.5 527.306 2289.5 532V580C2289.5 584.694 2285.69 588.5 2281 588.5H2257C2239.05 588.5 2224.5 573.949 2224.5 556C2224.5 538.051 2239.05 523.5 2257 523.5Z"
                    fill="white" stroke="#D9D9D9" stroke-width="5"></path>
                <path id="e_11"
                    name='E-11'
                    d="M2257 304.5H2281C2285.69 304.5 2289.5 308.306 2289.5 313V361C2289.5 365.694 2285.69 369.5 2281 369.5H2257C2239.05 369.5 2224.5 354.949 2224.5 337C2224.5 319.051 2239.05 304.5 2257 304.5Z"
                    fill="white" stroke="#D9D9D9" stroke-width="5"></path>
                <path id="f_11"
                    name='F-11'
                    d="M2257 234.5H2281C2285.69 234.5 2289.5 238.306 2289.5 243V291C2289.5 295.694 2285.69 299.5 2281 299.5H2257C2239.05 299.5 2224.5 284.949 2224.5 267C2224.5 249.051 2239.05 234.5 2257 234.5Z"
                    fill="white" stroke="#D9D9D9" stroke-width="5"></path>
            </g>
            <g id="10">
                <path id="a_10"
                    name='A-10'
                    d="M2165.5 662.5H2189C2193.69 662.5 2197.5 666.306 2197.5 671V718C2197.5 722.694 2193.69 726.5 2189 726.5H2165.5C2147.83 726.5 2133.5 712.173 2133.5 694.5C2133.5 676.827 2147.83 662.5 2165.5 662.5Z"
                    fill="white" stroke="#D9D9D9" stroke-width="5"></path>
                <path id="b_10"
                    name='B-10'
                    d="M2165 593.5H2189C2193.69 593.5 2197.5 597.306 2197.5 602V650C2197.5 654.694 2193.69 658.5 2189 658.5H2165C2147.05 658.5 2132.5 643.949 2132.5 626C2132.5 608.051 2147.05 593.5 2165 593.5Z"
                    fill="white" stroke="#D9D9D9" stroke-width="5"></path>
                <path id="c_10"
                    name='C-10'
                    d="M2165 523.5H2189C2193.69 523.5 2197.5 527.306 2197.5 532V580C2197.5 584.694 2193.69 588.5 2189 588.5H2165C2147.05 588.5 2132.5 573.949 2132.5 556C2132.5 538.051 2147.05 523.5 2165 523.5Z"
                    fill="white" stroke="#D9D9D9" stroke-width="5"></path>
                <path id="d_10"
                    name='D-10'
                    d="M2165.5 373.5H2189C2193.69 373.5 2197.5 377.306 2197.5 382V429C2197.5 433.694 2193.69 437.5 2189 437.5H2165.5C2147.83 437.5 2133.5 423.173 2133.5 405.5C2133.5 387.827 2147.83 373.5 2165.5 373.5Z"
                    fill="white" stroke="#D9D9D9" stroke-width="5"></path>
                <path id="e_10"
                    name='E-10'
                    d="M2165 304.5H2189C2193.69 304.5 2197.5 308.306 2197.5 313V361C2197.5 365.694 2193.69 369.5 2189 369.5H2165C2147.05 369.5 2132.5 354.949 2132.5 337C2132.5 319.051 2147.05 304.5 2165 304.5Z"
                    fill="white" stroke="#D9D9D9" stroke-width="5"></path>
                <path id="f_10"
                    name='F-10'
                    d="M2165 234.5H2189C2193.69 234.5 2197.5 238.306 2197.5 243V291C2197.5 295.694 2193.69 299.5 2189 299.5H2165C2147.05 299.5 2132.5 284.949 2132.5 267C2132.5 249.051 2147.05 234.5 2165 234.5Z"
                    fill="white" stroke="#D9D9D9" stroke-width="5"></path>
            </g>
            <g id="9">
                <path id="a_9"
                    name='A-9'
                    d="M2073.5 662.5H2097C2101.69 662.5 2105.5 666.306 2105.5 671V718C2105.5 722.694 2101.69 726.5 2097 726.5H2073.5C2055.83 726.5 2041.5 712.173 2041.5 694.5C2041.5 676.827 2055.83 662.5 2073.5 662.5Z"
                    fill="white" stroke="#D9D9D9" stroke-width="5"></path>
                <path id="b_9"
                    name='B-9'
                    d="M2073 593.5H2097C2101.69 593.5 2105.5 597.306 2105.5 602V650C2105.5 654.694 2101.69 658.5 2097 658.5H2073C2055.05 658.5 2040.5 643.949 2040.5 626C2040.5 608.051 2055.05 593.5 2073 593.5Z"
                    fill="white" stroke="#D9D9D9" stroke-width="5"></path>
                <path id="c_9"
                    name='C-9'
                    d="M2073 523.5H2097C2101.69 523.5 2105.5 527.306 2105.5 532V580C2105.5 584.694 2101.69 588.5 2097 588.5H2073C2055.05 588.5 2040.5 573.949 2040.5 556C2040.5 538.051 2055.05 523.5 2073 523.5Z"
                    fill="white" stroke="#D9D9D9" stroke-width="5"></path>
                <path id="d_9"
                    name='D-9'
                    d="M2073.5 373.5H2097C2101.69 373.5 2105.5 377.306 2105.5 382V429C2105.5 433.694 2101.69 437.5 2097 437.5H2073.5C2055.83 437.5 2041.5 423.173 2041.5 405.5C2041.5 387.827 2055.83 373.5 2073.5 373.5Z"
                    fill="white" stroke="#D9D9D9" stroke-width="5"></path>
                <path id="e_9"
                    name='E-9'
                    d="M2073 304.5H2097C2101.69 304.5 2105.5 308.306 2105.5 313V361C2105.5 365.694 2101.69 369.5 2097 369.5H2073C2055.05 369.5 2040.5 354.949 2040.5 337C2040.5 319.051 2055.05 304.5 2073 304.5Z"
                    fill="white" stroke="#D9D9D9" stroke-width="5"></path>
                <path id="f_9"
                    name='F-9'
                    d="M2073 234.5H2097C2101.69 234.5 2105.5 238.306 2105.5 243V291C2105.5 295.694 2101.69 299.5 2097 299.5H2073C2055.05 299.5 2040.5 284.949 2040.5 267C2040.5 249.051 2055.05 234.5 2073 234.5Z"
                    fill="white" stroke="#D9D9D9" stroke-width="5"></path>
            </g>
            <g id="8">
                <path id="a_8"
                    name='A-8'
                    d="M1981.5 662.5H2005C2009.69 662.5 2013.5 666.306 2013.5 671V718C2013.5 722.694 2009.69 726.5 2005 726.5H1981.5C1963.83 726.5 1949.5 712.173 1949.5 694.5C1949.5 676.827 1963.83 662.5 1981.5 662.5Z"
                    fill="white" stroke="#D9D9D9" stroke-width="5"></path>
                <path id="b_8"
                    name='B-8'
                    d="M1981 593.5H2005C2009.69 593.5 2013.5 597.306 2013.5 602V650C2013.5 654.694 2009.69 658.5 2005 658.5H1981C1963.05 658.5 1948.5 643.949 1948.5 626C1948.5 608.051 1963.05 593.5 1981 593.5Z"
                    fill="white" stroke="#D9D9D9" stroke-width="5"></path>
                <path id="c_8"
                    name='C-8'
                    d="M1981 523.5H2005C2009.69 523.5 2013.5 527.306 2013.5 532V580C2013.5 584.694 2009.69 588.5 2005 588.5H1981C1963.05 588.5 1948.5 573.949 1948.5 556C1948.5 538.051 1963.05 523.5 1981 523.5Z"
                    fill="white" stroke="#D9D9D9" stroke-width="5"></path>
                <path id="d_8"
                    name='D-8'
                    d="M1981.5 373.5H2005C2009.69 373.5 2013.5 377.306 2013.5 382V429C2013.5 433.694 2009.69 437.5 2005 437.5H1981.5C1963.83 437.5 1949.5 423.173 1949.5 405.5C1949.5 387.827 1963.83 373.5 1981.5 373.5Z"
                    fill="white" stroke="#D9D9D9" stroke-width="5"></path>
                <path id="e_8"
                    name='E-8'
                    d="M1981 304.5H2005C2009.69 304.5 2013.5 308.306 2013.5 313V361C2013.5 365.694 2009.69 369.5 2005 369.5H1981C1963.05 369.5 1948.5 354.949 1948.5 337C1948.5 319.051 1963.05 304.5 1981 304.5Z"
                    fill="white" stroke="#D9D9D9" stroke-width="5"></path>
                <path id="f_8"
                    name='F-8'
                    d="M1981 234.5H2005C2009.69 234.5 2013.5 238.306 2013.5 243V291C2013.5 295.694 2009.69 299.5 2005 299.5H1981C1963.05 299.5 1948.5 284.949 1948.5 267C1948.5 249.051 1963.05 234.5 1981 234.5Z"
                    fill="white" stroke="#D9D9D9" stroke-width="5"></path>
            </g>
            <g id="7">
                <path id="a_7"
                    name='A-7'
                    d="M1888.5 662.5H1912C1916.69 662.5 1920.5 666.306 1920.5 671V718C1920.5 722.694 1916.69 726.5 1912 726.5H1888.5C1870.83 726.5 1856.5 712.173 1856.5 694.5C1856.5 676.827 1870.83 662.5 1888.5 662.5Z"
                    fill="white" stroke="#D9D9D9" stroke-width="5"></path>
                <path id="b_7"
                    name='B-7'
                    d="M1889 593.5H1913C1917.69 593.5 1921.5 597.306 1921.5 602V650C1921.5 654.694 1917.69 658.5 1913 658.5H1889C1871.05 658.5 1856.5 643.949 1856.5 626C1856.5 608.051 1871.05 593.5 1889 593.5Z"
                    fill="white" stroke="#D9D9D9" stroke-width="5"></path>
                <path id="c_7"
                    name='C-7'
                    d="M1888 523.5H1912C1916.69 523.5 1920.5 527.306 1920.5 532V580C1920.5 584.694 1916.69 588.5 1912 588.5H1888C1870.05 588.5 1855.5 573.949 1855.5 556C1855.5 538.051 1870.05 523.5 1888 523.5Z"
                    fill="white" stroke="#D9D9D9" stroke-width="5"></path>
                <path id="d_7"
                    name='D-7'
                    d="M1885.5 373.5H1909C1913.69 373.5 1917.5 377.306 1917.5 382V429C1917.5 433.694 1913.69 437.5 1909 437.5H1885.5C1867.83 437.5 1853.5 423.173 1853.5 405.5C1853.5 387.827 1867.83 373.5 1885.5 373.5Z"
                    fill="white" stroke="#D9D9D9" stroke-width="5"></path>
                <path id="e_7"
                    name='E-7'
                    d="M1886 304.5H1910C1914.69 304.5 1918.5 308.306 1918.5 313V361C1918.5 365.694 1914.69 369.5 1910 369.5H1886C1868.05 369.5 1853.5 354.949 1853.5 337C1853.5 319.051 1868.05 304.5 1886 304.5Z"
                    fill="white" stroke="#D9D9D9" stroke-width="5"></path>
                <path id="f_7"
                    name='F-7'
                    d="M1885 234.5H1909C1913.69 234.5 1917.5 238.306 1917.5 243V291C1917.5 295.694 1913.69 299.5 1909 299.5H1885C1867.05 299.5 1852.5 284.949 1852.5 267C1852.5 249.051 1867.05 234.5 1885 234.5Z"
                    fill="white" stroke="#D9D9D9" stroke-width="5"></path>
            </g>
            <g id="6">
                <path id="a_6"
                    name='A-6'
                    d="M1793.5 662.5H1817C1821.69 662.5 1825.5 666.306 1825.5 671V718C1825.5 722.694 1821.69 726.5 1817 726.5H1793.5C1775.83 726.5 1761.5 712.173 1761.5 694.5C1761.5 676.827 1775.83 662.5 1793.5 662.5Z"
                    fill="white" stroke="#D9D9D9" stroke-width="5"></path>
                <path id="b_6"
                    name='B-6'
                    d="M1794 593.5H1818C1822.69 593.5 1826.5 597.306 1826.5 602V650C1826.5 654.694 1822.69 658.5 1818 658.5H1794C1776.05 658.5 1761.5 643.949 1761.5 626C1761.5 608.051 1776.05 593.5 1794 593.5Z"
                    fill="white" stroke="#D9D9D9" stroke-width="5"></path>
                <path id="c_6"
                    name='C-6'
                    d="M1793 523.5H1817C1821.69 523.5 1825.5 527.306 1825.5 532V580C1825.5 584.694 1821.69 588.5 1817 588.5H1793C1775.05 588.5 1760.5 573.949 1760.5 556C1760.5 538.051 1775.05 523.5 1793 523.5Z"
                    fill="white" stroke="#D9D9D9" stroke-width="5"></path>
                <path id="d_6"
                    name='D-6'
                    d="M1789.5 373.5H1813C1817.69 373.5 1821.5 377.306 1821.5 382V429C1821.5 433.694 1817.69 437.5 1813 437.5H1789.5C1771.83 437.5 1757.5 423.173 1757.5 405.5C1757.5 387.827 1771.83 373.5 1789.5 373.5Z"
                    fill="white" stroke="#D9D9D9" stroke-width="5"></path>
                <path id="e_6"
                    name='E-6'
                    d="M1790 304.5H1814C1818.69 304.5 1822.5 308.306 1822.5 313V361C1822.5 365.694 1818.69 369.5 1814 369.5H1790C1772.05 369.5 1757.5 354.949 1757.5 337C1757.5 319.051 1772.05 304.5 1790 304.5Z"
                    fill="white" stroke="#D9D9D9" stroke-width="5"></path>
                <path id="f_6"
                    name='F-6'
                    d="M1789 234.5H1813C1817.69 234.5 1821.5 238.306 1821.5 243V291C1821.5 295.694 1817.69 299.5 1813 299.5H1789C1771.05 299.5 1756.5 284.949 1756.5 267C1756.5 249.051 1771.05 234.5 1789 234.5Z"
                    fill="white" stroke="#D9D9D9" stroke-width="5"></path>
            </g>
            <g id="5">
                <path id="a_5"
                    name='A-5'
                    d="M1698.5 662.5H1722C1726.69 662.5 1730.5 666.306 1730.5 671V718C1730.5 722.694 1726.69 726.5 1722 726.5H1698.5C1680.83 726.5 1666.5 712.173 1666.5 694.5C1666.5 676.827 1680.83 662.5 1698.5 662.5Z"
                    fill="white" stroke="#D9D9D9" stroke-width="5"></path>
                <path id="b_5"
                    name='B-5'
                    d="M1699 593.5H1723C1727.69 593.5 1731.5 597.306 1731.5 602V650C1731.5 654.694 1727.69 658.5 1723 658.5H1699C1681.05 658.5 1666.5 643.949 1666.5 626C1666.5 608.051 1681.05 593.5 1699 593.5Z"
                    fill="white" stroke="#D9D9D9" stroke-width="5"></path>
                <path id="c_5"
                    name='C-5'
                    d="M1698 523.5H1722C1726.69 523.5 1730.5 527.306 1730.5 532V580C1730.5 584.694 1726.69 588.5 1722 588.5H1698C1680.05 588.5 1665.5 573.949 1665.5 556C1665.5 538.051 1680.05 523.5 1698 523.5Z"
                    fill="white" stroke="#D9D9D9" stroke-width="5"></path>
                <path id="d_5"
                    name='D-5'
                    d="M1684.5 373.5H1708C1712.69 373.5 1716.5 377.306 1716.5 382V429C1716.5 433.694 1712.69 437.5 1708 437.5H1684.5C1666.83 437.5 1652.5 423.173 1652.5 405.5C1652.5 387.827 1666.83 373.5 1684.5 373.5Z"
                    fill="white" stroke="#D9D9D9" stroke-width="5"></path>
                <path id="e_5"
                    name='E-5'
                    d="M1685 304.5H1709C1713.69 304.5 1717.5 308.306 1717.5 313V361C1717.5 365.694 1713.69 369.5 1709 369.5H1685C1667.05 369.5 1652.5 354.949 1652.5 337C1652.5 319.051 1667.05 304.5 1685 304.5Z"
                    fill="white" stroke="#D9D9D9" stroke-width="5"></path>
                <path id="f_5"
                    name='F-5'
                    d="M1684 234.5H1708C1712.69 234.5 1716.5 238.306 1716.5 243V291C1716.5 295.694 1712.69 299.5 1708 299.5H1684C1666.05 299.5 1651.5 284.949 1651.5 267C1651.5 249.051 1666.05 234.5 1684 234.5Z"
                    fill="white" stroke="#D9D9D9" stroke-width="5"></path>
            </g>
            <g id="4">
                <path id="a_4"
                    name='A-4'
                    d="M1602.5 662.5H1626C1630.69 662.5 1634.5 666.306 1634.5 671V718C1634.5 722.694 1630.69 726.5 1626 726.5H1602.5C1584.83 726.5 1570.5 712.173 1570.5 694.5C1570.5 676.827 1584.83 662.5 1602.5 662.5Z"
                    fill="white" stroke="#D9D9D9" stroke-width="5"></path>
                <path id="b_4"
                    name='B-4'
                    d="M1603 593.5H1627C1631.69 593.5 1635.5 597.306 1635.5 602V650C1635.5 654.694 1631.69 658.5 1627 658.5H1603C1585.05 658.5 1570.5 643.949 1570.5 626C1570.5 608.051 1585.05 593.5 1603 593.5Z"
                    fill="white" stroke="#D9D9D9" stroke-width="5"></path>
                <path id="c_4"
                    name='C-4'
                    d="M1602 523.5H1626C1630.69 523.5 1634.5 527.306 1634.5 532V580C1634.5 584.694 1630.69 588.5 1626 588.5H1602C1584.05 588.5 1569.5 573.949 1569.5 556C1569.5 538.051 1584.05 523.5 1602 523.5Z"
                    fill="white" stroke="#D9D9D9" stroke-width="5"></path>
                <path id="d_4"
                    name='D-4'
                    d="M1583.5 373.5H1607C1611.69 373.5 1615.5 377.306 1615.5 382V429C1615.5 433.694 1611.69 437.5 1607 437.5H1583.5C1565.83 437.5 1551.5 423.173 1551.5 405.5C1551.5 387.827 1565.83 373.5 1583.5 373.5Z"
                    fill="white" stroke="#D9D9D9" stroke-width="5"></path>
                <path id="e_4"
                    name='E-4'
                    d="M1584 304.5H1608C1612.69 304.5 1616.5 308.306 1616.5 313V361C1616.5 365.694 1612.69 369.5 1608 369.5H1584C1566.05 369.5 1551.5 354.949 1551.5 337C1551.5 319.051 1566.05 304.5 1584 304.5Z"
                    fill="white" stroke="#D9D9D9" stroke-width="5"></path>
                <path id="f_4"
                    name='F-4'
                    d="M1583 234.5H1607C1611.69 234.5 1615.5 238.306 1615.5 243V291C1615.5 295.694 1611.69 299.5 1607 299.5H1583C1565.05 299.5 1550.5 284.949 1550.5 267C1550.5 249.051 1565.05 234.5 1583 234.5Z"
                    fill="white" stroke="#D9D9D9" stroke-width="5"></path>
            </g>
            <g id="3">
                <path id="a_3"
                    name='A-3'
                    d="M1505.5 662.5H1529C1533.69 662.5 1537.5 666.306 1537.5 671V718C1537.5 722.694 1533.69 726.5 1529 726.5H1505.5C1487.83 726.5 1473.5 712.173 1473.5 694.5C1473.5 676.827 1487.83 662.5 1505.5 662.5Z"
                    fill="white" stroke="#D9D9D9" stroke-width="5"></path>
                <path id="b_3"
                    name='B-3'
                    d="M1506 593.5H1530C1534.69 593.5 1538.5 597.306 1538.5 602V650C1538.5 654.694 1534.69 658.5 1530 658.5H1506C1488.05 658.5 1473.5 643.949 1473.5 626C1473.5 608.051 1488.05 593.5 1506 593.5Z"
                    fill="white" stroke="#D9D9D9" stroke-width="5"></path>
                <path id="c_3"
                    name='C-3'
                    d="M1505 523.5H1529C1533.69 523.5 1537.5 527.306 1537.5 532V580C1537.5 584.694 1533.69 588.5 1529 588.5H1505C1487.05 588.5 1472.5 573.949 1472.5 556C1472.5 538.051 1487.05 523.5 1505 523.5Z"
                    fill="white" stroke="#D9D9D9" stroke-width="5"></path>
                <path id="d_3"
                    name='D-3'
                    d="M1478.5 373.5H1502C1506.69 373.5 1510.5 377.306 1510.5 382V429C1510.5 433.694 1506.69 437.5 1502 437.5H1478.5C1460.83 437.5 1446.5 423.173 1446.5 405.5C1446.5 387.827 1460.83 373.5 1478.5 373.5Z"
                    fill="white" stroke="#D9D9D9" stroke-width="5"></path>
                <path id="e_3"
                    name='E-3'
                    d="M1479 304.5H1503C1507.69 304.5 1511.5 308.306 1511.5 313V361C1511.5 365.694 1507.69 369.5 1503 369.5H1479C1461.05 369.5 1446.5 354.949 1446.5 337C1446.5 319.051 1461.05 304.5 1479 304.5Z"
                    fill="white" stroke="#D9D9D9" stroke-width="5"></path>
                <path id="f_3"
                    name='F-3'
                    d="M1478 234.5H1502C1506.69 234.5 1510.5 238.306 1510.5 243V291C1510.5 295.694 1506.69 299.5 1502 299.5H1478C1460.05 299.5 1445.5 284.949 1445.5 267C1445.5 249.051 1460.05 234.5 1478 234.5Z"
                    fill="white" stroke="#D9D9D9" stroke-width="5"></path>
            </g>
            <g id="2">
                <path id="a_2"
                    name='A-2'
                    d="M1408.5 662.5H1432C1436.69 662.5 1440.5 666.306 1440.5 671V718C1440.5 722.694 1436.69 726.5 1432 726.5H1408.5C1390.83 726.5 1376.5 712.173 1376.5 694.5C1376.5 676.827 1390.83 662.5 1408.5 662.5Z"
                    fill="#FF0000" stroke="#D9D9D9" stroke-width="5"></path>
                <path id="b_2"
                    name='B-2'
                    d="M1409 593.5H1433C1437.69 593.5 1441.5 597.306 1441.5 602V650C1441.5 654.694 1437.69 658.5 1433 658.5H1409C1391.05 658.5 1376.5 643.949 1376.5 626C1376.5 608.051 1391.05 593.5 1409 593.5Z"
                    fill="#FF0000" stroke="#D9D9D9" stroke-width="5"></path>
                <path id="c_2"
                    name='C-2'
                    d="M1408 523.5H1432C1436.69 523.5 1440.5 527.306 1440.5 532V580C1440.5 584.694 1436.69 588.5 1432 588.5H1408C1390.05 588.5 1375.5 573.949 1375.5 556C1375.5 538.051 1390.05 523.5 1408 523.5Z"
                    fill="#FF0000" stroke="#D9D9D9" stroke-width="5"></path>
                <path id="d_2"
                    name='D-2'
                    d="M1381.5 373.5H1405C1409.69 373.5 1413.5 377.306 1413.5 382V429C1413.5 433.694 1409.69 437.5 1405 437.5H1381.5C1363.83 437.5 1349.5 423.173 1349.5 405.5C1349.5 387.827 1363.83 373.5 1381.5 373.5Z"
                    fill="#FF0000" stroke="#D9D9D9" stroke-width="5"></path>
                <path id="e_2"
                    name='E-2'
                    d="M1382 304.5H1406C1410.69 304.5 1414.5 308.306 1414.5 313V361C1414.5 365.694 1410.69 369.5 1406 369.5H1382C1364.05 369.5 1349.5 354.949 1349.5 337C1349.5 319.051 1364.05 304.5 1382 304.5Z"
                    fill="#FF0000" stroke="#D9D9D9" stroke-width="5"></path>
                <path id="f_2"
                    name='F-2'
                    d="M1381 234.5H1405C1409.69 234.5 1413.5 238.306 1413.5 243V291C1413.5 295.694 1409.69 299.5 1405 299.5H1381C1363.05 299.5 1348.5 284.949 1348.5 267C1348.5 249.051 1363.05 234.5 1381 234.5Z"
                    fill="#FF0000" stroke="#D9D9D9" stroke-width="5"></path>
            </g>
            <g id="1">
                <path id="a_1"
                    name='A-1'
                    d="M1322 593.5H1346C1350.69 593.5 1354.5 597.306 1354.5 602V650C1354.5 654.694 1350.69 658.5 1346 658.5H1322C1304.05 658.5 1289.5 643.949 1289.5 626C1289.5 608.051 1304.05 593.5 1322 593.5Z"
                    fill="#FF0000" stroke="#D9D9D9" stroke-width="5"></path>
                <path id="c_1"
                    name='C-1'
                    d="M1321 523.5H1345C1349.69 523.5 1353.5 527.306 1353.5 532V580C1353.5 584.694 1349.69 588.5 1345 588.5H1321C1303.05 588.5 1288.5 573.949 1288.5 556C1288.5 538.051 1303.05 523.5 1321 523.5Z"
                    fill="#FF0000" stroke="#D9D9D9" stroke-width="5"></path>
            </g>
        </g>
        <g id="emegency_exit">
            <text id="EMERGENCY_EXIT" transform="matrix(0 -1 1 0 1046 634)" fill="#6d6d6d"
                style="white-space: pre" xml:space="preserve" font-size="32"
                font-weight="900" letter-spacing="0em"><tspan x="0" y="31.1364">EMERGENCY EXIT</tspan></text>
            <path id="Polygon_29"
                d="M1060.66 257.376C1061.58 254.661 1065.42 254.661 1066.34 257.376L1082.51 305.036C1083.17 306.982 1081.72 309 1079.67 309H1047.33C1045.28 309 1043.83 306.982 1044.49 305.036L1060.66 257.376Z"
                fill="#FF0000"></path>
            <path id="Polygon_30"
                d="M1063.61 723.416C1064.22 725.226 1066.78 725.226 1067.39 723.416L1084.96 671.642C1085.4 670.345 1084.43 669 1083.06 669H1047.94C1046.57 669 1045.6 670.345 1046.04 671.642L1063.61 723.416Z"
                fill="#FF0000"></path>
        </g>
        <g id="emegency_exit_1">
            <text id="EMERGENCY_EXIT_2" transform="matrix(0 -1 1 0 1046 634)" fill="#6d6d6d"
                style="white-space: pre" xml:space="preserve" font-size="32"
                font-weight="900" letter-spacing="0em"><tspan x="0" y="31.1364">EMERGENCY EXIT</tspan></text>
            <path id="Polygon_29_2"
                d="M1060.66 257.376C1061.58 254.661 1065.42 254.661 1066.34 257.376L1082.51 305.036C1083.17 306.982 1081.72 309 1079.67 309H1047.33C1045.28 309 1043.83 306.982 1044.49 305.036L1060.66 257.376Z"
                fill="#FF0000"></path>
            <path id="Polygon_30_2"
                d="M1063.61 723.416C1064.22 725.226 1066.78 725.226 1067.39 723.416L1084.96 671.642C1085.4 670.345 1084.43 669 1083.06 669H1047.94C1046.57 669 1045.6 670.345 1046.04 671.642L1063.61 723.416Z"
                fill="#FF0000"></path>
        </g>
        <g id="emegency_exit_2">
            <text id="EMERGENCY_EXIT_3" transform="matrix(0 -1 1 0 2877 634)" fill="#6d6d6d"
                style="white-space: pre" xml:space="preserve" font-size="32"
                font-weight="900" letter-spacing="0em"><tspan x="0" y="31.1364">EMERGENCY EXIT</tspan></text>
            <path id="Polygon_29_3"
                d="M2891.66 257.376C2892.58 254.661 2896.42 254.661 2897.34 257.376L2913.51 305.036C2914.17 306.982 2912.72 309 2910.67 309H2878.33C2876.28 309 2874.83 306.982 2875.49 305.036L2891.66 257.376Z"
                fill="#FF0000"></path>
            <path id="Polygon_30_3"
                d="M2894.61 723.416C2895.22 725.226 2897.78 725.226 2898.39 723.416L2915.96 671.642C2916.4 670.345 2915.43 669 2914.06 669H2878.94C2877.57 669 2876.6 670.345 2877.04 671.642L2894.61 723.416Z"
                fill="#FF0000"></path>
        </g>
        <g id="emegency_exit_3">
            <text id="EMERGENCY_EXIT_4" transform="matrix(0 -1 1 0 3041 634)" fill="#6d6d6d"
                style="white-space: pre" xml:space="preserve" font-size="32"
                font-weight="900" letter-spacing="0em"><tspan x="0" y="31.1364">EMERGENCY EXIT</tspan></text>
            <path id="Polygon_29_4"
                d="M3055.66 257.376C3056.58 254.661 3060.42 254.661 3061.34 257.376L3077.51 305.036C3078.17 306.982 3076.72 309 3074.67 309H3042.33C3040.28 309 3038.83 306.982 3039.49 305.036L3055.66 257.376Z"
                fill="#FF0000"></path>
            <path id="Polygon_30_4"
                d="M3058.61 723.416C3059.22 725.226 3061.78 725.226 3062.39 723.416L3079.96 671.642C3080.4 670.345 3079.43 669 3078.06 669H3042.94C3041.57 669 3040.6 670.345 3041.04 671.642L3058.61 723.416Z"
                fill="#FF0000"></path>
        </g>
        <g id="emegency_exit_4">
            <text id="EMERGENCY_EXIT_5" transform="matrix(0 -1 1 0 4048 634)" fill="#6d6d6d"
                style="white-space: pre" xml:space="preserve" font-size="32"
                font-weight="900" letter-spacing="0em"><tspan x="0" y="31.1364">EMERGENCY EXIT</tspan></text>
            <path id="Polygon_29_5"
                d="M4062.66 257.376C4063.58 254.661 4067.42 254.661 4068.34 257.376L4084.51 305.036C4085.17 306.982 4083.72 309 4081.67 309H4049.33C4047.28 309 4045.83 306.982 4046.49 305.036L4062.66 257.376Z"
                fill="#FF0000"></path>
            <path id="Polygon_30_5"
                d="M4065.61 723.416C4066.22 725.226 4068.78 725.226 4069.39 723.416L4086.96 671.642C4087.4 670.345 4086.43 669 4085.06 669H4049.94C4048.57 669 4047.6 670.345 4048.04 671.642L4065.61 723.416Z"
                fill="#FF0000"></path>
        </g>
        <g id="emegency_exit_5">
            <text id="EMERGENCY_EXIT_6" transform="matrix(0 -1 1 0 5058 634)" fill="#6d6d6d"
                style="white-space: pre" xml:space="preserve" font-size="32"
                font-weight="900" letter-spacing="0em"><tspan x="0" y="31.1364">EMERGENCY EXIT</tspan></text>
            <path id="Polygon_29_6"
                d="M5072.66 257.376C5073.58 254.661 5077.42 254.661 5078.34 257.376L5094.51 305.036C5095.17 306.982 5093.72 309 5091.67 309H5059.33C5057.28 309 5055.83 306.982 5056.49 305.036L5072.66 257.376Z"
                fill="#FF0000"></path>
            <path id="Polygon_30_6"
                d="M5075.61 723.416C5076.22 725.226 5078.78 725.226 5079.39 723.416L5096.96 671.642C5097.4 670.345 5096.43 669 5095.06 669H5059.94C5058.57 669 5057.6 670.345 5058.04 671.642L5075.61 723.416Z"
                fill="#FF0000"></path>
        </g>
        <g id="cockpit">
            <path id="Vector_1"
                d="M499.806 502.5H571.903C573.216 502.5 574.446 503.145 575.193 504.225L630.744 584.568C632.453 587.04 630.928 590.443 627.946 590.812L576.107 597.239C574.79 597.402 573.477 596.901 572.603 595.901L496.794 509.132C494.534 506.545 496.371 502.5 499.806 502.5Z"
                fill="#B4B7C1"></path>
            <path id="Vector_2"
                d="M610.038 613H663.592C664.19 613 664.78 613.134 665.319 613.392L705.317 632.54C708.079 633.862 708.391 637.672 705.881 639.427L672.31 662.886C670.925 663.854 669.08 663.847 667.702 662.868L607.722 620.261C604.545 618.004 606.142 613 610.038 613Z"
                fill="#B4B7C1"></path>
            <path id="Vector_3"
                d="M688.09 664.737L717.796 644.807C718.574 644.286 719.51 644.053 720.441 644.151L810.917 653.625C812.953 653.838 814.5 655.555 814.5 657.603V685.864C814.5 688.306 812.33 690.179 809.914 689.821L689.732 672.016C686.116 671.48 685.054 666.774 688.09 664.737Z"
                fill="#B4B7C1"></path>
            <path id="Vector_4"
                d="M499.806 473.5H571.903C573.216 473.5 574.446 472.855 575.193 471.775L630.744 391.432C632.453 388.96 630.928 385.557 627.946 385.188L576.107 378.761C574.79 378.598 573.477 379.099 572.603 380.099L496.794 466.868C494.534 469.455 496.371 473.5 499.806 473.5Z"
                fill="#B4B7C1"></path>
            <path id="Vector_5"
                d="M610.038 363H663.592C664.19 363 664.78 362.866 665.319 362.608L705.317 343.46C708.079 342.138 708.391 338.328 705.881 336.573L672.31 313.114C670.925 312.146 669.08 312.153 667.702 313.132L607.722 355.739C604.545 357.996 606.142 363 610.038 363Z"
                fill="#B4B7C1"></path>
            <path id="Vector_6"
                d="M688.09 311.263L717.796 331.193C718.574 331.714 719.51 331.947 720.441 331.849L810.917 322.375C812.953 322.162 814.5 320.445 814.5 318.397V290.136C814.5 287.694 812.33 285.821 809.914 286.179L689.732 303.984C686.116 304.52 685.054 309.226 688.09 311.263Z"
                fill="#B4B7C1"></path>
        </g>
        <g id="plane">
            <path id="Vector_8"
                d="M1020 429.5V229.02C1020 226.064 1017.45 223.753 1014.51 224.045L902.353 235.167C900.326 235.368 898.621 236.781 898.06 238.739C879.467 303.706 876.102 369.036 870.971 429.062C870.721 431.986 873.025 434.5 875.959 434.5H1015C1017.76 434.5 1020 432.261 1020 429.5Z"
                fill="#4D4D4D"></path>
            <path id="Vector_7"
                d="M1020 537.5V737.98C1020 740.936 1017.45 743.247 1014.51 742.955L902.353 731.833C900.326 731.632 898.621 730.219 898.06 728.261C879.467 663.294 876.102 597.964 870.971 537.938C870.721 535.014 873.025 532.5 875.959 532.5H1015C1017.76 532.5 1020 534.739 1020 537.5Z"
                fill="#4D4D4D"></path>
            <path id="Vector"
                d="M189.5 481C189.1 502.2 204 512.5 210 516.5L267 549C363 601.5 402.167 612.167 463 637C670 716 907.5 750.5 1268 750.5H5143L5308 746.5C5553.5 723.5 5737.5 669 5792 644C5879.2 604 5998.67 541.667 6047.5 515.5C6054.5 510.5 6060.5 504 6060.5 483.5M189.5 487.405C189.1 466.205 204 455.905 210 451.905L267 419.405C363 366.905 402.167 356.239 463 331.405C670 252.405 907.5 217.905 1268 217.905H5143L5308 221.905C5553.5 244.905 5737.5 299.405 5792 324.405C5879.2 364.405 5998.67 426.739 6047.5 452.905C6054.5 457.905 6060.5 464.405 6060.5 484.905"
                stroke="#d6d6d6" stroke-width="10" fill='none'></path>
        </g>
    </g>
</svg>